<svg xmlns="http://www.w3.org/2000/svg" width="299" height="116"  fill="none" fill-rule="evenodd" xmlns:v="https://vecta.io/nano"><g stroke="#e8cfa4"><path stroke-width=".55" fill="#3f6e7c" d="M.275.275h298.45v115.45H.275z"/><path stroke-width=".2" stroke-linecap="square" d="M179.5 23v65"/></g><g fill="#e8cfa4" fill-rule="nonzero"><path d="M196.642 82c1.962 0 3.978-.918 3.978-3.186s-2.052-3.222-3.798-3.222c1.566-.27 2.916-1.188 2.916-3.042 0-2.268-2.034-3.15-3.78-3.15H190.9v.09c1.026 0 1.116.666 1.134 1.98v8.46c-.018 1.314-.108 1.98-1.134 1.98V82h5.742zm-1.116-6.408H193.6V71.47c0-1.314.108-1.98 1.134-1.98h.792c1.044 0 2.484.792 2.484 3.06s-1.134 3.042-2.484 3.042zm.738 6.318h-1.53c-1.026 0-1.134-.666-1.134-1.98v-4.248h2.664c1.044 0 2.61.864 2.61 3.132s-1.476 3.096-2.61 3.096zm9.43.09v-.09c-1.026 0-1.116-.666-1.134-1.98l.018-4.05c.252-.99.99-2.052 1.62-2.232.666-.198.666.378 1.116.666.414.27 1.044.072 1.062-.54.018-.576-.54-.918-1.26-.828-.684.072-2.106 1.098-2.556 2.736.018-1.656.144-2.394.306-2.484v-.09h-2.916v.09c1.026 0 1.134.648 1.134 1.98v4.752c0 1.314-.108 1.98-1.134 1.98V82h3.744zm8.17.18c1.278 0 2.178-.756 2.628-1.638-.054.882-.144 1.314-.27 1.368V82h2.916v-.09c-1.026 0-1.116-.648-1.134-1.962v-4.05c0-1.8.126-2.61.306-2.7v-.09h-2.916v.09c1.026 0 1.116.648 1.134 1.98v4.032l-.018 1.098c-.414 1.098-1.53 1.746-2.304 1.746-1.746 0-1.944-1.44-1.944-2.664v-3.492c0-1.8.126-2.61.288-2.7v-.09h-2.916v.09c.979 0 1.122.59 1.133 1.803l.001 4.299c0 2.142 1.314 2.88 3.096 2.88zM224.5 82v-.09c-.979 0-1.122-.607-1.133-1.805l-.001-4.207.018-1.098c.414-1.098 1.53-1.746 2.286-1.746 1.746 0 1.962 1.458 1.962 2.664v4.212c0 1.314-.108 1.98-1.134 1.98V82h3.744v-.09c-1.026 0-1.116-.648-1.134-1.98v-4.122c0-2.124-1.296-2.88-3.078-2.88-1.278 0-2.178.756-2.646 1.656.054-.9.162-1.332.288-1.386v-.09h-2.934v.09c.979 0 1.122.59 1.133 1.803l.001 4.929c0 1.314-.108 1.98-1.134 1.98V82h3.762zm12.022 4.392c2.178-.612 3.69-2.574 3.168-3.87-.54-1.386-2.304-.792-5.526-1.53-1.26-.288-1.458-1.044-.342-1.422.558.216 1.17.306 1.746.252 1.566-.162 3.186-1.368 3.114-3.402-.036-1.062-.594-1.818-1.332-2.286.072-.27.198-.504.36-.63.414-.396.648.018 1.08.072.414.036.792-.342.576-.81-.198-.432-.738-.468-1.242-.144-.288.198-.666.756-.828 1.476-.684-.396-1.53-.558-2.268-.504-1.584.162-3.294 1.35-3.132 3.42.108 1.296.9 2.124 1.872 2.538-.414.126-.936.324-1.224.828-.216.378-.234 1.026.216 1.404 1.314 1.044 4.752.576 5.58 1.26.702.558.522 2.052-1.224 2.97-1.818.954-4.86.828-5.004-1.314-.09-1.314.612-1.872 1.368-1.962.72-.09 1.458.18 1.458.18v-.18c-.432-.072-.9-.09-1.368-.072-1.332.018-2.862.504-2.592 2.16.252 1.62 3.402 2.16 5.544 1.566zm-3.294-9.486c-.144-1.8.63-3.114 1.8-3.24 1.17-.108 2.16 1.044 2.322 2.844.144 1.8-.63 3.114-1.8 3.24-1.17.108-2.142-1.044-2.322-2.844zm10.582 5.256c2.124 0 3.312-.846 3.312-2.376 0-2.628-4.824-2.934-4.824-5.112 0-.864.594-1.656 1.728-1.656.99 0 1.332.27 1.656.612.432.486-.09.846-.126 1.368-.054.486.45.846.918.666.45-.198.558-.864.162-1.458-.342-.504-1.008-1.26-2.61-1.26-1.836 0-3.006.738-3.006 2.124 0 3.096 4.752 3.186 4.752 5.364 0 .9-.792 1.656-1.962 1.656-1.134 0-1.71-.342-2.052-.738-.468-.522.126-.9.162-1.422.054-.486-.45-.846-.918-.666-.45.18-.558.864-.162 1.458.342.504 1.314 1.44 2.97 1.44zM196.912 61c3.888 0 5.814-2.79 5.814-6.3s-1.944-6.3-5.814-6.3H190.9v.09c1.026 0 1.116.666 1.134 1.98v8.46c-.018 1.314-.108 1.98-1.134 1.98V61h6.012zm-.792-.09h-1.386c-1.026 0-1.134-.666-1.134-1.98v-8.46c0-1.314.108-1.98 1.134-1.98h1.386c2.322 0 4.806 1.404 4.806 6.21 0 4.824-2.484 6.21-4.806 6.21zm11.878.09v-.09c-.979 0-1.122-.607-1.133-1.805l-.001-5.269c.396-1.116 1.53-1.782 2.304-1.782 1.746 0 1.962 1.44 1.962 2.664v4.212c0 1.314-.108 1.98-1.134 1.98V61h3.744v-.09c-1.026 0-1.116-.666-1.134-1.98v-4.122c0-2.142-1.296-2.88-3.078-2.88-1.314 0-2.232.792-2.664 1.692v-3.078c0-1.8.126-2.61.306-2.7v-.09h-2.934v.09c1.026 0 1.134.648 1.134 1.962v9.126c0 1.314-.108 1.98-1.134 1.98V61h3.762zm10.042.018c.792-.252 1.35-.828 1.764-1.566.144 1.458 1.08 1.71 2.106 1.71.36 0 .612-.072.846-.216v-.09a1.37 1.37 0 0 1-.612.18c-.828 0-.882-.702-.882-1.908v-4.536c0-1.8-1.26-2.646-2.952-2.646-1.926 0-2.574 1.062-2.88 1.728-.306.648-.09 1.296.396 1.404.504.126.936-.324.81-.792-.126-.522-.648-.738-.378-1.314.27-.612.828-.954 1.998-.954 1.314 0 1.53 1.134 1.53 2.664v1.602c-.27.162-.576.306-.954.432-1.242.414-3.798.666-3.924 2.574-.126 1.8 1.782 2.142 3.132 1.728zm-1.89-2.142c.18-1.62 1.89-1.782 2.754-2.106.378-.144.648-.27.882-.414v2.682c0 .108 0 .216.018.324-.342.612-.81 1.152-1.458 1.458-1.116.54-2.394-.036-2.196-1.944zM227.578 61v-.09c-1.026 0-1.134-.666-1.134-1.98v-8.388c0-1.8.126-2.61.306-2.7v-.09h-2.934v.09c.979 0 1.122.59 1.133 1.787l.001 9.301c0 1.314-.108 1.98-1.134 1.98V61h3.762zm5.362 0v-.09c-.979 0-1.122-.607-1.133-1.805l-.001-8.563c0-1.8.126-2.61.306-2.7v-.09h-2.934v.09c1.026 0 1.134.648 1.134 1.962v9.126c0 1.314-.108 1.98-1.134 1.98V61h3.762zm5.56.18c1.278 0 2.178-.756 2.628-1.638-.054.882-.144 1.314-.27 1.368V61h2.916v-.09c-1.026 0-1.116-.648-1.134-1.962v-4.05c0-1.8.126-2.61.306-2.7v-.09h-2.916v.09c1.026 0 1.116.648 1.134 1.98v4.032l-.018 1.098c-.414 1.098-1.53 1.746-2.304 1.746-1.684 0-1.928-1.339-1.943-2.532l-.001-3.624c0-1.8.126-2.61.288-2.7v-.09h-2.916v.09c1.026 0 1.134.648 1.134 1.98V58.3c0 2.142 1.314 2.88 3.096 2.88zm8.746-10.962c.522 0 .954-.432.954-.99s-.432-1.008-.954-1.008c-.54 0-.954.45-.954 1.008s.414.99.954.99zM249.118 61v-.09c-.979 0-1.122-.607-1.133-1.805l-.001-4.189c0-1.818.126-2.628.306-2.718v-.09h-2.916v.09c1.026 0 1.116.648 1.134 1.962v4.77c-.018 1.314-.108 1.98-1.134 1.98V61h3.744zm5.362 0v-.09c-.979 0-1.122-.607-1.133-1.805l-.001-4.207.018-1.098c.414-1.098 1.53-1.746 2.286-1.746 1.746 0 1.962 1.458 1.962 2.664v4.212c0 1.314-.108 1.98-1.134 1.98V61h3.744v-.09c-1.026 0-1.116-.648-1.134-1.98v-4.122c0-2.124-1.296-2.88-3.078-2.88-1.278 0-2.178.756-2.646 1.656.054-.9.162-1.332.288-1.386v-.09h-2.934v.09c1.026 0 1.134.648 1.134 1.98v4.752c0 1.314-.108 1.98-1.134 1.98V61h3.762z"/><path d="M196.642 40c1.962 0 3.978-.918 3.978-3.186s-2.052-3.222-3.798-3.222c1.566-.27 2.916-1.188 2.916-3.042 0-2.268-2.034-3.15-3.78-3.15H190.9v.09c1.026 0 1.116.666 1.134 1.98v8.46c-.018 1.314-.108 1.98-1.134 1.98V40h5.742zm-1.116-6.408H193.6V29.47c0-1.314.108-1.98 1.134-1.98h.792c1.044 0 2.484.792 2.484 3.06s-1.134 3.042-2.484 3.042zm.738 6.318h-1.53c-1.026 0-1.134-.666-1.134-1.98v-4.248h2.664c1.044 0 2.61.864 2.61 3.132s-1.476 3.096-2.61 3.096zm11.014.252c1.368-.09 2.178-.576 2.826-1.134v-.198c-.684.666-1.674 1.242-2.826 1.26-1.926.054-3.384-1.584-3.618-4.266a7.54 7.54 0 0 1 .072-1.818h6.786c-.342-2.052-1.962-3.222-4.086-3.06-2.502.18-4.554 2.142-4.374 4.932.216 2.97 2.682 4.446 5.22 4.284zm1.71-6.228h-5.238c.324-1.692 1.296-2.934 2.682-2.916 1.836.036 2.412 1.44 2.556 2.916zM215.592 40v-.09c-1.026 0-1.116-.666-1.134-1.98l.018-4.05c.252-.99.99-2.052 1.62-2.232.666-.198.666.378 1.116.666.414.27 1.044.072 1.062-.54.018-.576-.54-.918-1.26-.828-.684.072-2.106 1.098-2.556 2.736.018-1.656.144-2.394.306-2.484v-.09h-2.916v.09c1.026 0 1.134.648 1.134 1.98v4.752c0 1.314-.108 1.98-1.134 1.98V40h3.744zm8.71 4.392c2.178-.612 3.69-2.574 3.168-3.87-.54-1.386-2.304-.792-5.526-1.53-1.26-.288-1.458-1.044-.342-1.422.558.216 1.17.306 1.746.252 1.566-.162 3.186-1.368 3.114-3.402-.036-1.062-.594-1.818-1.332-2.286.072-.27.198-.504.36-.63.414-.396.648.018 1.08.072.414.036.792-.342.576-.81-.198-.432-.738-.468-1.242-.144-.288.198-.666.756-.828 1.476-.684-.396-1.53-.558-2.268-.504-1.584.162-3.294 1.35-3.132 3.42.108 1.296.9 2.124 1.872 2.538-.414.126-.936.324-1.224.828-.216.378-.234 1.026.216 1.404 1.314 1.044 4.752.576 5.58 1.26.702.558.522 2.052-1.224 2.97-1.818.954-4.86.828-5.004-1.314-.09-1.314.612-1.872 1.368-1.962.72-.09 1.458.18 1.458.18v-.18c-.432-.072-.9-.09-1.368-.072-1.332.018-2.862.504-2.592 2.16.252 1.62 3.402 2.16 5.544 1.566zm-3.294-9.486c-.144-1.8.63-3.114 1.8-3.24 1.17-.108 2.16 1.044 2.322 2.844.144 1.8-.63 3.114-1.8 3.24-1.17.108-2.142-1.044-2.322-2.844zm12.598 5.256c1.368-.09 2.178-.576 2.826-1.134v-.198c-.684.666-1.674 1.242-2.826 1.26-1.926.054-3.384-1.584-3.618-4.266a7.54 7.54 0 0 1 .072-1.818h6.786c-.342-2.052-1.962-3.222-4.086-3.06-2.502.18-4.554 2.142-4.374 4.932.216 2.97 2.682 4.446 5.22 4.284zm1.71-6.228h-5.238c.324-1.692 1.296-2.934 2.682-2.916 1.836.036 2.412 1.44 2.556 2.916zM241.92 40v-.09c-1.026 0-1.116-.666-1.134-1.98l.018-4.05c.252-.99.99-2.052 1.62-2.232.666-.198.666.378 1.116.666.414.27 1.044.072 1.062-.54.018-.576-.54-.918-1.26-.828-.684.072-2.106 1.098-2.556 2.736.018-1.656.144-2.394.306-2.484v-.09h-2.916v.09c.979 0 1.122.59 1.133 1.803l.001 4.929c0 1.314-.108 1.98-1.134 1.98V40h3.744zm6.73.018c.792-.252 1.35-.828 1.764-1.566.144 1.458 1.08 1.71 2.106 1.71.36 0 .612-.072.846-.216v-.09a1.37 1.37 0 0 1-.612.18c-.787 0-.875-.634-.882-1.731v-4.713c0-1.8-1.26-2.646-2.952-2.646-1.926 0-2.574 1.062-2.88 1.728-.306.648-.09 1.296.396 1.404.504.126.936-.324.81-.792-.126-.522-.648-.738-.378-1.314.27-.612.828-.954 1.998-.954 1.314 0 1.53 1.134 1.53 2.664v1.602c-.27.162-.576.306-.954.432-1.242.414-3.798.666-3.924 2.574-.126 1.8 1.782 2.142 3.132 1.728zm-1.89-2.142c.18-1.62 1.89-1.782 2.754-2.106.378-.144.648-.27.882-.414v2.682c0 .108 0 .216.018.324-.342.612-.81 1.152-1.458 1.458-1.116.54-2.394-.036-2.196-1.944zm11.626 2.304c1.278 0 2.178-.756 2.628-1.638-.054.882-.144 1.314-.27 1.368V40h2.916v-.09c-1.026 0-1.116-.648-1.134-1.962v-4.05c0-1.8.126-2.61.306-2.7v-.09h-2.916v.09c1.026 0 1.116.648 1.134 1.98v4.032l-.018 1.098c-.414 1.098-1.53 1.746-2.304 1.746-1.746 0-1.944-1.44-1.944-2.664v-3.492c0-1.8.126-2.61.288-2.7v-.09h-2.916v.09c.979 0 1.122.59 1.133 1.803l.001 4.299c0 2.142 1.314 2.88 3.096 2.88zm10.636-.18v-.09c-.979 0-1.122-.607-1.133-1.805l-.001-8.563c0-1.8.126-2.61.306-2.7v-.09h-2.934v.09c1.026 0 1.134.648 1.134 1.962v9.126c0 1.314-.108 1.98-1.134 1.98V40h3.762zm4.984.18c.45 0 .756-.09.972-.216v-.108c-.09.054-.396.198-.702.198-1.17 0-1.44-1.134-1.44-2.358v-6.498h1.872v-.09h-1.872V29.11h-.09c-.216 1.008-.684 1.26-1.386 1.35v.648h-.828v.09h.828v6.408c0 2.142 1.44 2.574 2.646 2.574zM47.829 76v-.052c-.707 0-1.279-.728-1.279-1.966v-4.16A642.16 642.16 0 0 0 51.365 76h.302v-5.262c0-1.238.572-1.966 1.279-1.966v-.052h-2.621v.052c.707 0 1.29.728 1.29 1.966v3.078l-3.91-5.096h-2.423v.052c.447 0 .863.478 1.217.978v4.233c0 1.238-.582 1.966-1.29 1.966V76h2.621zm8.626.094c1.394-.094 2.735-1.196 2.642-2.922-.094-1.747-1.83-2.558-3.307-2.402-1.466.166-2.756 1.144-2.621 2.912.146 1.841 1.893 2.517 3.286 2.413zm-1.654-2.475c-.146-1.373.135-2.725.998-2.808.863-.073 1.518.967 1.654 2.444.125 1.383-.125 2.714-.998 2.798s-1.498-.998-1.654-2.434zm7.118 2.486c.302 0 .499-.052.655-.135v-.052a1.18 1.18 0 0 1-.458.104c-.499 0-.551-.655-.551-1.352v-3.754h.926v-.052h-.926v-1.269h-.052c-.198.655-.957.884-1.508.884v.385h-.478v.052h.478v3.546c0 1.539 1.206 1.643 1.914 1.643zm3.103-.094c.437-.125.738-.458.936-.874.177.884 1.258.967 1.862.967.198 0 .406-.052.53-.125v-.062a.64.64 0 0 1-.354.114c-.478 0-.499-.406-.499-1.113v-2.423c0-1.404-1.269-1.737-2.246-1.737-1.113 0-1.695.624-1.862 1.009-.177.426.021.811.333.874.364.073.593-.239.51-.52-.083-.291-.416-.426-.27-.759.156-.322.582-.562 1.258-.562.717 0 .71.594.708 1.404v1.102c-.104.083-.25.156-.447.229-1.04.354-2.475.198-2.527 1.487-.042 1.134 1.29 1.227 2.07.988zm-.655-1.227c.062-.946.655-1.04 1.165-1.227.166-.062.302-.125.395-.187v1.498c0 .073.01.135.021.198-.166.354-.395.666-.749.832-.634.322-.905-.166-.832-1.113zm5.578-4.732c.458 0 .822-.385.822-.853 0-.478-.364-.853-.822-.853-.447 0-.811.374-.811.853 0 .468.364.853.811.853zM71.39 76v-.052c-.562 0-.655-.291-.655-1.134v-2.34c0-1.05.073-1.508.166-1.56v-.052H68.51v.052c.562 0 .655.291.655 1.134v2.756c0 .842-.094 1.144-.655 1.144V76h2.881zm3.186 0v-.052c-.551 0-.645-.302-.655-1.144v-2.402c.166-.562.572-1.134.926-1.238.374-.114.166.395.562.655.239.146.738.094.832-.302.125-.468-.218-.811-.832-.759-.426.042-1.196.603-1.477 1.498.01-.894.073-1.29.166-1.342v-.052h-2.392v.052c.562 0 .655.281.655 1.134v2.756c0 .842-.094 1.144-.655 1.144V76h2.87zm5.37.094c.759-.042 1.342-.322 1.737-.572v-.125c-.354.333-1.134.655-1.747.655-1.175-.01-1.747-1.217-1.841-2.465-.031-.343.01-.707.052-1.05h3.796c-.156-1.227-1.113-1.83-2.527-1.768-1.435.062-2.954.978-2.87 2.839s1.914 2.569 3.401 2.486zm.53-3.588h-2.33c.125-.894.499-1.654 1.269-1.695.801-.052 1.03.811 1.061 1.695zm4.029 3.588c1.238 0 2.122-.52 2.246-1.435.281-2.111-2.933-1.914-2.933-3.068 0-.51.333-.78.863-.78.447 0 .822.146 1.009.343.25.281-.073.489-.104.79-.021.302.291.51.562.406.302-.104.354-.52.125-.863-.198-.291-.79-.728-1.799-.728-.957 0-1.789.426-1.841 1.352-.114 2.028 3.078 1.685 3.006 3.078-.031.551-.53.863-1.206.863-.562 0-1.019-.208-1.217-.437-.27-.291.104-.51.125-.811.021-.281-.229-.52-.562-.416-.27.094-.354.53-.114.874.198.291.78.832 1.841.832zm6.78-.094v-.052c-.697 0-.78-1.113-.458-1.986l.291-.738h2.007l.666 1.768c.291.759.218.957-.291.957V76h3.078v-.052c-.655 0-.936-.738-1.217-1.404l-1.302-3.279-1.007-2.545h-.229l-2.194 5.616c-.406 1.03-.894 1.487-1.56 1.612V76h2.215zm1.82-2.818h-1.976l.998-2.548.978 2.548zm5.464 2.912c1.238 0 2.122-.52 2.246-1.435.281-2.111-2.933-1.914-2.933-3.068 0-.51.333-.78.863-.78.447 0 .822.146 1.009.343.25.281-.073.489-.104.79-.021.302.291.51.562.406.302-.104.354-.52.125-.863-.198-.291-.79-.728-1.799-.728-.957 0-1.789.426-1.841 1.352-.114 2.028 3.078 1.685 3.006 3.078-.031.551-.53.863-1.206.863-.562 0-1.019-.208-1.217-.437-.27-.291.104-.51.125-.811.021-.281-.229-.52-.562-.416-.27.094-.354.53-.114.874.198.291.78.832 1.841.832zm4.882 0c1.238 0 2.122-.52 2.246-1.435.281-2.111-2.933-1.914-2.933-3.068 0-.51.333-.78.863-.78.447 0 .822.146 1.009.343.25.281-.073.489-.104.79-.021.302.291.51.562.406.302-.104.354-.52.125-.863-.198-.291-.79-.728-1.799-.728-.957 0-1.789.426-1.841 1.352-.114 2.028 3.078 1.685 3.006 3.078-.031.551-.53.863-1.206.863-.562 0-1.019-.208-1.217-.437-.27-.291.104-.51.125-.811.021-.281-.229-.52-.562-.416-.27.094-.354.53-.114.874.198.291.78.832 1.841.832zm6.192 0c1.394-.094 2.735-1.196 2.642-2.922-.094-1.747-1.83-2.558-3.307-2.402-1.466.166-2.756 1.144-2.621 2.912.146 1.841 1.893 2.517 3.286 2.413zm-1.654-2.475c-.146-1.373.135-2.725.998-2.808.863-.073 1.518.967 1.654 2.444.125 1.383-.125 2.714-.998 2.798s-1.498-.998-1.654-2.434zm8.376 2.475c.655-.042 1.186-.291 1.508-.551v-.125c-.27.312-.957.634-1.518.634-1.144-.01-1.747-1.217-1.841-2.465-.094-1.238.281-2.694 1.352-2.777.603-.042 1.196.198 1.404.499.229.333-.125.354-.239.707s.156.686.562.624.51-.572.312-.946-.988-.988-2.038-.926c-1.446.083-3.047.926-2.933 2.839.135 1.986 1.945 2.579 3.432 2.486zm3.446-6.042c.458 0 .822-.385.822-.853 0-.478-.364-.853-.822-.853-.447 0-.811.374-.811.853 0 .468.364.853.811.853zM121.257 76v-.052c-.562 0-.655-.291-.655-1.134v-2.34c0-1.05.073-1.508.166-1.56v-.052h-2.392v.052c.562 0 .655.291.655 1.134v2.756c0 .842-.094 1.144-.655 1.144V76h2.881zm3.353-5.918l1.154-1.154h-.936l-.27 1.154h.052zm.478 6.011c.759-.042 1.342-.322 1.737-.572v-.125c-.354.333-1.134.655-1.747.655-1.175-.01-1.747-1.217-1.841-2.465-.031-.343.01-.707.052-1.05h3.796c-.156-1.227-1.113-1.83-2.527-1.768-1.435.062-2.954.978-2.87 2.839s1.914 2.569 3.401 2.486zm.53-3.588h-2.33c.125-.894.499-1.654 1.269-1.695.801-.052 1.03.811 1.061 1.695zm3.925 3.588c1.238 0 2.122-.52 2.246-1.435.281-2.111-2.933-1.914-2.933-3.068 0-.51.333-.78.863-.78.447 0 .822.146 1.009.343.25.281-.073.489-.104.79-.021.302.291.51.562.406.302-.104.354-.52.125-.863-.198-.291-.79-.728-1.799-.728-.957 0-1.789.426-1.841 1.352-.114 2.028 3.078 1.685 3.006 3.078-.031.551-.53.863-1.206.863-.562 0-1.019-.208-1.217-.437-.27-.291.104-.51.125-.811.021-.281-.229-.52-.562-.416-.27.094-.354.53-.114.874.198.291.78.832 1.841.832zM22.371 61v-.115c-1.564 0-2.852-1.61-2.852-4.347v-9.522l5.504 6.991L30.513 61h.276V49.362c0-2.737 1.288-4.347 2.829-4.347V44.9h-5.796v.115c1.564 0 2.852 1.61 2.852 4.347v8.602L20.577 44.9h-3.841v.115c.897 0 1.863.874 2.668 1.863v9.66c0 2.737-1.265 4.347-2.829 4.347V61h5.796zm21.734.161c4.784-.414 8.349-3.956 7.912-8.97-.46-5.037-4.6-7.889-9.361-7.452-4.784.414-8.349 3.956-7.912 8.993.46 5.014 4.6 7.866 9.361 7.429zm-7.061-7.636c-.414-4.485 2.116-8.372 5.612-8.671 3.496-.322 6.67 3.059 7.061 7.521.414 4.485-2.116 8.349-5.612 8.671-3.496.299-6.67-3.059-7.061-7.521zM62.458 61v-.115c-1.259 0-1.436-.784-1.448-2.332l-.001-11.008c0-1.702.138-2.53 1.449-2.53h.391c2.3 0 3.335 1.84 4.002 3.335h.115l-.506-3.45H53.534l-.506 3.45h.115c.667-1.495 1.702-3.335 4.002-3.335h.391c1.311 0 1.449.828 1.449 2.53v10.81c0 1.679-.138 2.53-1.449 2.53V61h4.922zm7.152 0v-.115c-1.541 0-1.725-2.438-1.012-4.393l.736-1.886h5.52l1.587 4.163c.621 1.679.46 2.116-.644 2.116V61h5.06v-.115c-1.426 0-2.07-1.61-2.668-3.082-.621-1.472-4.968-12.903-4.968-12.903h-.207l-4.853 12.42c-.897 2.3-1.978 3.312-3.45 3.565V61h4.899zm5.198-6.509H69.38l2.737-7.015 2.104 5.479.587 1.536zm15.616 6.67c2.553-.161 3.979-.989 5.221-1.978v-.345c-1.288 1.173-3.059 2.162-5.244 2.208-3.611.092-6.67-3.059-7.061-7.521-.391-4.485 2.116-8.349 5.612-8.671 1.15-.092 2.392.184 3.519.782 1.38.805 2.783 2.737 2.783 4.232h.115v-5.796h-.115c0 1.564-.506 1.495-1.679 1.219-1.334-.322-3.174-.667-4.623-.552-4.761.437-8.349 3.956-7.889 8.993.437 5.014 4.577 7.728 9.361 7.429zm16.513 0c4.784-.414 8.349-3.956 7.912-8.97-.46-5.037-4.6-7.889-9.361-7.452-4.784.414-8.349 3.956-7.912 8.993.46 5.014 4.6 7.866 9.361 7.429zm-7.061-7.636c-.414-4.485 2.116-8.372 5.612-8.671 3.496-.322 6.67 3.059 7.061 7.521.414 4.485-2.116 8.349-5.612 8.671-3.496.299-6.67-3.059-7.061-7.521zM127.935 61l.943-3.887h-.115c-.667 1.495-2.139 3.772-4.462 3.772h-2.622c-1.311 0-1.426-.851-1.449-2.53v-5.313h1.679c1.794 0 3.22 1.288 3.22 2.829h.115v-5.773h-.115c0 1.541-1.426 2.829-3.22 2.829h-1.679v-5.382c.023-1.679.138-2.53 1.449-2.53h1.909c2.3 0 3.611 1.564 4.278 3.059h.115l-.782-3.174H116.78v.115c1.311 0 1.449.851 1.449 2.53v10.81c0 1.679-.138 2.53-1.449 2.53V61h11.155zm9.613.23c2.622 0 5.244-1.219 5.244-5.244v-8.441c0-1.702.138-2.53 1.449-2.53V44.9h-3.013v.115c1.259 0 1.436.763 1.448 2.33l.001 8.641c0 3.059-1.564 5.083-5.129 5.083-2.162 0-3.795-1.84-3.795-4.807v-8.717c.023-1.702.138-2.53 1.449-2.53V44.9h-4.899v.115c1.311 0 1.449.828 1.449 2.53v8.441c0 4.025 3.289 5.244 5.796 5.244zM151.14 61v-.115c-1.311 0-1.426-.828-1.449-2.507v-5.336h2.001c2.369.138 2.645 4.669 4.646 6.946.621.736 1.61 1.012 2.599 1.012h2.461v-.115c-1.403 0-2.622-1.058-3.519-2.392-1.449-2.162-2.001-4.876-4.255-5.566 2.047-.322 3.818-1.541 3.818-3.956 0-2.898-2.622-4.071-4.853-4.071h-6.348v.115c1.311 0 1.426.828 1.449 2.53v10.833c-.023 1.679-.138 2.507-1.449 2.507V61h4.899zm.736-8.073h-2.185v-5.382c.023-1.702.138-2.53 1.449-2.53h.736c1.334 0 3.335 1.058 3.335 3.956s-1.886 3.956-3.335 3.956z"/></g></svg>