<svg xmlns="http://www.w3.org/2000/svg" width="180" height="156"  fill-rule="evenodd" xmlns:v="https://vecta.io/nano"><path d="M0 108V0h180v108h-57l-32.5 48L58 108H0z" fill="#3f6e7c"/><path d="M48.829 70v-.052c-.707 0-1.279-.728-1.279-1.966v-4.16A642.16 642.16 0 0 0 52.365 70h.302v-5.262c0-1.238.572-1.966 1.279-1.966v-.052h-2.621v.052c.707 0 1.29.728 1.29 1.966v3.078l-3.91-5.096h-2.423v.052c.447 0 .863.478 1.217.978v4.233c0 1.238-.582 1.966-1.29 1.966V70h2.621zm8.626.094c1.394-.094 2.735-1.196 2.642-2.922-.094-1.747-1.83-2.558-3.307-2.402-1.466.166-2.756 1.144-2.621 2.912.146 1.841 1.893 2.517 3.286 2.413zm-1.654-2.475c-.146-1.373.135-2.725.998-2.808.863-.073 1.518.967 1.654 2.444.125 1.383-.125 2.714-.998 2.798s-1.498-.998-1.654-2.434zm7.118 2.486c.302 0 .499-.052.655-.135v-.052a1.18 1.18 0 0 1-.458.104c-.499 0-.551-.655-.551-1.352v-3.754h.926v-.052h-.926v-1.269h-.052c-.198.655-.957.884-1.508.884v.385h0-.478 0v.052h.478v3.546h0c0 1.539 1.206 1.643 1.914 1.643zm3.103-.094c.437-.125.738-.458.936-.874.177.884 1.258.967 1.862.967.198 0 .406-.052.53-.125v-.062a.64.64 0 0 1-.354.114c-.478 0-.499-.406-.499-1.113v-2.423h0c0-1.404-1.269-1.737-2.246-1.737-1.113 0-1.695.624-1.862 1.009-.177.426.021.811.333.874.364.073.593-.239.51-.52-.083-.291-.416-.426-.27-.759.156-.322.582-.562 1.258-.562.717 0 .71.594.708 1.404v1.102h0c-.104.083-.25.156-.447.229-1.04.354-2.475.198-2.527 1.487-.042 1.134 1.29 1.227 2.07.988zm-.655-1.227c.062-.946.655-1.04 1.165-1.227.166-.062.302-.125.395-.187v1.498h0a1.15 1.15 0 0 0 .021.198c-.166.354-.395.666-.749.832-.634.322-.905-.166-.832-1.113zm5.578-4.732c.458 0 .822-.385.822-.853 0-.478-.364-.853-.822-.853-.447 0-.811.374-.811.853 0 .468.364.853.811.853zM72.39 70v-.052c-.562 0-.655-.291-.655-1.134v-2.34c0-1.05.073-1.508.166-1.56v-.052H69.51v.052c.562 0 .655.291.655 1.134v2.756c0 .842-.094 1.144-.655 1.144V70h2.881zm3.186 0v-.052c-.551 0-.645-.302-.655-1.144v-2.402h0c.166-.562.572-1.134.926-1.238.374-.114.166.395.562.655.239.146.738.094.832-.302.125-.468-.218-.811-.832-.759-.426.042-1.196.603-1.477 1.498.01-.894.073-1.29.166-1.342v-.052h-2.392v.052c.562 0 .655.281.655 1.134v2.756c0 .842-.094 1.144-.655 1.144V70h2.87zm5.37.094c.759-.042 1.342-.322 1.737-.572v-.125c-.354.333-1.134.655-1.747.655-1.175-.01-1.747-1.217-1.841-2.465-.031-.343.01-.707.052-1.05h3.796c-.156-1.227-1.113-1.83-2.527-1.768-1.435.062-2.954.978-2.87 2.839s1.914 2.569 3.401 2.486zm.53-3.588h-2.33c.125-.894.499-1.654 1.269-1.695.801-.052 1.03.811 1.061 1.695zm4.029 3.588c1.238 0 2.122-.52 2.246-1.435.281-2.111-2.933-1.914-2.933-3.068 0-.51.333-.78.863-.78.447 0 .822.146 1.009.343.25.281-.073.489-.104.79-.021.302.291.51.562.406.302-.104.354-.52.125-.863-.198-.291-.79-.728-1.799-.728-.957 0-1.789.426-1.841 1.352-.114 2.028 3.078 1.685 3.006 3.078-.031.551-.53.863-1.206.863-.562 0-1.019-.208-1.217-.437-.27-.291.104-.51.125-.811.021-.281-.229-.52-.562-.416-.27.094-.354.53-.114.874.198.291.78.832 1.841.832zm6.78-.094v-.052c-.697 0-.78-1.113-.458-1.986l.291-.738h2.007l.666 1.768c.291.759.218.957-.291.957V70h3.078v-.052c-.655 0-.936-.738-1.217-1.404l-1.116-2.808-.187-.472-1.007-2.545h-.229l-2.194 5.616c-.406 1.03-.894 1.487-1.56 1.612V70h2.215zm1.82-2.818h-1.976l.998-2.548.759 1.978.219.57h0zm5.464 2.912c1.238 0 2.122-.52 2.246-1.435.281-2.111-2.933-1.914-2.933-3.068 0-.51.333-.78.863-.78.447 0 .822.146 1.009.343.25.281-.073.489-.104.79-.021.302.291.51.562.406.302-.104.354-.52.125-.863-.198-.291-.79-.728-1.799-.728-.957 0-1.789.426-1.841 1.352-.114 2.028 3.078 1.685 3.006 3.078-.031.551-.53.863-1.206.863-.562 0-1.019-.208-1.217-.437-.27-.291.104-.51.125-.811.021-.281-.229-.52-.562-.416-.27.094-.354.53-.114.874.198.291.78.832 1.841.832zm4.882 0c1.238 0 2.122-.52 2.246-1.435.281-2.111-2.933-1.914-2.933-3.068 0-.51.333-.78.863-.78.447 0 .822.146 1.009.343.25.281-.073.489-.104.79-.021.302.291.51.562.406.302-.104.354-.52.125-.863-.198-.291-.79-.728-1.799-.728-.957 0-1.789.426-1.841 1.352-.114 2.028 3.078 1.685 3.006 3.078-.031.551-.53.863-1.206.863-.562 0-1.019-.208-1.217-.437-.27-.291.104-.51.125-.811.021-.281-.229-.52-.562-.416-.27.094-.354.53-.114.874.198.291.78.832 1.841.832zm6.192 0c1.394-.094 2.735-1.196 2.642-2.922-.094-1.747-1.83-2.558-3.307-2.402-1.466.166-2.756 1.144-2.621 2.912.146 1.841 1.893 2.517 3.286 2.413zm-1.654-2.475c-.146-1.373.135-2.725.998-2.808.863-.073 1.518.967 1.654 2.444.125 1.383-.125 2.714-.998 2.798s-1.498-.998-1.654-2.434zm8.376 2.475c.655-.042 1.186-.291 1.508-.551v-.125c-.27.312-.957.634-1.518.634-1.144-.01-1.747-1.217-1.841-2.465-.094-1.238.281-2.694 1.352-2.777.603-.042 1.196.198 1.404.499.229.333-.125.354-.239.707s.156.686.562.624.51-.572.312-.946-.988-.988-2.038-.926c-1.446.083-3.047.926-2.933 2.839.135 1.986 1.945 2.579 3.432 2.486zm3.446-6.042c.458 0 .822-.385.822-.853 0-.478-.364-.853-.822-.853-.447 0-.811.374-.811.853 0 .468.364.853.811.853zM122.257 70v-.052c-.562 0-.655-.291-.655-1.134v-2.34c0-1.05.073-1.508.166-1.56v-.052h-2.392v.052c.562 0 .655.291.655 1.134v2.756c0 .842-.094 1.144-.655 1.144V70h2.881zm3.353-5.918l1.154-1.154h-.936l-.27 1.154h.052zm.478 6.011c.759-.042 1.342-.322 1.737-.572v-.125c-.354.333-1.134.655-1.747.655-1.175-.01-1.747-1.217-1.841-2.465-.031-.343.01-.707.052-1.05h3.796c-.156-1.227-1.113-1.83-2.527-1.768-1.435.062-2.954.978-2.87 2.839s1.914 2.569 3.401 2.486zm.53-3.588h-2.33c.125-.894.499-1.654 1.269-1.695.801-.052 1.03.811 1.061 1.695zm3.925 3.588c1.238 0 2.122-.52 2.246-1.435.281-2.111-2.933-1.914-2.933-3.068 0-.51.333-.78.863-.78.447 0 .822.146 1.009.343.25.281-.073.489-.104.79-.021.302.291.51.562.406.302-.104.354-.52.125-.863-.198-.291-.79-.728-1.799-.728-.957 0-1.789.426-1.841 1.352-.114 2.028 3.078 1.685 3.006 3.078-.031.551-.53.863-1.206.863-.562 0-1.019-.208-1.217-.437-.27-.291.104-.51.125-.811.021-.281-.229-.52-.562-.416-.27.094-.354.53-.114.874.198.291.78.832 1.841.832zM23.371 55v-.115c-1.564 0-2.852-1.61-2.852-4.347v-9.522l5.013 6.365.491.626L31.513 55h.276V43.362c0-2.737 1.288-4.347 2.829-4.347V38.9h-5.796v.115c1.564 0 2.852 1.61 2.852 4.347v8.602L21.577 38.9h-3.841v.115c.897 0 1.863.874 2.668 1.863v9.66c0 2.737-1.265 4.347-2.829 4.347V55h5.796zm21.734.161c4.784-.414 8.349-3.956 7.912-8.97-.46-5.037-4.6-7.889-9.361-7.452-4.784.414-8.349 3.956-7.912 8.993.46 5.014 4.6 7.866 9.361 7.429zm-7.061-7.636c-.414-4.485 2.116-8.372 5.612-8.671 3.496-.322 6.67 3.059 7.061 7.521.414 4.485-2.116 8.349-5.612 8.671-3.496.299-6.67-3.059-7.061-7.521zM63.458 55v-.115c-1.259 0-1.436-.784-1.448-2.332l-.001-11.008c0-1.702.138-2.53 1.449-2.53h.391c2.3 0 3.335 1.84 4.002 3.335h.115l-.506-3.45H54.534l-.506 3.45h.115c.667-1.495 1.702-3.335 4.002-3.335h.391c1.311 0 1.449.828 1.449 2.53v10.81c0 1.679-.138 2.53-1.449 2.53V55h4.922zm7.152 0v-.115c-1.541 0-1.725-2.438-1.012-4.393l.736-1.886h5.52l1.587 4.163c.621 1.679.46 2.116-.644 2.116V55h5.06v-.115c-1.426 0-2.07-1.61-2.668-3.082-.621-1.472-4.968-12.903-4.968-12.903h-.207l-4.81 12.309-.043.111c-.897 2.3-1.978 3.312-3.45 3.565V55h4.899zm5.198-6.509H70.38l2.737-7.015 1.908 4.967.196.512.587 1.536zm15.616 6.67c2.553-.161 3.979-.989 5.221-1.978v-.345c-1.288 1.173-3.059 2.162-5.244 2.208-3.611.092-6.67-3.059-7.061-7.521-.391-4.485 2.116-8.349 5.612-8.671 1.15-.092 2.392.184 3.519.782 1.38.805 2.783 2.737 2.783 4.232h.115v-5.796h-.115c0 1.564-.506 1.495-1.679 1.219-1.334-.322-3.174-.667-4.623-.552-4.761.437-8.349 3.956-7.889 8.993.437 5.014 4.577 7.728 9.361 7.429zm16.513 0c4.784-.414 8.349-3.956 7.912-8.97-.46-5.037-4.6-7.889-9.361-7.452-4.784.414-8.349 3.956-7.912 8.993.46 5.014 4.6 7.866 9.361 7.429zm-7.061-7.636c-.414-4.485 2.116-8.372 5.612-8.671 3.496-.322 6.67 3.059 7.061 7.521.414 4.485-2.116 8.349-5.612 8.671-3.496.299-6.67-3.059-7.061-7.521zM128.935 55l.943-3.887h-.115c-.667 1.495-2.139 3.772-4.462 3.772h-2.622c-1.311 0-1.426-.851-1.449-2.53v-5.313h1.679c1.794 0 3.22 1.288 3.22 2.829h.115v-5.773h-.115c0 1.541-1.426 2.829-3.22 2.829h-1.679v-5.382c.023-1.679.138-2.53 1.449-2.53h1.909c2.3 0 3.611 1.564 4.278 3.059h.115l-.782-3.174H117.78v.115c1.311 0 1.449.851 1.449 2.53v10.81c0 1.679-.138 2.53-1.449 2.53V55h11.155zm9.613.23c2.622 0 5.244-1.219 5.244-5.244v-8.441c0-1.702.138-2.53 1.449-2.53V38.9h-3.013v.115c1.259 0 1.436.763 1.448 2.33l.001 8.641c0 3.059-1.564 5.083-5.129 5.083-2.162 0-3.795-1.84-3.795-4.807v-8.717c.023-1.702.138-2.53 1.449-2.53V38.9h-4.899v.115c1.311 0 1.449.828 1.449 2.53v8.441c0 4.025 3.289 5.244 5.796 5.244zM152.14 55v-.115c-1.311 0-1.426-.828-1.449-2.507v-5.336h2.001c2.369.138 2.645 4.669 4.646 6.946.621.736 1.61 1.012 2.599 1.012h2.461v-.115c-1.403 0-2.622-1.058-3.519-2.392-1.449-2.162-2.001-4.876-4.255-5.566 2.047-.322 3.818-1.541 3.818-3.956 0-2.898-2.622-4.071-4.853-4.071h-6.348v.115c1.311 0 1.426.828 1.449 2.53v10.833c-.023 1.679-.138 2.507-1.449 2.507V55h4.899zm.736-8.073h-2.185v-5.382c.023-1.702.138-2.53 1.449-2.53h.736c1.334 0 3.335 1.058 3.335 3.956s-1.886 3.956-3.335 3.956z" fill="#e8cfa4" fill-rule="nonzero"/></svg>