<?xml version="1.0" standalone="no"?>
<!DOCTYPE svg PUBLIC "-//W3C//DTD SVG 1.1//EN" "http://www.w3.org/Graphics/SVG/1.1/DTD/svg11.dtd" >
<svg xmlns="http://www.w3.org/2000/svg" xmlns:xlink="http://www.w3.org/1999/xlink" version="1.1">
<metadata>
Created by FontForge 20170731 at Thu Jan  7 17:25:57 2021
 By Aleksey,,,
Copyright \(c\) 2018 by MadeType. All rights reserved.
</metadata>
<defs>
<font id="MADECanvas-Black" horiz-adv-x="698" >
  <font-face 
    font-family="MADE Canvas"
    font-weight="900"
    font-stretch="normal"
    units-per-em="2048"
    panose-1="2 0 10 3 0 0 0 0 0 0"
    ascent="1638"
    descent="-410"
    x-height="1012"
    cap-height="1434"
    bbox="0 -774 2181 1825"
    underline-thickness="102"
    underline-position="-307"
    unicode-range="U+0020-2265"
  />
<missing-glyph horiz-adv-x="430" 
 />
    <glyph glyph-name=".notdef" horiz-adv-x="430" 
 />
    <glyph glyph-name=".null" horiz-adv-x="0" 
 />
    <glyph glyph-name="nonmarkingreturn" horiz-adv-x="682" 
 />
    <glyph glyph-name="space" unicode=" " horiz-adv-x="430" 
 />
    <glyph glyph-name="exclam" unicode="!" horiz-adv-x="356" 
d="M178 213q49 0 83 -34.5t34 -82.5q0 -49 -33.5 -82.5t-83.5 -33.5q-48 0 -82.5 33.5t-34.5 82.5q0 47 35 82t82 35zM154 743q-11 107 -48 296t-43 255q-3 60 25 100t90 40q63 0 91.5 -40.5t23.5 -99.5q-5 -68 -42.5 -257.5t-47.5 -293.5q-8 -90 -12.5 -185.5t-5.5 -145.5
l-1 -50h-6h-4q0 178 -20 381z" />
    <glyph glyph-name="quotedbl" unicode="&#x22;" horiz-adv-x="385" 
d="M121 1434q69 0 55 -101q-4 -31 -26 -90t-25 -102h-4h-6q-2 44 -23.5 103.5t-25.5 88.5q-14 101 55 101zM264 1434q69 0 55 -101q-4 -29 -25.5 -88.5t-23.5 -103.5h-6h-4q-3 43 -25 102t-26 90q-14 101 55 101z" />
    <glyph glyph-name="numbersign" unicode="#" horiz-adv-x="1075" 
d="M1014 748h-291v-347h291v-10h-291v-317h-8v317h-353v-317h-10v317h-291v10h291v347h-291v10h291v317h10v-317h353v317h8v-317h291v-10zM715 401v347h-353v-347h353z" />
    <glyph glyph-name="dollar" unicode="$" horiz-adv-x="1103" 
d="M1042 416q0 -182 -128 -302t-357 -132v-199h-10v199h-35q-124 0 -268 38q-28 7 -45 10.5t-44.5 3.5t-43.5 -9.5t-28.5 -34t-12.5 -64.5h-9v527h9q0 -32 10.5 -75.5t31 -96.5t56.5 -103.5t82 -92.5t113.5 -67.5t144.5 -25.5q27 0 39 2v510q-35 23 -103 64t-110.5 67.5
t-98 72.5t-87.5 90t-55 108t-23 138q0 182 133.5 296t343.5 114v199h10v-199q49 -1 90.5 -9.5t96 -26t75.5 -23.5q59 -16 87 8t28 106h10v-526h-10q0 125 -43.5 227.5t-130.5 167t-203 66.5v-488q30 -20 78.5 -49.5t83.5 -51t80 -52.5t77 -58.5t65.5 -65t54 -75.5
t33.5 -86.5t13 -101.5zM352 1231q0 -81 50 -142.5t145 -125.5v481q-91 -3 -143 -66.5t-52 -146.5zM557 -6q96 14 142 75.5t46 135.5q0 92 -49 161t-139 132v-504z" />
    <glyph glyph-name="percent" unicode="%" horiz-adv-x="1155" 
d="M821 1454h10l-516 -1454h-10zM311 1454q112 0 182 -73t70 -216q0 -141 -70 -213.5t-182 -72.5q-111 0 -180.5 72.5t-69.5 213.5q0 142 69.5 214.5t180.5 74.5zM311 885q109 0 109 280q0 281 -109 281q-106 0 -106 -281q0 -280 106 -280zM844 555q111 0 180.5 -73
t69.5 -216q0 -141 -69.5 -213.5t-180.5 -72.5q-112 0 -182 72.5t-70 213.5q0 143 70 216t182 73zM844 -14q106 0 106 280q0 281 -106 281q-109 0 -109 -281q0 -280 109 -280z" />
    <glyph glyph-name="ampersand" unicode="&#x26;" horiz-adv-x="1193" 
d="M883 723q115 -22 182.5 -113.5t64.5 -218.5q-2 -79 -33 -150.5t-88.5 -129.5t-150 -93.5t-209.5 -37.5l10 -224h-30l10 224h-4q-113 0 -214.5 26t-181 75t-127.5 125t-49 169q-3 179 121 280t326 107q-157 35 -256.5 134t-99.5 234q1 71 28 128t70 92.5t100.5 59
t113.5 33t114 9.5h24l-10 219h31l-11 -219q81 -5 145 -34t101 -72.5t58.5 -96t20 -107t-16 -104t-48.5 -89t-79 -58.5v31q51 30 81.5 81t37 107.5t-10.5 115.5t-53 106.5t-97.5 78.5t-138.5 33h-10q-93 -1 -144.5 -92.5t-51.5 -231.5q0 -144 60.5 -251t166.5 -107h70v-14
h-121q-110 0 -173.5 -99t-54.5 -278q5 -96 33.5 -171.5t71.5 -120.5t93.5 -68t104.5 -23q104 0 190.5 32.5t142.5 87.5t87 125t31 146q0 129 -68.5 216.5t-158.5 98.5v29z" />
    <glyph glyph-name="quotesingle" unicode="'" horiz-adv-x="239" 
d="M119 1434q69 0 55 -101q-4 -29 -25.5 -88.5t-23.5 -103.5h-6h-4q-2 44 -23.5 103.5t-25.5 88.5q-14 101 53 101z" />
    <glyph glyph-name="parenleft" unicode="(" horiz-adv-x="708" 
d="M647 1493q-75 0 -137.5 -50t-105.5 -135t-73 -198.5t-43.5 -238.5t-13.5 -257q0 -167 22.5 -320t66.5 -280t117.5 -202.5t166.5 -75.5v-10q-117 0 -215.5 54t-165.5 143t-114.5 205.5t-69 239.5t-21.5 246t21.5 246.5t69 239.5t114.5 205.5t165.5 143.5t215.5 54v-10z
" />
    <glyph glyph-name="parenright" unicode=")" horiz-adv-x="708" 
d="M61 1503q116 0 214.5 -54t165.5 -143.5t114.5 -205.5t69.5 -239.5t22 -246.5t-22 -246.5t-69.5 -239.5t-114.5 -205t-165.5 -143t-214.5 -54v10q93 0 166.5 75.5t117.5 202.5t66.5 280t22.5 320q0 132 -13.5 257t-43.5 238.5t-73 198.5t-105.5 135t-137.5 50v10z" />
    <glyph glyph-name="asterisk" unicode="*" horiz-adv-x="659" 
d="M594 1495q8 -24 -7 -43t-55 -25q-24 -4 -93 -8t-103 -12q25 -25 80.5 -65.5t72.5 -55.5q30 -28 33 -53t-16 -37q-46 -37 -86 33q-12 19 -41 81.5t-49 90.5q-19 -27 -47 -89.5t-41 -82.5q-22 -36 -46 -43t-40 10q-19 12 -17.5 37.5t31.5 52.5q16 15 73 55.5t81 65.5
q-33 8 -103 12t-94 8q-40 6 -54 25t-7 43q8 24 29.5 30t60.5 -12q19 -9 79 -47t93 -51q-2 35 -21 104.5t-22 90.5q-6 40 8 60t39 20q24 0 37.5 -20t7.5 -60q-3 -21 -21 -90.5t-20 -104.5q32 14 90.5 51t77.5 47q40 18 61.5 12t28.5 -30z" />
    <glyph glyph-name="plus" unicode="+" 
d="M637 580v-11h-283v-282h-10v282h-283v11h283v282h10v-282h283z" />
    <glyph glyph-name="comma" unicode="," horiz-adv-x="358" 
d="M295 96q1 -38 -2.5 -73t-15.5 -71.5t-31.5 -63t-53 -42.5t-77.5 -14v8q47 -4 82 17.5t52 57t24.5 67.5t7.5 59q-14 -28 -41.5 -44.5t-61.5 -16.5q-50 0 -83.5 33.5t-33.5 82.5q0 48 34 82.5t83 34.5q47 0 80.5 -33t36.5 -84z" />
    <glyph glyph-name="hyphen" unicode="-" horiz-adv-x="579" 
d="M61 580h457v-11h-457v11z" />
    <glyph glyph-name="period" unicode="." horiz-adv-x="356" 
d="M178 213q49 0 83 -34.5t34 -82.5q0 -49 -33.5 -82.5t-83.5 -33.5q-48 0 -82.5 33.5t-34.5 82.5q0 47 35 82t82 35z" />
    <glyph glyph-name="slash" unicode="/" horiz-adv-x="430" 
d="M358 1454h11l-297 -1454h-11z" />
    <glyph glyph-name="zero" unicode="0" horiz-adv-x="1193" 
d="M598 1454q235 0 385 -200t150 -535q0 -224 -70 -392.5t-190.5 -256.5t-274.5 -88t-275 88t-191.5 256.5t-70.5 392.5q0 335 151 535t386 200zM598 -8q60 0 106 62.5t72 168.5t38.5 231t12.5 265q0 139 -12.5 263.5t-38.5 230.5t-72 168.5t-106 62.5t-106 -62.5
t-72 -168.5t-38.5 -230.5t-12.5 -263.5q0 -140 12.5 -265t38.5 -231t72 -168.5t106 -62.5z" />
    <glyph glyph-name="one" unicode="1" horiz-adv-x="677" 
d="M508 236q1 -52 3 -82.5t9.5 -61.5t21 -47t37 -25.5t58.5 -9.5v-10h-561v10q82 0 105.5 50t23.5 176v983q0 62 -30 73.5t-134 -16.5v10l455 148h12v-1198z" />
    <glyph glyph-name="two" unicode="2" horiz-adv-x="1040" 
d="M684 244q64 0 104.5 4t79 17t63 39.5t38.5 68.5h10l-41 -373h-877v10q28 33 86 99.5t86.5 99.5t79 94.5t76.5 98.5t66.5 96.5t62 103.5t48.5 104.5t41.5 114.5t25.5 119t14 131q2 60 -0.5 108.5t-13.5 100t-31 86t-55 56.5t-84 22q-79 0 -142.5 -29.5t-100.5 -76.5
t-54.5 -106t-12 -116t35 -109t79.5 -83v-35q-53 24 -88 76t-47 114t4 129t55.5 121.5t116 89.5t178.5 35q66 0 127.5 -8t129 -32.5t116.5 -63t81 -105t32 -153.5q0 -55 -17 -111.5t-44 -106t-72 -105.5t-89 -101.5t-107.5 -103.5t-115.5 -102.5t-125 -107.5t-124 -110h405z
" />
    <glyph glyph-name="three" unicode="3" horiz-adv-x="1073" 
d="M535 764q138 3 247 -39.5t172 -133t56 -214.5q-7 -130 -83 -220t-201 -132.5t-292 -42.5q-185 0 -373 98v31q61 -50 161 -84.5t188 -34.5q118 0 194.5 96t83.5 285q12 377 -227 377h-121v14h78q205 0 205 358q0 72 -8 126.5t-28 100.5t-58.5 70.5t-94.5 24.5
q-79 0 -142.5 -30t-101 -77.5t-55 -106.5t-11.5 -116.5t36 -108.5t82 -81v-35q-41 17 -72 51t-48.5 77t-21 92t6.5 97.5t37.5 93.5t69 79t105 54.5t140.5 20.5q84 0 159 -15.5t144.5 -50.5t111 -101t41.5 -157q0 -138 -108 -240.5t-272 -125.5z" />
    <glyph glyph-name="four" unicode="4" horiz-adv-x="1075" 
d="M858 338v-102q0 -126 23.5 -176t105.5 -50v-10h-561v10q82 0 105.5 50t23.5 176v102h-555v10l844 1086h14v-1086h217v-10h-217zM10 348h545v703z" />
    <glyph glyph-name="five" unicode="5" horiz-adv-x="972" 
d="M141 776q241 99 415 71.5t268.5 -148t84.5 -291.5q-6 -97 -42 -173t-89 -122.5t-125.5 -77t-145 -42t-153.5 -11.5q-90 0 -156.5 15t-136.5 52v31q110 -88 269 -88q125 0 193 106t73 305q2 73 -7.5 138.5t-40.5 129t-80.5 99t-136.5 36.5t-200 -46l39 674h375
q52 1 80.5 3t57.5 8.5t45 20.5t30 36t26 57h11l-19 -367h-610q-4 -63 -10 -165t-10 -165.5t-5 -85.5z" />
    <glyph glyph-name="six" unicode="6" horiz-adv-x="1083" 
d="M612 -14q-76 -9 -150 2.5t-143.5 47t-123 92.5t-89.5 147t-43 202q-10 149 30 284t113 237t176.5 189t214.5 146t234 101v-11q-83 -59 -152 -128.5t-115 -133.5t-84.5 -138.5t-61 -132.5t-43.5 -126q68 68 145 80q138 20 248 -17.5t177.5 -131.5t74.5 -232
q6 -107 -23 -194t-85.5 -145.5t-132.5 -93t-167 -44.5zM514 834q-66 -10 -102.5 -67t-46 -148t-0.5 -226q16 -201 70.5 -304t156.5 -97q51 4 82.5 41t43 96.5t15 136.5t-3.5 160q-4 88 -17 160.5t-37 133.5t-65 91.5t-96 22.5z" />
    <glyph glyph-name="seven" unicode="7" horiz-adv-x="960" 
d="M80 1434h840v-11q-96 -112 -160.5 -205.5t-124.5 -217.5t-94 -261.5t-54 -322.5t-20 -416h-293q0 314 146.5 623.5t400.5 568.5h-385q-64 -1 -104.5 -5.5t-79.5 -17.5t-63 -39t-38 -67h-10z" />
    <glyph glyph-name="eight" unicode="8" horiz-adv-x="1136" 
d="M1071 324q-18 -163 -152 -252.5t-339 -89.5q-134 0 -244.5 32.5t-186.5 106t-86 178.5q-6 66 10.5 121.5t46 94.5t80 74.5t99 59.5t117.5 51q-67 44 -115 85t-92 95.5t-63.5 120.5t-12.5 140q9 88 52 152.5t106.5 97.5t128 48t133.5 15q45 0 90.5 -6t96.5 -18.5t94.5 -36
t79 -56t55 -81.5t18.5 -109q-2 -57 -23 -104.5t-52 -79t-74 -56t-82 -37.5t-82 -22q21 -15 76.5 -52t94 -63.5t89 -73.5t80 -92t47.5 -109t10 -134zM391 1141q27 -85 90 -145.5t189 -141.5q40 67 56.5 129t16.5 154q0 138 -49.5 222.5t-140.5 84.5q-106 0 -154 -89.5
t-8 -213.5zM580 -8q55 0 102 17t84.5 54.5t48 96.5t-7.5 143q-7 30 -22.5 59.5t-33.5 54.5t-46 53.5t-51 49t-58.5 48t-58 44t-60 43t-55.5 39.5q-57 -68 -83 -153t-17 -207q10 -153 81.5 -247.5t176.5 -94.5z" />
    <glyph glyph-name="nine" unicode="9" horiz-adv-x="1083" 
d="M489 1454q79 4 151 -9t140 -48.5t118.5 -92t83.5 -145.5t38 -201q7 -151 -33.5 -286.5t-113 -237.5t-175.5 -188t-213 -144t-233 -100v10q102 72 182.5 158t133 176t84.5 165t57 161q-65 -65 -136 -76q-211 -30 -353 70t-157 307q-7 103 24.5 192t91 150t140 97.5
t170.5 41.5zM569 602q98 10 131 122t19 318q-16 203 -70.5 307.5t-156.5 94.5q-51 -4 -83 -41.5t-43.5 -97t-15 -137t3.5 -160.5q6 -116 29 -206.5t71 -149t115 -50.5z" />
    <glyph glyph-name="colon" unicode=":" horiz-adv-x="358" 
d="M178 213q49 0 83 -34.5t34 -82.5q0 -49 -33.5 -82.5t-83.5 -33.5q-48 0 -82.5 33.5t-34.5 82.5q0 47 35 82t82 35zM180 625q-48 0 -82.5 33.5t-34.5 82.5q0 47 35 82t82 35q49 0 83 -34.5t34 -82.5q0 -49 -33.5 -82.5t-83.5 -33.5z" />
    <glyph glyph-name="semicolon" unicode=";" horiz-adv-x="358" 
d="M178 858q49 0 83 -34.5t34 -82.5q0 -49 -33.5 -82.5t-83.5 -33.5q-48 0 -82.5 33.5t-34.5 82.5q0 47 35 82t82 35zM295 96q2 -48 -5 -92t-25.5 -85.5t-57 -65t-92.5 -21.5v8q47 -4 82 17.5t52 57t24.5 67.5t7.5 59q-14 -28 -41.5 -44.5t-61.5 -16.5q-48 0 -82.5 33.5
t-34.5 82.5q0 47 35 82t82 35t80.5 -33t36.5 -84z" />
    <glyph glyph-name="less" unicode="&#x3c;" horiz-adv-x="548" 
d="M487 1057v-10l-419 -342l419 -343v-10l-426 346v11z" />
    <glyph glyph-name="equal" unicode="=" 
d="M61 698h576v-10h-576v10zM61 451v10h576v-10h-576z" />
    <glyph glyph-name="greater" unicode="&#x3e;" horiz-adv-x="550" 
d="M61 1057l428 -348v-11l-428 -346v10l422 343l-422 342v10z" />
    <glyph glyph-name="question" unicode="?" horiz-adv-x="841" 
d="M367 1454q60 0 117.5 -9t118 -34t102 -64t62 -104.5t5.5 -150.5q-10 -58 -39.5 -112.5t-69 -98t-85 -88t-89 -91.5t-79 -98t-57 -118.5t-21.5 -143.5h-10q-7 109 15 214.5t53.5 177.5t67 167.5t48.5 173.5q12 77 12.5 136.5t-13 115.5t-55 86.5t-108.5 30.5
q-65 0 -117 -24t-81.5 -64.5t-46 -90t-12.5 -103.5t20.5 -103t51.5 -89.5t81 -62.5v-30q-49 18 -87.5 59t-58.5 93t-27 111t10 114.5t50.5 100t96 72t145.5 27.5zM336 213q49 0 83 -34.5t34 -82.5q0 -49 -33.5 -82.5t-83.5 -33.5q-48 0 -82.5 33.5t-34.5 82.5q0 47 35 82
t82 35z" />
    <glyph glyph-name="at" unicode="@" horiz-adv-x="1443" 
d="M1208 1012q84 -89 129 -211.5t45 -261.5q0 -52 -4 -101t-12.5 -105t-26 -101.5t-42 -84t-63 -60t-85.5 -21.5q-273 0 -305 159q-56 -114 -154 -145q-40 -12 -85.5 -15.5t-92.5 4.5t-84 27t-60 57t-22 91q1 71 36 111.5t99 64.5q-31 49 -48 125t-5 166q6 40 25.5 79.5
t52.5 74t85.5 56t115.5 21.5q82 0 149 -16t122.5 -50.5t86.5 -95.5t31 -145v-375q0 -41 1 -64t5.5 -49t13.5 -39t24.5 -21.5t39.5 -8.5q31 0 63 23t63 72.5t50.5 144.5t19.5 221q0 297 -181.5 480t-475.5 183q-315 0 -482 -182t-167 -522q0 -317 156 -490.5t440 -173.5
q94 0 181.5 18t146 44t103.5 52t66 44l21 18l6 -4q-7 -7 -23 -20t-65 -43.5t-106 -54.5t-146 -43t-184 -19q-272 0 -430 158q-175 178 -175 514q0 349 177 532q169 178 481 178q308 0 489 -196zM487 422q43 15 139 33t140 32q47 18 74 39v158q0 50 -2 82t-9.5 67.5
t-21.5 55.5t-39 33.5t-61 13.5q-60 0 -116.5 -22.5t-103 -78.5t-55.5 -137q-8 -57 3.5 -134.5t51.5 -141.5zM719 98q78 41 123 140q-2 10 -2 30v248q-27 -17 -66 -33q-8 -3 -35.5 -12.5t-38 -14t-33 -16t-32.5 -23.5t-23.5 -31t-20.5 -45t-9 -58q-8 -120 26.5 -171
t110.5 -14z" />
    <glyph glyph-name="A" unicode="A" horiz-adv-x="1478" 
d="M1239 287q56 -134 88 -181q64 -96 152 -96v-10h-607v10q76 0 88 38t-30 151q-9 25 -28 76t-50 132.5t-53 139.5h-396q-13 -33 -26.5 -67.5t-21 -53.5t-9.5 -25q-32 -88 -36 -177t28.5 -151.5t97.5 -62.5v-10h-436v10q100 19 174 94t133 224l432 1106h45
q402 -1016 455 -1147zM406 555h389l-82.5 214.5t-76 198t-34.5 89.5q-33 -84 -101 -259t-95 -243z" />
    <glyph glyph-name="B" unicode="B" horiz-adv-x="1284" 
d="M782 729q66 -1 128.5 -13.5t122 -41t103.5 -69.5t70.5 -104t26.5 -139q0 -78 -28.5 -140.5t-75 -103t-109.5 -68t-128.5 -39t-135.5 -11.5h-695v10q82 0 105.5 50t23.5 176v962q0 125 -23.5 175t-105.5 50v11h615q80 0 156 -19t146 -58.5t112.5 -111.5t42.5 -168
q0 -79 -28.5 -141.5t-79 -103.5t-110.5 -66t-133 -37zM797 1077q0 63 -10 123t-29.5 110.5t-52.5 81.5t-74 31q-34 0 -57 -10.5t-35.5 -25.5t-19.5 -47.5t-8.5 -61t-2.5 -80.5v-469h121q44 0 76 21.5t49 53t27.5 81t13 92.5t2.5 100zM664 10q112 0 171.5 94.5t59.5 257.5
q0 162 -61 259.5t-170 97.5h-156v-483q1 -52 3 -82.5t9.5 -61.5t21 -47t37 -25.5t58.5 -9.5h27z" />
    <glyph glyph-name="C" unicode="C" horiz-adv-x="1456" 
d="M948 -4q244 5 447 199v-33q-98 -79 -196.5 -122.5t-250.5 -53.5q-129 -8 -251 11t-233 70t-195.5 129t-138.5 194.5t-64 258.5q-13 178 42.5 325t161.5 245t245.5 156.5t301.5 72.5q153 15 375 -43q33 -9 54 -12.5t45 -1.5t37.5 14t22.5 38t9 66h10v-516h-10
q0 41 -21 98.5t-66 122t-106.5 118t-153 85t-194.5 23.5q-112 -10 -196.5 -85.5t-129.5 -189.5t-63 -242t-8 -255q8 -101 33.5 -197t70.5 -183.5t104.5 -153t141.5 -103t176 -35.5z" />
    <glyph glyph-name="D" unicode="D" horiz-adv-x="1533" 
d="M766 1434q163 0 296.5 -53.5t223 -149t138.5 -227t49 -287.5q0 -207 -83.5 -369t-245.5 -255t-378 -93h-705v10q82 0 105.5 50t23.5 176v962q0 125 -23.5 175t-105.5 50v11h705zM676 10q102 0 179 38t133.5 120.5t86 220t29.5 328.5t-29.5 328.5t-86 219.5t-133.5 120
t-179 38h-39q-82 0 -105.5 -50t-23.5 -175v-962q0 -126 23.5 -176t105.5 -50h39z" />
    <glyph glyph-name="E" unicode="E" horiz-adv-x="1200" 
d="M1149 362h10l-84 -362h-1014v10q82 0 105.5 50t23.5 176v962q0 125 -23.5 175t-105.5 50v11h949l69 -297h-10q-24 55 -56.5 101.5t-78.5 90.5t-109.5 69t-136.5 25h-51q-35 0 -58.5 -10t-37 -25.5t-21 -46.5t-9.5 -61.5t-3 -81.5v-479h31q117 0 201.5 79.5t84.5 184.5h11
v-537h-11q0 106 -84.5 185.5t-201.5 79.5h-31v-475q1 -52 3 -82.5t9.5 -61.5t21 -47t37 -25.5t58.5 -9.5h115q73 0 139.5 35t116 93t82.5 111.5t59 112.5z" />
    <glyph glyph-name="F" unicode="F" horiz-adv-x="1099" 
d="M1010 1434l69 -297h-10q-24 55 -56.5 101.5t-78.5 90.5t-110 69t-138 25h-49q-35 0 -58.5 -10t-37 -25.5t-21 -46.5t-9.5 -61.5t-3 -81.5v-479h31q117 0 201.5 79.5t84.5 184.5h11v-537h-11q0 106 -84.5 185.5t-201.5 79.5h-31v-475q1 -52 3 -82.5t9.5 -61.5t21 -47
t37 -25.5t58.5 -9.5v-10h-576v10q82 0 105.5 50t23.5 176v962q0 125 -23.5 175t-105.5 50v11h949z" />
    <glyph glyph-name="G" unicode="G" horiz-adv-x="1564" 
d="M948 649h576v-10q-35 0 -58.5 -9.5t-37 -25t-21 -46t-9.5 -61t-3 -81.5v-436h-9q0 35 -18 53t-51.5 19.5t-64.5 -3.5t-72 -16q-93 -38 -232 -47q-129 -8 -251 11t-232.5 70t-195 129t-139 194.5t-64.5 258.5q-10 143 24 267t103 215.5t167 159.5t214 107t245 50
q155 15 373 -43q33 -9 54 -12.5t45 -1.5t37.5 14t22.5 38t9 66h10v-516h-10q0 41 -21 98.5t-66 122t-106.5 118t-153 85t-194.5 23.5q-111 -10 -195.5 -85.5t-129.5 -189t-63 -242t-7 -255.5q8 -101 33 -197t69.5 -183.5t104 -153t141.5 -103t176 -35.5q67 0 129 16v404
q0 124 -23.5 173.5t-105.5 49.5v10z" />
    <glyph glyph-name="H" unicode="H" horiz-adv-x="1574" 
d="M1384 1198v2v-964q1 -51 3 -81.5t9.5 -62t21 -47t37 -25.5t58.5 -10v-10h-575v10q82 0 105.5 50.5t23.5 175.5v475h-559v-475q0 -50 2 -81.5t9.5 -62t21 -46.5t37 -26t57.5 -10v-10h-574v10q35 0 58.5 10t37 25.5t21 47t9.5 62t3 81.5v962q-1 51 -3 81.5t-9.5 61.5
t-21 46.5t-37 25.5t-58.5 10v11h574v-11q-34 0 -57.5 -9.5t-37 -25.5t-21 -46.5t-9.5 -62t-2 -81.5v-477h559v477q0 125 -23.5 175t-105.5 50v11h575v-11q-35 0 -58.5 -10t-37 -25.5t-21 -46.5t-9.5 -61.5t-3 -81.5z" />
    <glyph glyph-name="I" unicode="I" 
d="M508 1198v-962q0 -126 23.5 -176t105.5 -50v-10h-576v10q35 0 58.5 9.5t37 25.5t21 47t9.5 61.5t3 82.5v962q-1 51 -3 81.5t-9.5 61.5t-21 46.5t-37 25.5t-58.5 10v11h576v-11q-82 0 -105.5 -50t-23.5 -175z" />
    <glyph glyph-name="J" unicode="J" horiz-adv-x="772" 
d="M115 1434h575v-11q-35 0 -58.5 -10t-37 -25.5t-21 -46.5t-9.5 -61.5t-3 -81.5v-1114q0 -101 -31.5 -183t-81.5 -134.5t-118 -89.5t-133.5 -54.5t-135.5 -23.5v12q98 36 140.5 127t42.5 272v1188q0 125 -23.5 175t-105.5 50v11z" />
    <glyph glyph-name="K" unicode="K" horiz-adv-x="1505" 
d="M1235 276q72 -110 149.5 -188t120.5 -78v-10h-471l-461 737q-49 -43 -65 -57v-444q1 -52 3 -82.5t9.5 -61.5t21 -47t37 -25.5t58.5 -9.5v-10h-576v10q82 0 105.5 50t23.5 176v962q0 125 -23.5 175t-105.5 50v11h576v-11q-35 0 -58.5 -10t-37 -25.5t-21 -46.5t-9.5 -61.5
t-3 -81.5v-508q299 268 453 422q72 73 101 146t6 119t-93 46v11h436v-11q-36 0 -86.5 -25.5t-93.5 -56t-102.5 -83.5t-88 -81t-75.5 -75l-15 -15q-65 -65 -151 -145q56 -81 436 -666z" />
    <glyph glyph-name="L" unicode="L" horiz-adv-x="1179" 
d="M1149 362h10l-86 -362h-1012v10q82 0 105.5 50t23.5 176v962q0 125 -23.5 175t-105.5 50v11h576v-11q-35 0 -58.5 -10t-37 -25.5t-21 -46.5t-9.5 -61.5t-3 -81.5v-962q1 -52 3 -82.5t9.5 -61.5t21 -47t37 -25.5t58.5 -9.5h115q73 0 139.5 35t116 93t82.5 111.5t59 112.5z
" />
    <glyph glyph-name="M" unicode="M" horiz-adv-x="1869" 
d="M1679 1198v-962q0 -126 23.5 -176t105.5 -50v-10h-575v10q35 0 58.5 9.5t37 25.5t21 47t9.5 61.5t3 82.5v1175l-463 -1122h-53q-504 934 -541 987v-879q0 -178 72 -282.5t180 -104.5v-10h-516v10q108 0 181 105t73 282v891q-98 135 -199 135v11h477l441 -846l348 846h446
v-11q-82 0 -105.5 -50t-23.5 -175z" />
    <glyph glyph-name="N" unicode="N" horiz-adv-x="1605" 
d="M1049 1434h516v-11q-108 0 -180 -104.5t-72 -282.5v-1036h-60q-34 40 -479.5 612t-468.5 605v-820q0 -178 72 -282.5t180 -104.5v-10h-516v10q108 0 181 105t73 282v834q-63 88 -121.5 140t-118.5 52v11h477l771 -1004v606q0 177 -73 282t-181 105v11z" />
    <glyph glyph-name="O" unicode="O" horiz-adv-x="1714" 
d="M1651 801q13 -171 -34.5 -318.5t-142 -252t-231 -169.5t-299.5 -79q-164 -13 -317 28.5t-272.5 127t-197 220t-91.5 297.5q-14 165 34 308t143.5 245.5t232.5 166t300 77.5q131 10 256 -13t232 -78t190.5 -135t135 -189.5t61.5 -235.5zM944 -8q117 13 200.5 117.5
t120.5 273.5t23 373q-11 149 -58.5 281.5t-117.5 223t-159 139.5t-179 42q-117 -12 -203.5 -118.5t-123.5 -276t-17 -363.5q20 -196 95.5 -358t187 -252.5t231.5 -81.5z" />
    <glyph glyph-name="P" unicode="P" horiz-adv-x="1230" 
d="M713 1434q62 0 124 -14t122.5 -45.5t106.5 -77.5t74.5 -116t28.5 -155t-28.5 -154.5t-75 -115t-109.5 -77t-129 -45t-135 -13.5h-184v-385q1 -51 3 -81.5t9.5 -62t21 -47t37 -25.5t58.5 -10v-10h-576v10q82 0 105.5 50.5t23.5 175.5v962q0 126 -23.5 175.5t-105.5 49.5
v11h652zM664 631q37 0 65.5 15.5t46.5 46t29.5 65t16.5 83.5t7 89.5t2 95.5q0 101 -16 188t-55.5 148t-95.5 61h-27q-35 0 -58.5 -9.5t-37 -25t-21 -46.5t-9.5 -61.5t-3 -82.5v-567h156z" />
    <glyph glyph-name="Q" unicode="Q" horiz-adv-x="1714" 
d="M1274 -109q11 -4 44 -14t46.5 -14.5t42.5 -12t44.5 -9t39.5 -3.5t40 2t34.5 11.5t33.5 19.5l7 -8q-76 -62 -146 -119q-3 -3 -26 -21.5t-30.5 -24t-29 -21t-34.5 -21.5t-33 -14.5t-39 -11.5t-39 -3q-52 1 -108 23.5t-100.5 52.5t-94.5 63t-88 56t-82.5 30t-77.5 -14
q-16 -13 -41 -24q-37 -16 -53 6q-14 21 7 42q23 23 75 23q30 0 47 1t47 9t59 23q14 6 53 28t62 34q-130 -9 -253.5 15.5t-229.5 81.5t-188.5 139.5t-134 195.5t-62.5 243q-14 167 34 310.5t143.5 245t232.5 164.5t300 77q163 13 316 -27t272 -123.5t196 -213.5t91 -287
q19 -221 -64 -399.5t-242.5 -285.5t-369.5 -132q-24 -10 -69 -33.5t-78 -41.5l-33 -18q72 28 135 39.5t123.5 6.5t106.5 -15t114 -31zM430 684q20 -196 95.5 -358t187 -252.5t231.5 -81.5q116 13 201.5 121t122.5 278t20 365q-14 149 -62 280.5t-117 222.5t-157 140.5
t-178 42.5q-117 -12 -203.5 -118.5t-123.5 -276t-17 -363.5z" />
    <glyph glyph-name="R" unicode="R" horiz-adv-x="1480" 
d="M1163 317q25 -56 53.5 -104.5t67.5 -97t87 -77t99 -28.5v-10h-217q-39 0 -62.5 0.5t-68 5.5t-75 13.5t-65 26.5t-56.5 44q-48 54 -83.5 140.5t-56 165.5t-45 153t-64.5 120.5t-99 49.5h-70v-483q1 -51 3 -81.5t9.5 -62t21 -47t37 -25.5t58.5 -10v-10h-576v10
q82 0 105.5 50.5t23.5 175.5v962q0 126 -23.5 175.5t-105.5 49.5v11h650q80 0 156 -19t145.5 -58.5t112 -111.5t42.5 -168q0 -85 -32.5 -151t-89 -106.5t-123 -64t-144.5 -32.5q65 -13 117 -39.5t86.5 -57.5t66.5 -80t52.5 -91.5t49.5 -107.5l4.5 -10.5t4 -9t4.5 -10.5z
M508 729h156q54 0 89.5 29.5t51.5 85t21 108t5 125.5q0 87 -16.5 163t-56 129.5t-94.5 53.5h-27q-35 0 -58.5 -9.5t-37 -25t-21 -46.5t-9.5 -61.5t-3 -82.5v-469z" />
    <glyph glyph-name="S" unicode="S" horiz-adv-x="1105" 
d="M354 1231q0 -67 38 -125.5t99 -103.5t134.5 -88.5t147 -92t134.5 -103.5t99 -132.5t38 -169.5q0 -192 -140.5 -314t-389.5 -122q-112 0 -268 38q-24 6 -37.5 9t-38 5.5t-38.5 -2.5t-29.5 -15.5t-23 -34t-7.5 -56.5h-11v527h11q0 -39 14 -93.5t47.5 -120t81.5 -120
t125 -91t168 -36.5q52 0 94 13t68.5 34.5t44.5 50t25.5 57t7.5 58.5q0 78 -37.5 142.5t-97 110.5t-131.5 89t-144 89.5t-131.5 100t-97 133t-37.5 176.5q0 182 133.5 296t343.5 114q52 0 93 -7.5t102.5 -27.5t76.5 -24q59 -16 87 8t28 106h10v-526h-10q0 126 -44 229.5
t-132.5 167.5t-206.5 64q-94 0 -146.5 -64t-52.5 -149z" />
    <glyph glyph-name="T" unicode="T" horiz-adv-x="1402" 
d="M1303 1434l38 -318h-10q-21 48 -39 83.5t-49.5 80.5t-65.5 73.5t-84 48.5t-108 21q-34 -1 -56.5 -10.5t-36 -25.5t-20.5 -46.5t-9 -61t-3 -81.5v-962q1 -51 3 -81.5t9.5 -62t21 -47t37 -25.5t58.5 -10v-10h-575v10q82 0 105.5 50.5t23.5 175.5v962q0 124 -23 174t-102 51
q-58 -1 -108 -21.5t-83.5 -48t-65.5 -73.5t-49.5 -80t-39.5 -84h-11l39 318h1203z" />
    <glyph glyph-name="U" unicode="U" horiz-adv-x="1439" 
d="M1100 1434h278v-11q-32 0 -55.5 -7.5t-38 -27t-23 -39t-12.5 -58.5t-5 -70t-1 -88v-697q-1 -92 -26.5 -169.5t-66.5 -129.5t-95 -88t-110.5 -52.5t-113.5 -16.5q-106 0 -193.5 12t-173 45.5t-144 86.5t-94.5 140.5t-36 202.5v731q0 126 -23.5 175.5t-105.5 49.5v11h586
v-11q-35 0 -58.5 -9.5t-37 -25t-21 -46.5t-9.5 -61.5t-3 -82.5v-792q0 -187 79.5 -299.5t233.5 -112.5q171 0 286.5 126t115.5 326v687q0 50 -0.5 76t-3 63t-7.5 55t-14.5 40t-24 32t-35 17t-48.5 7v11z" />
    <glyph glyph-name="V" unicode="V" horiz-adv-x="1587" 
d="M1100 1434h436v-11q-101 -18 -174.5 -92t-132.5 -225q-31 -79 -129.5 -355.5t-181.5 -513.5l-82 -237h-45q-447 1018 -500 1149q-21 53 -33.5 80.5t-36.5 71t-45.5 65.5t-54.5 39.5t-70 17.5v11h645v-11q-74 0 -86 -37.5t29 -150.5q34 -90 158.5 -384.5t179.5 -420.5
q192 542 211 602q34 88 38 177.5t-28.5 151.5t-97.5 62v11z" />
    <glyph glyph-name="W" unicode="W" horiz-adv-x="2222" 
d="M1735 1434h436v-11q-100 -17 -177.5 -99t-119.5 -218l-358 -1106h-46l-378 989l-326 -989h-45q-356 952 -430 1149q-23 59 -37.5 92.5t-37 73.5t-44 60t-52.5 34t-69 14v11h645v-11q-71 0 -89.5 -37t14.5 -129q33 -88 156 -434t130 -366l320 977h51l364 -1012
q197 609 205 649q15 61 17.5 121t-8 113t-41.5 85.5t-80 32.5v11z" />
    <glyph glyph-name="X" unicode="X" horiz-adv-x="1542" 
d="M1155 356q98 -156 147 -216q106 -130 189 -130v-10h-604v10q35 0 50.5 19.5t12 52t-17 68.5t-35.5 73q-40 64 -231 389q-34 -53 -78 -119t-83.5 -125.5t-49.5 -74.5q-45 -66 -57 -131t16 -108.5t94 -43.5v-10h-447v10q205 36 359 252q98 138 239 359q-90 155 -245 415
q-26 44 -43.5 73t-51 81.5t-63 87.5t-65 71.5t-71.5 55t-69 18.5v11h606v-11q-37 0 -52.5 -20t-10.5 -54t21 -73.5t42 -83.5q193 -327 197 -334q26 39 68.5 105t72.5 111t45 67q45 66 57 130.5t-16.5 108t-95.5 43.5v11h447v-11q-101 -18 -188.5 -78t-168.5 -174
q-37 -51 -215 -321q265 -447 295 -494z" />
    <glyph glyph-name="Y" unicode="Y" horiz-adv-x="1507" 
d="M1010 1434h446v-11q-100 -17 -184 -100.5t-133 -216.5l-185 -485v-385q1 -51 3 -81.5t9.5 -62t21 -47t37 -25.5t58.5 -10v-10h-575v10q82 0 105.5 50.5t23.5 175.5v356q-249 465 -272 510q-169 321 -314 321v11h596v-11q-28 0 -41 -18t-11 -46.5t10.5 -57.5t21.5 -56
q20 -38 162 -314t157 -306q5 14 70.5 188t81.5 219q34 96 38.5 185t-28 147.5t-98.5 58.5v11z" />
    <glyph glyph-name="Z" unicode="Z" horiz-adv-x="1210" 
d="M1149 1434v-11l-750 -1413h322q249 0 373 283h10l-70 -293h-973v10l750 1413h-293q-74 0 -138 -24.5t-110 -67t-78.5 -89t-56.5 -101.5h-8l68 293h954z" />
    <glyph glyph-name="bracketleft" unicode="[" horiz-adv-x="399" 
d="M379 1522h-135v-1563h135v-10h-318v1583h318v-10z" />
    <glyph glyph-name="backslash" unicode="\" horiz-adv-x="430" 
d="M72 1454l297 -1454h-11l-297 1454h11z" />
    <glyph glyph-name="bracketright" unicode="]" horiz-adv-x="399" 
d="M20 1532h318v-1583h-318v10h134v1563h-134v10z" />
    <glyph glyph-name="asciicircum" unicode="^" horiz-adv-x="827" 
d="M766 1081h-8l-344 420l-342 -420h-11l349 426h10z" />
    <glyph glyph-name="underscore" unicode="_" 
d="M61 -10h576v-10h-576v10z" />
    <glyph glyph-name="grave" unicode="`" horiz-adv-x="360" 
d="M244 1393l55 -228h-10l-228 228h183z" />
    <glyph glyph-name="a" unicode="a" horiz-adv-x="1136" 
d="M1057 -6q41 0 69 22v-12q-43 -24 -104 -24q-329 0 -367 190q-65 -138 -184 -172q-48 -15 -102.5 -19.5t-110 4t-99.5 31.5t-71 69t-25 110q2 61 26.5 105t60.5 68t89.5 42t102.5 26.5t112.5 22t106.5 28.5q58 21 88 45v189v33v51.5t-1 47t-3.5 42.5t-7 37.5t-11.5 32
t-17.5 26t-24.5 19.5t-32.5 12t-41.5 4q-96 0 -159.5 -30.5t-88.5 -80.5q-12 -21 -6.5 -43t16 -35t24.5 -33t19 -38q13 -43 -17.5 -77.5t-82.5 -24.5q-48 9 -68.5 59t3.5 113q14 32 41.5 63.5t71 63.5t109.5 51.5t144 19.5q63 0 120.5 -8.5t118 -32.5t104 -61t71.5 -99
t28 -141v-477q0 -49 1.5 -77t6.5 -59t15.5 -46.5t29 -26t46.5 -10.5zM506 20q90 42 147 164q-4 24 -4 39v295q-29 -19 -78 -37q-10 -4 -37.5 -13.5t-39.5 -14t-35.5 -16t-35.5 -21.5t-29 -27.5t-26 -37.5t-16.5 -48.5t-9.5 -62.5q-11 -144 31 -205t133 -15z" />
    <glyph glyph-name="b" unicode="b" horiz-adv-x="1308" 
d="M776 1032q93 0 176 -33.5t149.5 -97t106 -165.5t39.5 -230q0 -526 -452 -526q-48 0 -88.5 11.5t-73.5 35.5t-48 38.5t-42 43.5q-30 29 -74 28.5t-94.5 -22t-94 -47t-72.5 -46.5l-28 -22h-10v1274q-2 130 -26 176.5t-103 46.5v10h471v-10q-35 -17 -35 -307v-352
q42 86 117.5 140t181.5 54zM743 0q99 0 145 126t46 380q0 103 -4.5 176t-17 140t-34 108t-57.5 64.5t-86 23.5q-71 0 -148.5 -57t-109.5 -148v-307q0 -189 25 -283q27 -93 94 -158t147 -65z" />
    <glyph glyph-name="c" unicode="c" horiz-adv-x="1114" 
d="M737 -10q80 0 168.5 38.5t130.5 86.5v-25q-120 -97 -297 -108q-92 -6 -180.5 5.5t-176 46.5t-154.5 90.5t-112 144.5t-53 202q-7 109 24 201t87.5 154.5t134 108t161 68t171.5 27.5q140 8 252.5 -53t148.5 -129q31 -55 14 -116t-75 -70q-59 -9 -93.5 30t-17.5 92
q6 18 18 34.5t22 26.5t17 21t5.5 25t-14.5 33q-32 46 -111 75t-166 23q-76 -6 -132.5 -57.5t-86.5 -131t-42 -171.5t-5 -187t33 -180t70 -154t111 -109.5t148 -41.5z" />
    <glyph glyph-name="d" unicode="d" horiz-adv-x="1292" 
d="M1122 236v-3q0 -130 24.5 -176.5t104.5 -46.5v-10h-473v10q22 10 31 142q-81 -172 -272 -172q-220 0 -352 139.5t-122 386.5q4 95 30.5 172.5t67 130t98 93t115.5 64.5t128 42q83 21 165 24t146 -4v246q0 130 -24.5 176.5t-104.5 46.5v10h471v-10q-33 -18 -33 -307v-954z
M813 317v703q-62 7 -142 2.5t-120 -21.5q-92 -38 -133.5 -164t-44.5 -335q-3 -140 21 -253.5t74.5 -181t119.5 -67.5q74 0 131 47.5t92 124.5q2 41 2 145z" />
    <glyph glyph-name="e" unicode="e" horiz-adv-x="1177" 
d="M1126 682h-747q-16 -137 -10 -207q7 -95 32 -179.5t68.5 -154t111 -110t150.5 -41.5q88 0 189 39t155 90v-25q-163 -102 -342 -112q-91 -5 -181 9t-176.5 51t-154 93t-110.5 143t-48 193t25.5 197t85.5 155t129 110.5t156.5 69.5t169.5 27q212 9 343 -80t154 -268z
M629 1022q-107 -6 -168 -97.5t-82 -236.5h459q-2 71 -13 128t-34 107t-64 76.5t-98 22.5z" />
    <glyph glyph-name="f" unicode="f" horiz-adv-x="700" 
d="M731 1483q38 -18 55.5 -50t14.5 -63.5t-21 -54.5t-51.5 -30t-66.5 9.5t-46 55.5q-5 19 0.5 49t11.5 51t-1 37t-35 16q-21 0 -38 -4.5t-28.5 -16.5t-20 -22.5t-13.5 -32t-8 -35.5t-4 -42t-1.5 -43t0 -47.5t0.5 -45.5v-202h197v-11h-197v-765q0 -131 24.5 -178.5
t104.5 -47.5v-10h-567v10q80 0 104.5 47.5t24.5 178.5v765h-113v11h113v108q0 98 26.5 172.5t66 115t93.5 65.5t98.5 32.5t92.5 7.5q66 0 117 -10.5t67 -19.5z" />
    <glyph glyph-name="g" unicode="g" horiz-adv-x="1112" 
d="M1110 -70q18 -136 -108 -256.5t-320 -175.5q-91 -26 -205 -27.5t-216.5 18.5t-176 69t-82.5 118q-7 51 13 90t54 61t85 36.5t95.5 19.5t96.5 6q93 0 158 -8v-20q-9 3 -25.5 7.5t-60.5 10.5t-80 2q-66 -8 -99.5 -56t-27.5 -132q7 -87 63.5 -141t136.5 -67t171 2t170 56
q57 29 97.5 65.5t59 70.5t21.5 66t-11 57t-42 38q-42 20 -169 33.5t-262.5 34.5t-203.5 61q-63 38 -74.5 108t33.5 122q17 19 48.5 34t49.5 20.5t59 16.5q-108 32 -180 106t-80 191q-5 75 19.5 138.5t67 106.5t100 74.5t115 48t114.5 21.5q131 13 262 -43q14 56 39.5 100
t50.5 62q45 33 91.5 24t60.5 -48q17 -43 -9 -75.5t-67 -27.5q-15 2 -33 11.5t-30 17.5t-28.5 7t-33.5 -17q-19 -19 -35 -56q196 -87 207 -276q4 -73 -21 -135.5t-67.5 -105.5t-99.5 -75t-114.5 -49t-113.5 -22q-105 -10 -204 18q-63 -39 26 -78q82 -36 252 -55
q77 -9 125 -15t101 -15t84 -19t61.5 -24t47 -32.5t28.5 -42.5t16 -55zM514 948q-64 -7 -98 -56.5t-39 -129t2 -184.5q15 -167 57.5 -248t136.5 -74q64 7 98 56t39.5 128.5t-1.5 184.5q-15 167 -58 248.5t-137 74.5z" />
    <glyph glyph-name="h" unicode="h" horiz-adv-x="1316" 
d="M1147 236v-3q2 -130 26 -176.5t103 -46.5v-10h-565v10q79 0 104 48t25 178v458q0 140 -8 187q-29 128 -132 131q-64 0 -126 -44.5t-97 -117.5v-614q0 -130 25 -178t104 -48v-10h-565v10q79 0 103 47.5t26 178.5v1038q-1 51 -3 81.5t-9.5 61t-21 46t-37 25t-58.5 9.5v10
h471v-10q-35 -17 -35 -307v-320q54 82 122.5 122t186.5 40q169 0 265 -93.5t96 -283.5v-419z" />
    <glyph glyph-name="i" unicode="i" horiz-adv-x="649" 
d="M479 236v-3q0 -130 24.5 -176.5t104.5 -46.5v-10h-567v10q80 0 104.5 47.5t24.5 178.5v542q0 130 -24.5 176.5t-104.5 46.5v11h471v-11q-33 -18 -33 -307v-458zM324 1171q-66 0 -113 49.5t-47 118.5q0 70 47 119t113 49q68 0 114.5 -49t46.5 -119q0 -69 -47 -118.5
t-114 -49.5z" />
    <glyph glyph-name="j" unicode="j" horiz-adv-x="649" 
d="M344 1171q-67 0 -114.5 49.5t-47.5 118.5q0 70 47 119t115 49q66 0 113 -49t47 -119q0 -69 -47 -118.5t-113 -49.5zM59 1012h473v-11q-34 -17 -34 -307v-848q0 -93 -31 -168.5t-80.5 -123.5t-117 -82t-133 -50t-136.5 -22v12q99 36 143.5 129.5t44.5 280.5v956
q0 130 -24.5 176.5t-104.5 46.5v11z" />
    <glyph glyph-name="k" unicode="k" horiz-adv-x="1323" 
d="M1014 279q42 -66 69.5 -104.5t65 -81.5t72.5 -63t71 -20v-10h-442l-338 539l-33 -33v-273q0 -130 24.5 -176.5t104.5 -46.5v-10h-567v10q80 0 104.5 46.5t24.5 176.5v1041q0 130 -24.5 176.5t-104.5 46.5v10h473v-10q-35 -17 -35 -307v-672q46 46 178.5 175.5
t167.5 164.5q21 21 25.5 48.5t-10.5 51.5q-27 43 -129 43v11h438v-11q-50 0 -143.5 -38t-169.5 -109q-19 -19 -58 -57t-59 -56q9 -15 65 -103t128.5 -201t101.5 -158z" />
    <glyph glyph-name="l" unicode="l" horiz-adv-x="647" 
d="M477 1190v-954q0 -131 25 -178.5t104 -47.5v-10h-565v10q79 0 103 47.5t26 178.5v1038q-2 130 -26 176.5t-103 46.5v10h471v-10q-35 -17 -35 -307z" />
    <glyph glyph-name="m" unicode="m" horiz-adv-x="1968" 
d="M1798 655v-419q0 -131 25 -178.5t104 -47.5v-10h-565v10q79 0 103 47.5t26 178.5v458q0 143 -10 194q-26 124 -129 124q-69 0 -134 -54.5t-104 -140.5q25 -73 25 -162v-419q0 -131 24.5 -178.5t104.5 -47.5v-10h-568v10q80 0 104.5 47.5t24.5 178.5v458v25v59.5
t-2.5 56.5t-7.5 56.5t-15 47t-24.5 40t-36.5 23.5t-51 10q-61 0 -118.5 -41.5t-92.5 -110.5l-4 -624q2 -131 26 -178.5t103 -47.5v-10h-565v10q79 0 104 48t25 178v542q0 129 -25 176t-104 47v11h471v-11q-21 -10 -29 -120q50 77 114.5 114t178.5 37q260 0 334 -205
q55 104 128.5 154.5t197.5 50.5q170 0 266 -93.5t96 -283.5z" />
    <glyph glyph-name="n" unicode="n" horiz-adv-x="1318" 
d="M1149 236v-3q0 -129 25 -176t104 -47v-10h-565v10q79 0 103 47.5t26 178.5v458v18q0 40 -0.5 60.5t-3 57.5t-7.5 58t-15 48t-24.5 41t-37.5 24.5t-52 10.5q-62 0 -123 -42t-96 -110q-4 -45 -4 -166v-458q0 -131 24.5 -178.5t104.5 -47.5v-10h-567v10q80 0 104.5 47.5
t24.5 178.5v542q0 131 -24.5 177t-104.5 46v11h473v-11q-23 -11 -31 -120q51 76 119.5 113.5t183.5 37.5q171 0 267 -93.5t96 -283.5v-419z" />
    <glyph glyph-name="o" unicode="o" horiz-adv-x="1294" 
d="M1231 557q7 -123 -35 -230t-116 -179t-169.5 -115.5t-199.5 -50.5q-85 -6 -170 6.5t-168 48t-148.5 90.5t-109.5 140t-52 190q-10 126 28.5 231t112 174.5t169.5 112t207 55.5q111 12 222.5 -13t205 -82t155.5 -155.5t68 -222.5zM711 -10q62 6 106.5 54.5t65.5 125
t28.5 173t-4.5 198.5q-21 221 -110 356t-215 125q-62 -6 -107 -55.5t-66.5 -126t-29 -173.5t5.5 -198q16 -143 59.5 -253.5t113 -172t153.5 -53.5z" />
    <glyph glyph-name="p" unicode="p" horiz-adv-x="1263" 
d="M727 1032q96 0 180.5 -33.5t151 -97t105 -165.5t38.5 -230t-37.5 -230t-103.5 -165.5t-151 -97t-183 -33.5q-153 0 -250 116v-264q1 -90 10.5 -134.5t37 -66.5t83.5 -22v-10h-567v10q80 0 104.5 46t24.5 177v946q0 131 -24.5 177t-104.5 46v11h471v-11q-15 -11 -23 -73
q94 104 238 104zM688 -4q62 0 103 34t63.5 103.5t31.5 158t9 214.5t-9 215t-31.5 159t-63.5 104t-103 34q-49 0 -104.5 -28t-96.5 -77q-10 -82 -10 -219v-585q43 -54 100.5 -83.5t110.5 -29.5z" />
    <glyph glyph-name="q" unicode="q" horiz-adv-x="1316" 
d="M1147 778v-946q0 -124 23.5 -173.5t105.5 -49.5v-10h-565v10q35 0 58.5 9.5t37 25t21 46t9.5 61t3 81.5v535q-24 -182 -106 -284.5t-222 -102.5q-221 0 -342.5 133.5t-103.5 392.5q9 131 57 232.5t127 165t182 96t227 32.5q51 0 142 -10t182 -10h293v-11
q-79 0 -104 -46.5t-25 -176.5zM834 506q0 150 4 358q-3 97 -39 127.5t-154 30.5q-59 0 -103.5 -26t-72.5 -69t-46 -111.5t-26.5 -140.5t-13.5 -169q-5 -110 2 -200.5t28 -160t59 -107.5t91 -38q80 0 142.5 63.5t93.5 159.5q22 64 28.5 127t6.5 156z" />
    <glyph glyph-name="r" unicode="r" horiz-adv-x="991" 
d="M770 1032q90 7 136.5 -36t27.5 -113q-8 -37 -40 -57t-64.5 -18t-59.5 15q-25 17 -39.5 44.5t-18 48.5t-16 32.5t-37.5 3.5q-51 -15 -104 -86.5t-78 -156.5v-473q2 -131 26 -178.5t103 -47.5v-10h-565v10q80 0 104.5 47.5t24.5 178.5v542q0 131 -24.5 177t-104.5 46v11
h471v-11q-30 -17 -33 -264q38 122 128.5 205t162.5 90z" />
    <glyph glyph-name="s" unicode="s" horiz-adv-x="960" 
d="M317 868q0 -46 35 -83t89.5 -64t120 -54.5t129 -62t114 -78t76 -110.5t14.5 -152q-19 -133 -138 -207.5t-304 -74.5q-74 0 -138.5 17t-108 44t-71.5 52t-45 50q-34 51 -26 104.5t49 67.5q48 14 80.5 -12t29.5 -69q-1 -18 -12.5 -41.5t-21 -39.5t-9 -37.5t18.5 -41.5
q31 -36 95.5 -61t143.5 -25q102 0 168 45t70 125q2 44 -17.5 79.5t-54.5 61.5t-80.5 49t-96 44.5t-101.5 44.5t-96 53.5t-79 67.5t-52.5 89.5t-14.5 116.5q7 130 109.5 198t252.5 68q134 0 226 -44.5t129 -98.5q34 -51 26.5 -103t-51.5 -67q-40 -15 -76.5 10.5t-33.5 69.5
q2 18 12.5 41t18.5 38.5t7 36t-18 39.5q-29 30 -82 49t-117 19q-79 0 -124.5 -40t-45.5 -114z" />
    <glyph glyph-name="t" unicode="t" horiz-adv-x="671" 
d="M551 -4q43 0 90 20v-10q-50 -26 -129 -26q-36 0 -65 2t-70 9.5t-72.5 20t-64.5 37t-55 57.5t-36 83.5t-14 113.5v698h-94v11h94v75q60 0 117.5 16t109.5 57t70 102h4h6v-250h183v-11h-183v-739q0 -60 3.5 -101t14 -82t33.5 -62t58 -21z" />
    <glyph glyph-name="u" unicode="u" horiz-adv-x="1308" 
d="M1139 236v-3q0 -130 24.5 -176.5t104.5 -46.5v-10h-471v10q19 10 28 123q-51 -77 -119.5 -115t-183.5 -38q-170 0 -266 93.5t-96 284.5v420q0 131 -24.5 177t-104.5 46v11h473v-11q-35 -17 -35 -307v-377v-25v-59.5t2.5 -56.5t7.5 -56t15 -46.5t24.5 -40t36.5 -23.5
t51 -10q62 0 123 42t96 112q4 43 4 163v461q0 131 -24.5 177t-104.5 46v11h474v-11q-35 -17 -35 -307v-458z" />
    <glyph glyph-name="v" unicode="v" horiz-adv-x="1107" 
d="M780 1012h307v-11q-135 -26 -208 -221l-281 -780h-45q-320 711 -365 809q-45 101 -66 130q-43 62 -102 62v11h502v-11q-52 0 -59 -29.5t26 -107.5q172 -423 220 -534q125 356 141 397q15 40 19 87.5t-3 89t-29.5 69.5t-56.5 28v11z" />
    <glyph glyph-name="w" unicode="w" horiz-adv-x="1619" 
d="M1290 1012h309v-11q-134 -26 -210 -221q-22 -56 -87 -251t-120 -362l-54 -167h-43l-288 666l-209 -666h-43q-302 684 -357 809q-45 101 -66 130q-43 62 -102 62v11h482v-11q-52 0 -59 -30.5t26 -106.5q26 -60 117 -279.5t102 -244.5l211 672h39l287 -699q26 82 57.5 179
t54 163.5t23.5 71.5q20 55 21.5 117.5t-22 109.5t-69.5 47v11z" />
    <glyph glyph-name="x" unicode="x" horiz-adv-x="1140" 
d="M874 254q8 -11 29 -44t31.5 -49t31 -44t35.5 -43t34 -32t37.5 -24.5t37.5 -7.5v-10h-473v10q25 0 35.5 13.5t7 36t-14 47.5t-26.5 51q-11 18 -70 114.5t-100 161.5q-60 -93 -150 -227q-32 -46 -41 -91.5t10 -75.5t66 -30v-10h-307v10q142 25 248 176q20 29 170 252
q-155 250 -182 295q-7 11 -30.5 48t-38 59.5t-40.5 57t-47 54t-47 34.5t-49 15v11h473v-11q-27 0 -38 -12.5t-7 -35t16 -49t33 -60.5q13 -21 143 -234q110 171 127 195q32 48 41 92.5t-10 74t-66 29.5v11h310v-11q-73 -14 -132.5 -54t-117.5 -120q-106 -156 -148 -221
q199 -323 219 -352z" />
    <glyph glyph-name="y" unicode="y" horiz-adv-x="1114" 
d="M786 1012h308v-11q-135 -26 -211 -221q-10 -27 -136.5 -381t-144.5 -399q-76 -207 -166.5 -322.5t-187.5 -121.5q-57 -3 -103.5 26t-54.5 86q-4 36 21.5 63.5t60 30.5t68.5 -20q13 -10 23.5 -35t17 -47t18.5 -41.5t27 -20t43 18.5q57 47 118.5 151t104.5 232h-33
q-324 711 -369 809q-45 100 -65 129q-44 63 -105 63v11h474v-11q-52 0 -59 -29.5t26 -107.5q22 -54 125.5 -295.5t113.5 -265.5q56 154 156 424q15 40 19 87.5t-3 89t-29.5 69.5t-56.5 28v11z" />
    <glyph glyph-name="z" unicode="z" horiz-adv-x="933" 
d="M872 1012v-11l-516 -991h213q99 0 174 65t111 150h8l-63 -225h-738v10l514 991h-178q-52 0 -98.5 -19.5t-80.5 -52t-58 -68t-41 -73.5h-8l59 224h702z" />
    <glyph glyph-name="braceleft" unicode="{" horiz-adv-x="425" 
d="M334 496q28 -45 29 -97.5t-20 -107t-46.5 -105t-53.5 -109.5t-38 -102q-33 -137 6.5 -222t136.5 -115v-7q-145 31 -225 122t-53 247q11 58 36 117t49 98t47 89t29.5 90.5t-2.5 101.5q-10 48 -55 55q-17 2 -35.5 -2t-28.5 -9l-10 -5v51l11 -5.5t26.5 -8.5t36.5 -3
q45 7 55 56q13 63 -3.5 125.5t-45.5 109t-63 118.5t-47 142q-27 156 53 247t225 120v-4q-97 -30 -136.5 -115.5t-6.5 -222.5q10 -43 38 -102t53.5 -109.5t46.5 -104.5t20 -106.5t-29 -97.5q-42 -66 -174 -66q63 0 106.5 -12.5t67.5 -50.5z" />
    <glyph glyph-name="bar" unicode="|" horiz-adv-x="133" 
d="M61 1522h11v-1598h-11v1598z" />
    <glyph glyph-name="braceright" unicode="}" horiz-adv-x="423" 
d="M197 496q-14 -63 2.5 -125.5t45.5 -109t62.5 -119t46.5 -142.5q15 -81 -1 -146t-57 -109t-95.5 -71.5t-122.5 -42.5v7q97 30 135.5 115t7.5 222q-10 43 -38 102t-53.5 109.5t-46.5 105t-20 107t29 97.5q24 38 67.5 50.5t106.5 12.5q-132 0 -174 66q-28 45 -29 97.5
t20 106.5t46.5 104.5t53.5 109.5t38 102q31 137 -7.5 222.5t-135.5 115.5v4q68 -14 122.5 -41.5t95.5 -71t57 -108.5t1 -146q-13 -70 -46.5 -142t-62.5 -118.5t-45.5 -109t-2.5 -125.5q10 -49 53 -56q18 -2 37 2.5t29 9.5l10 5v-51l-11 5.5t-27 8t-38 2.5q-43 -7 -53 -55z
" />
    <glyph glyph-name="asciitilde" unicode="~" horiz-adv-x="913" 
d="M680 682q-36 0 -75 11.5t-65.5 24.5t-70.5 38q-46 26 -73 39t-70 26t-82 13q-40 0 -72.5 -15t-50 -35.5t-29.5 -43.5t-16 -36t-4 -16l-11 2l3 9q2 9 7.5 22.5t14.5 30t23 32.5t32.5 29.5t45 22t57.5 8.5q40 0 85 -14t70 -26.5t76 -39.5q44 -24 69 -36.5t63.5 -24
t72.5 -11.5q46 0 80.5 18.5t51 45.5t23.5 49.5t7 38.5h10q0 -17 -7.5 -41t-25 -52.5t-54 -48.5t-85.5 -20z" />
    <glyph glyph-name="exclamdown" unicode="&#xa1;" horiz-adv-x="356" 
d="M178 465q-47 0 -82 35t-35 82q0 49 34.5 82.5t82.5 33.5q50 0 83.5 -33.5t33.5 -82.5q0 -48 -34 -82.5t-83 -34.5zM203 -66q10 -104 47.5 -293t42.5 -257q5 -59 -23.5 -99.5t-91.5 -40.5q-62 0 -90 40t-25 100q6 66 43 254.5t48 295.5q9 91 14 187t6 146v50h4h6
q1 -178 19 -383z" />
    <glyph glyph-name="cent" unicode="&#xa2;" horiz-adv-x="1114" 
d="M737 -10q80 0 167.5 39t131.5 88v-25q-129 -100 -299 -110h-96v-146h-10v146q-83 4 -159 22.5t-149 57t-127 93t-90 136.5t-43 182q-7 108 23 199t85 154t131 108.5t158.5 68.5t170.5 29v144h10v-144q140 7 252.5 -54.5t146.5 -127.5q33 -55 16 -116t-75 -70
q-59 -9 -93.5 29.5t-17.5 90.5q6 18 18 35t22 27t17 21.5t5.5 25t-14.5 31.5q-33 47 -112.5 77t-164.5 23v-1018q46 -16 96 -16zM375 477q7 -106 36.5 -198t86.5 -165.5t133 -103.5v1014q-74 -9 -128.5 -61.5t-83.5 -132t-40 -170t-4 -183.5z" />
    <glyph glyph-name="sterling" unicode="&#xa3;" horiz-adv-x="1005" 
d="M954 289h11l-45 -289h-879v10q42 0 82 16t79.5 51t68.5 102.5t42 160.5q22 162 -30 383h-183v10h181q-10 43 -43.5 160.5t-47 190t-10.5 137.5q2 61 23 109.5t55.5 79.5t74 52t86.5 32t85.5 15t77.5 4q210 0 307 -90q43 -38 47 -93.5t-27 -84.5q-23 -23 -57.5 -26.5
t-66 16t-40.5 59.5q-2 17 -1.5 39.5t4.5 46t-0.5 45.5t-16 39.5t-42 28t-77.5 10.5q-124 0 -149 -84q-22 -75 30 -275q14 -55 60 -216q30 -118 43 -195h278v-10h-278q41 -287 -77.5 -462t-407.5 -251h282q211 0 345 71t216 208z" />
    <glyph glyph-name="currency" unicode="&#xa4;" horiz-adv-x="925" 
d="M770 668q0 -122 -88 -213l182 -164l-20 -21l-168 176q-89 -86 -215 -86q-120 0 -211 84l-168 -174l-21 21l181 162q-88 91 -88 215q0 125 90 215l-183 164l21 20l168 -176q91 84 211 84q124 0 213 -86l170 178l20 -20l-182 -164q88 -91 88 -215zM164 668q0 -123 87 -210
t210 -87q124 0 211.5 87t87.5 210t-87.5 210t-211.5 87q-123 0 -210 -87t-87 -210z" />
    <glyph glyph-name="yen" unicode="&#xa5;" horiz-adv-x="1507" 
d="M1010 1434h446v-11q-100 -17 -184 -100.5t-133 -216.5l-185 -485v-21h181v-10h-181v-127h181v-10h-181v-217q0 -126 23.5 -176t105.5 -50v-10h-575v10q82 0 105.5 50t23.5 176v217h-205v10h205v127h-205v10h201q-241 449 -268 502q-169 321 -314 321v11h596v-11
q-28 0 -41 -18t-11 -46.5t10.5 -57.5t21.5 -56q228 -446 319 -618q4 10 38.5 100.5t68 180t45.5 124.5q34 96 38.5 185t-28 147.5t-98.5 58.5v11z" />
    <glyph glyph-name="brokenbar" unicode="&#xa6;" horiz-adv-x="133" 
d="M61 -25v555h11v-555h-11zM61 1473h11v-555h-11v555z" />
    <glyph glyph-name="section" unicode="&#xa7;" horiz-adv-x="880" 
d="M467 1227q0 -66 20 -131t52 -119t70 -107t76 -105.5t68.5 -104t48.5 -112.5t15 -122q-5 -111 -57.5 -195.5t-142 -136.5t-205 -78t-254.5 -26v8q116 0 184 59.5t80 175.5q9 82 -23.5 163t-86 152t-108 142t-96 160t-45.5 180q-4 94 39 170.5t112 124.5t158.5 80.5
t173 45.5t161.5 13v-8q-43 0 -84 -13t-76.5 -39.5t-57.5 -72t-22 -104.5zM653 373q5 60 -12 120.5t-47.5 112.5t-68.5 104.5t-76.5 106t-70.5 107.5t-51.5 117.5t-17.5 127.5q6 139 125 217q-90 -47 -147.5 -122t-57.5 -177q0 -66 21 -130t53.5 -117t72 -106t78 -105
t69.5 -104t47.5 -113.5t11.5 -124.5q-7 -90 -58 -154.5t-135 -99.5q106 38 180 123.5t84 216.5z" />
    <glyph glyph-name="dieresis" unicode="&#xa8;" horiz-adv-x="499" 
d="M147 1376q34 0 59 -25t25 -59q0 -35 -25 -60.5t-59 -25.5q-35 0 -60.5 25.5t-25.5 60.5q0 34 25.5 59t60.5 25zM354 1376q35 0 59.5 -25t24.5 -59q0 -35 -24.5 -60.5t-59.5 -25.5q-34 0 -59 25.5t-25 60.5q0 34 25 59t59 25z" />
    <glyph glyph-name="guillemotleft" unicode="&#xab;" horiz-adv-x="768" 
d="M274 709l433 348v-10l-361 -342l361 -343v-10l-433 346v11zM61 709l433 348v-10l-361 -342l361 -343v-10l-433 346v11z" />
    <glyph glyph-name="macron" unicode="&#xaf;" horiz-adv-x="479" 
d="M61 1284h357v-10h-357v10z" />
    <glyph glyph-name="degree" unicode="&#xb0;" horiz-adv-x="411" 
d="M205 1167q-59 0 -101.5 42.5t-42.5 101.5q0 60 42.5 102.5t101.5 42.5q60 0 102.5 -42.5t42.5 -102.5q0 -59 -42.5 -101.5t-102.5 -42.5zM205 1446q-56 0 -94.5 -39t-38.5 -96q0 -55 39 -94t94 -39q57 0 96 38.5t39 94.5q0 57 -39 96t-96 39z" />
    <glyph glyph-name="plusminus" unicode="&#xb1;" 
d="M354 653h283v-8h-283v-283h-10v283h-283v8h283v285h10v-285zM61 262v10h576v-10h-576z" />
    <glyph glyph-name="acute" unicode="&#xb4;" horiz-adv-x="360" 
d="M61 1165l54 228h184l-227 -228h-11z" />
    <glyph glyph-name="paragraph" unicode="&#xb6;" horiz-adv-x="468" 
d="M399 1454h9v-1454h-9v1454zM61 1174q0 133 78 205.5t191 74.5v-561v-893h-11v893q-110 5 -184 78t-74 203z" />
    <glyph glyph-name="middot" unicode="&#xb7;" horiz-adv-x="292" 
d="M147 1376q34 0 59 -25t25 -59q0 -35 -25 -60.5t-59 -25.5q-35 0 -60.5 25.5t-25.5 60.5q0 34 25.5 59t60.5 25z" />
    <glyph glyph-name="cedilla" unicode="&#xb8;" horiz-adv-x="378" 
d="M133 -49q103 9 151 -34.5t27 -111.5q-14 -52 -62.5 -73.5t-115.5 0.5q-43 11 -72 43v22q31 -44 62 -55q27 -7 47.5 17t26.5 65q3 30 3.5 57.5t-18.5 46.5t-59 17q1 6 16 45l8 -2q-11 -26 -14 -37z" />
    <glyph glyph-name="guillemotright" unicode="&#xbb;" horiz-adv-x="768" 
d="M61 1057l431 -348v-11l-431 -346v10l361 343l-361 342v10zM274 1057l433 -348v-11l-433 -346v10l361 343l-361 342v10z" />
    <glyph glyph-name="questiondown" unicode="&#xbf;" horiz-adv-x="843" 
d="M606 -199q57 -20 99 -71.5t61 -115t12.5 -132.5t-37.5 -125.5t-99.5 -93.5t-164.5 -37q-61 0 -118.5 8.5t-118.5 33.5t-102.5 64t-62 105t-5.5 151q10 58 40 112t69.5 97.5t85 88t89 91.5t79 98t57.5 118.5t22 142.5h10q6 -109 -16 -214.5t-53.5 -177.5t-66.5 -167.5
t-48 -173.5q-10 -60 -13 -109.5t3.5 -99.5t25.5 -84t56.5 -55t91.5 -21q65 0 117 24t81.5 64.5t46 90t12.5 103.5t-20.5 103t-51.5 89.5t-81 62.5v30zM506 465q-47 0 -82 35t-35 82q0 49 34.5 82.5t82.5 33.5q50 0 83.5 -33.5t33.5 -82.5q0 -48 -34 -82.5t-83 -34.5z" />
    <glyph glyph-name="Agrave" unicode="&#xc0;" horiz-adv-x="1478" 
d="M1239 287q56 -134 88 -181q64 -96 152 -96v-10h-607v10q76 0 88 38t-30 151q-9 25 -28 76t-50 132.5t-53 139.5h-396q-13 -33 -26.5 -67.5t-21 -53.5t-9.5 -25q-32 -88 -36 -177t28.5 -151.5t97.5 -62.5v-10h-436v10q100 19 174 94t133 224l432 1106h45
q402 -1016 455 -1147zM406 555h389l-82.5 214.5t-76 198t-34.5 89.5q-33 -84 -101 -259t-95 -243zM694 1802l56 -227h-11l-227 227h182z" />
    <glyph glyph-name="Aacute" unicode="&#xc1;" horiz-adv-x="1478" 
d="M1239 287q56 -134 88 -181q64 -96 152 -96v-10h-607v10q76 0 88 38t-30 151q-9 25 -28 76t-50 132.5t-53 139.5h-396q-13 -33 -26.5 -67.5t-21 -53.5t-9.5 -25q-32 -88 -36 -177t28.5 -151.5t97.5 -62.5v-10h-436v10q100 19 174 94t133 224l432 1106h45
q402 -1016 455 -1147zM406 555h389l-82.5 214.5t-76 198t-34.5 89.5q-33 -84 -101 -259t-95 -243zM778 1575l53 227h185l-228 -227h-10z" />
    <glyph glyph-name="Acircumflex" unicode="&#xc2;" horiz-adv-x="1478" 
d="M1239 287q56 -134 88 -181q64 -96 152 -96v-10h-607v10q76 0 88 38t-30 151q-9 25 -28 76t-50 132.5t-53 139.5h-396q-13 -33 -26.5 -67.5t-21 -53.5t-9.5 -25q-32 -88 -36 -177t28.5 -151.5t97.5 -62.5v-10h-436v10q100 19 174 94t133 224l432 1106h45
q402 -1016 455 -1147zM406 555h389l-82.5 214.5t-76 198t-34.5 89.5q-33 -84 -101 -259t-95 -243zM821 1802l195 -227h-10l-244 113l-242 -113h-10l192 227h119z" />
    <glyph glyph-name="Atilde" unicode="&#xc3;" horiz-adv-x="1478" 
d="M1239 287q56 -134 88 -181q64 -96 152 -96v-10h-607v10q76 0 88 38t-30 151q-9 25 -28 76t-50 132.5t-53 139.5h-396q-13 -33 -26.5 -67.5t-21 -53.5t-9.5 -25q-32 -88 -36 -177t28.5 -151.5t97.5 -62.5v-10h-436v10q100 19 174 94t133 224l432 1106h45
q402 -1016 455 -1147zM406 555h389l-82.5 214.5t-76 198t-34.5 89.5q-33 -84 -101 -259t-95 -243zM862 1616q-35 2 -106 22.5t-94 22.5q-32 4 -53.5 -6.5t-28.5 -26.5h-11q12 148 93 158q21 2 62 -7t84 -20.5t54 -13.5q39 -6 55.5 1t22.5 32h10q4 -29 -2 -65t-28 -67.5
t-58 -29.5z" />
    <glyph glyph-name="Adieresis" unicode="&#xc4;" horiz-adv-x="1478" 
d="M1239 287q56 -134 88 -181q64 -96 152 -96v-10h-607v10q76 0 88 38t-30 151q-9 25 -28 76t-50 132.5t-53 139.5h-396q-13 -33 -26.5 -67.5t-21 -53.5t-9.5 -25q-32 -88 -36 -177t28.5 -151.5t97.5 -62.5v-10h-436v10q100 19 174 94t133 224l432 1106h45
q402 -1016 455 -1147zM406 555h389l-82.5 214.5t-76 198t-34.5 89.5q-33 -84 -101 -259t-95 -243zM659 1786q34 0 59 -25t25 -59q0 -35 -25 -60.5t-59 -25.5q-35 0 -60.5 25.5t-25.5 60.5q0 34 25.5 59t60.5 25zM866 1786q35 0 59.5 -25t24.5 -59q0 -35 -24.5 -60.5
t-59.5 -25.5q-34 0 -59 25.5t-25 60.5q0 34 25 59t59 25z" />
    <glyph glyph-name="Aring" unicode="&#xc5;" horiz-adv-x="1478" 
d="M1239 287q56 -134 88 -181q64 -96 152 -96v-10h-607v10q76 0 88 38t-30 151q-9 25 -28 76t-50 132.5t-53 139.5h-396q-13 -33 -26.5 -67.5t-21 -53.5t-9.5 -25q-32 -88 -36 -177t28.5 -151.5t97.5 -62.5v-10h-436v10q100 19 174 94t133 224l432 1106h45
q402 -1016 455 -1147zM406 555h389l-82.5 214.5t-76 198t-34.5 89.5q-33 -84 -101 -259t-95 -243zM760 1550q-50 0 -84.5 35t-34.5 84t34.5 84t84.5 35t84.5 -35t34.5 -84t-34.5 -84t-84.5 -35zM760 1778q-46 0 -78.5 -32.5t-32.5 -76.5q0 -45 32.5 -76.5t78.5 -31.5
q45 0 76.5 31.5t31.5 76.5q0 44 -32 76.5t-76 32.5z" />
    <glyph glyph-name="AE" unicode="&#xc6;" horiz-adv-x="2064" 
d="M2013 362h10l-84 -362h-1013v10q82 0 105.5 50.5t23.5 175.5v309h-549q-77 -124 -90 -144q-49 -80 -69 -170.5t2 -155.5t87 -65v-10h-436v10q94 17 179 94.5t177 221.5l699 1108h819l70 -297h-11q-24 55 -56.5 101.5t-78.5 90.5t-109.5 69t-136.5 25h-51
q-35 0 -58.5 -9.5t-37 -25t-21 -46.5t-9.5 -61.5t-3 -82.5v-479h31q118 0 203.5 79t85.5 183h8v-535h-8q0 105 -85 184t-204 79h-31v-473q1 -51 3 -81.5t9.5 -62t21 -47t37 -25.5t58.5 -10h115q59 0 115 24t97.5 60.5t79 86t61.5 92.5t44 89zM512 555h543v862
q-21 -35 -543 -862z" />
    <glyph glyph-name="Ccedilla" unicode="&#xc7;" horiz-adv-x="1456" 
d="M950 -14q-12 0 -36 -1t-37 -1q-5 -15 -13 -31q105 9 153 -34.5t27 -111.5q-16 -52 -64.5 -73.5t-113.5 0.5q-40 10 -73 43v22q31 -44 61 -55q28 -7 48 16.5t26 65.5q4 30 5 57.5t-18 46.5t-59 17q1 4 5 15.5t7 21.5q-121 1 -232 25.5t-211 77.5t-176 129.5t-124.5 187.5
t-58.5 245q-10 143 25 267t104 215.5t166.5 159.5t213 107t244.5 50q155 15 373 -43q33 -9 54 -12.5t45 -1.5t37.5 14t22.5 38t9 66h10v-516h-10q0 41 -21 98.5t-66 122t-106.5 118t-153 85t-194.5 23.5q-111 -10 -195.5 -85.5t-129.5 -189t-63 -242t-7 -255.5
q8 -100 33.5 -195.5t70.5 -183.5t104 -153.5t141 -103.5t175 -36q246 8 447 199v-31q-97 -79 -195.5 -123t-249.5 -55z" />
    <glyph glyph-name="Egrave" unicode="&#xc8;" horiz-adv-x="1200" 
d="M1149 362h10l-84 -362h-1014v10q82 0 105.5 50t23.5 176v962q0 125 -23.5 175t-105.5 50v11h949l69 -297h-10q-24 55 -56.5 101.5t-78.5 90.5t-109.5 69t-136.5 25h-51q-35 0 -58.5 -10t-37 -25.5t-21 -46.5t-9.5 -61.5t-3 -81.5v-479h31q117 0 201.5 79.5t84.5 184.5h11
v-537h-11q0 106 -84.5 185.5t-201.5 79.5h-31v-475q1 -52 3 -82.5t9.5 -61.5t21 -47t37 -25.5t58.5 -9.5h115q73 0 139.5 35t116 93t82.5 111.5t59 112.5zM578 1802l55 -227h-10l-228 227h183z" />
    <glyph glyph-name="Eacute" unicode="&#xc9;" horiz-adv-x="1200" 
d="M1149 362h10l-84 -362h-1014v10q82 0 105.5 50t23.5 176v962q0 125 -23.5 175t-105.5 50v11h949l69 -297h-10q-24 55 -56.5 101.5t-78.5 90.5t-109.5 69t-136.5 25h-51q-35 0 -58.5 -10t-37 -25.5t-21 -46.5t-9.5 -61.5t-3 -81.5v-479h31q117 0 201.5 79.5t84.5 184.5h11
v-537h-11q0 106 -84.5 185.5t-201.5 79.5h-31v-475q1 -52 3 -82.5t9.5 -61.5t21 -47t37 -25.5t58.5 -9.5h115q73 0 139.5 35t116 93t82.5 111.5t59 112.5zM662 1575l53 227h184l-227 -227h-10z" />
    <glyph glyph-name="Ecircumflex" unicode="&#xca;" horiz-adv-x="1200" 
d="M1149 362h10l-84 -362h-1014v10q82 0 105.5 50t23.5 176v962q0 125 -23.5 175t-105.5 50v11h949l69 -297h-10q-24 55 -56.5 101.5t-78.5 90.5t-109.5 69t-136.5 25h-51q-35 0 -58.5 -10t-37 -25.5t-21 -46.5t-9.5 -61.5t-3 -81.5v-479h31q117 0 201.5 79.5t84.5 184.5h11
v-537h-11q0 106 -84.5 185.5t-201.5 79.5h-31v-475q1 -52 3 -82.5t9.5 -61.5t21 -47t37 -25.5t58.5 -9.5h115q73 0 139.5 35t116 93t82.5 111.5t59 112.5zM737 1802l195 -227h-10l-244 113l-242 -113h-10l192 227h119z" />
    <glyph glyph-name="Edieresis" unicode="&#xcb;" horiz-adv-x="1200" 
d="M1149 362h10l-84 -362h-1014v10q82 0 105.5 50t23.5 176v962q0 125 -23.5 175t-105.5 50v11h949l69 -297h-10q-24 55 -56.5 101.5t-78.5 90.5t-109.5 69t-136.5 25h-51q-35 0 -58.5 -10t-37 -25.5t-21 -46.5t-9.5 -61.5t-3 -81.5v-479h31q117 0 201.5 79.5t84.5 184.5h11
v-537h-11q0 106 -84.5 185.5t-201.5 79.5h-31v-475q1 -52 3 -82.5t9.5 -61.5t21 -47t37 -25.5t58.5 -9.5h115q73 0 139.5 35t116 93t82.5 111.5t59 112.5zM555 1786q34 0 59 -25t25 -59q0 -35 -25 -60.5t-59 -25.5q-35 0 -60.5 25.5t-25.5 60.5q0 34 25.5 59t60.5 25z
M762 1786q35 0 59.5 -25t24.5 -59q0 -35 -24.5 -60.5t-59.5 -25.5q-34 0 -59 25.5t-25 60.5q0 34 25 59t59 25z" />
    <glyph glyph-name="Igrave" unicode="&#xcc;" 
d="M508 1198v-962q0 -126 23.5 -176t105.5 -50v-10h-576v10q35 0 58.5 9.5t37 25.5t21 47t9.5 61.5t3 82.5v962q-1 51 -3 81.5t-9.5 61.5t-21 46.5t-37 25.5t-58.5 10v11h576v-11q-82 0 -105.5 -50t-23.5 -175zM309 1802l56 -227h-11l-227 227h182z" />
    <glyph glyph-name="Iacute" unicode="&#xcd;" 
d="M508 1198v-962q0 -126 23.5 -176t105.5 -50v-10h-576v10q35 0 58.5 9.5t37 25.5t21 47t9.5 61.5t3 82.5v962q-1 51 -3 81.5t-9.5 61.5t-21 46.5t-37 25.5t-58.5 10v11h576v-11q-82 0 -105.5 -50t-23.5 -175zM311 1575l54 227h184l-227 -227h-11z" />
    <glyph glyph-name="Icircumflex" unicode="&#xce;" 
d="M508 1198v-962q0 -126 23.5 -176t105.5 -50v-10h-576v10q35 0 58.5 9.5t37 25.5t21 47t9.5 61.5t3 82.5v962q-1 51 -3 81.5t-9.5 61.5t-21 46.5t-37 25.5t-58.5 10v11h576v-11q-82 0 -105.5 -50t-23.5 -175zM408 1802l194 -227h-10l-244 113l-242 -113h-10l193 227h119z
" />
    <glyph glyph-name="Idieresis" unicode="&#xcf;" 
d="M508 1198v-962q0 -126 23.5 -176t105.5 -50v-10h-576v10q35 0 58.5 9.5t37 25.5t21 47t9.5 61.5t3 82.5v962q-1 51 -3 81.5t-9.5 61.5t-21 46.5t-37 25.5t-58.5 10v11h576v-11q-82 0 -105.5 -50t-23.5 -175zM246 1786q34 0 59 -25t25 -59q0 -35 -25 -60.5t-59 -25.5
q-35 0 -60.5 25.5t-25.5 60.5q0 34 25.5 59t60.5 25zM453 1786q35 0 59.5 -25t24.5 -59q0 -35 -24.5 -60.5t-59.5 -25.5q-34 0 -59 25.5t-25 60.5q0 34 25 59t59 25z" />
    <glyph glyph-name="Eth" unicode="&#xd0;" horiz-adv-x="1531" 
d="M766 1434q162 0 295 -54t222.5 -149.5t138 -227t48.5 -286.5t-48.5 -286.5t-138 -227t-222.5 -149.5t-295 -54h-705v10q35 0 58.5 9.5t37 25.5t21 47t9.5 61.5t3 82.5v473h-129v10h129v479q-1 52 -3 82.5t-9.5 61.5t-21 46.5t-37 25t-58.5 9.5v11h705zM676 10
q101 0 178 38t134 120.5t86.5 220t29.5 328.5t-29.5 328.5t-86.5 219.5t-134 120t-178 38h-39q-82 0 -105.5 -49.5t-23.5 -175.5v-479h317v-10h-317v-473q0 -126 23.5 -176t105.5 -50h39z" />
    <glyph glyph-name="Ntilde" unicode="&#xd1;" horiz-adv-x="1605" 
d="M1049 1434h516v-11q-108 0 -180 -104.5t-72 -282.5v-1036h-60q-34 40 -479.5 612t-468.5 605v-820q0 -178 72 -282.5t180 -104.5v-10h-516v10q108 0 181 105t73 282v834q-63 88 -121.5 140t-118.5 52v11h477l771 -1004v606q0 177 -73 282t-181 105v11zM942 1616
q-35 2 -106.5 22.5t-94.5 22.5q-32 4 -53.5 -6.5t-28.5 -26.5h-10q12 148 92 158q21 2 62 -7t84.5 -20.5t54.5 -13.5q39 -6 55.5 1t22.5 32h10q4 -29 -2 -65t-28 -67.5t-58 -29.5z" />
    <glyph glyph-name="Ograve" unicode="&#xd2;" horiz-adv-x="1714" 
d="M1651 801q13 -171 -34.5 -318.5t-142 -252t-231 -169.5t-299.5 -79q-164 -13 -317 28.5t-272.5 127t-197 220t-91.5 297.5q-14 165 34 308t143.5 245.5t232.5 166t300 77.5q131 10 256 -13t232 -78t190.5 -135t135 -189.5t61.5 -235.5zM944 -8q117 13 200.5 117.5
t120.5 273.5t23 373q-11 149 -58.5 281.5t-117.5 223t-159 139.5t-179 42q-117 -12 -203.5 -118.5t-123.5 -276t-17 -363.5q20 -196 95.5 -358t187 -252.5t231.5 -81.5zM711 1802l55 -227h-10l-228 227h183z" />
    <glyph glyph-name="Oacute" unicode="&#xd3;" horiz-adv-x="1714" 
d="M1651 801q13 -171 -34.5 -318.5t-142 -252t-231 -169.5t-299.5 -79q-164 -13 -317 28.5t-272.5 127t-197 220t-91.5 297.5q-14 165 34 308t143.5 245.5t232.5 166t300 77.5q131 10 256 -13t232 -78t190.5 -135t135 -189.5t61.5 -235.5zM944 -8q117 13 200.5 117.5
t120.5 273.5t23 373q-11 149 -58.5 281.5t-117.5 223t-159 139.5t-179 42q-117 -12 -203.5 -118.5t-123.5 -276t-17 -363.5q20 -196 95.5 -358t187 -252.5t231.5 -81.5zM774 1575l53 227h185l-228 -227h-10z" />
    <glyph glyph-name="Ocircumflex" unicode="&#xd4;" horiz-adv-x="1714" 
d="M1651 801q13 -171 -34.5 -318.5t-142 -252t-231 -169.5t-299.5 -79q-164 -13 -317 28.5t-272.5 127t-197 220t-91.5 297.5q-14 165 34 308t143.5 245.5t232.5 166t300 77.5q131 10 256 -13t232 -78t190.5 -135t135 -189.5t61.5 -235.5zM944 -8q117 13 200.5 117.5
t120.5 273.5t23 373q-11 149 -58.5 281.5t-117.5 223t-159 139.5t-179 42q-117 -12 -203.5 -118.5t-123.5 -276t-17 -363.5q20 -196 95.5 -358t187 -252.5t231.5 -81.5zM850 1802l194 -227h-10l-243 113l-242 -113h-10l192 227h119z" />
    <glyph glyph-name="Otilde" unicode="&#xd5;" horiz-adv-x="1714" 
d="M1651 801q13 -171 -34.5 -318.5t-142 -252t-231 -169.5t-299.5 -79q-164 -13 -317 28.5t-272.5 127t-197 220t-91.5 297.5q-14 165 34 308t143.5 245.5t232.5 166t300 77.5q131 10 256 -13t232 -78t190.5 -135t135 -189.5t61.5 -235.5zM944 -8q117 13 200.5 117.5
t120.5 273.5t23 373q-11 149 -58.5 281.5t-117.5 223t-159 139.5t-179 42q-117 -12 -203.5 -118.5t-123.5 -276t-17 -363.5q20 -196 95.5 -358t187 -252.5t231.5 -81.5zM870 1616q-35 2 -106 22.5t-94 22.5q-32 4 -53.5 -6.5t-28.5 -26.5h-10q12 148 92 158q21 2 62 -7
t84 -20.5t54 -13.5q39 -6 55.5 1t22.5 32h10q4 -29 -2 -65t-28 -67.5t-58 -29.5z" />
    <glyph glyph-name="Odieresis" unicode="&#xd6;" horiz-adv-x="1714" 
d="M1651 801q13 -171 -34.5 -318.5t-142 -252t-231 -169.5t-299.5 -79q-164 -13 -317 28.5t-272.5 127t-197 220t-91.5 297.5q-14 165 34 308t143.5 245.5t232.5 166t300 77.5q131 10 256 -13t232 -78t190.5 -135t135 -189.5t61.5 -235.5zM944 -8q117 13 200.5 117.5
t120.5 273.5t23 373q-11 149 -58.5 281.5t-117.5 223t-159 139.5t-179 42q-117 -12 -203.5 -118.5t-123.5 -276t-17 -363.5q20 -196 95.5 -358t187 -252.5t231.5 -81.5zM668 1786q34 0 59 -25t25 -59q0 -35 -25 -60.5t-59 -25.5q-35 0 -60.5 25.5t-25.5 60.5q0 34 25.5 59
t60.5 25zM874 1786q35 0 59.5 -25t24.5 -59q0 -35 -24.5 -60.5t-59.5 -25.5q-34 0 -58.5 25.5t-24.5 60.5q0 34 24.5 59t58.5 25z" />
    <glyph glyph-name="multiply" unicode="&#xd7;" horiz-adv-x="536" 
d="M475 774l-201 -199l201 -200l-8 -6l-199 198l-200 -198l-7 6l199 200l-199 199l7 8l200 -200l199 200z" />
    <glyph glyph-name="Oslash" unicode="&#xd8;" horiz-adv-x="1714" 
d="M1651 801q17 -166 -29.5 -312.5t-142.5 -252.5t-234.5 -173t-300.5 -81q-138 -12 -274 16l-31 -109h-10l30 111q-244 55 -405.5 227.5t-187.5 427.5q-17 164 30.5 307t144 245.5t234.5 166.5t301 78q137 9 271 -16l28 106h10l-28 -108q244 -52 406 -220.5t188 -412.5z
M430 684q18 -184 87 -339t169 -249l338 1250q-117 105 -250 96q-117 -12 -203.5 -118.5t-123.5 -276t-17 -363.5zM944 -8q117 13 203.5 121t123.5 278.5t17 364.5q-20 184 -88.5 337.5t-167.5 245.5l-338 -1249q119 -110 250 -98z" />
    <glyph glyph-name="Ugrave" unicode="&#xd9;" horiz-adv-x="1439" 
d="M1100 1434h278v-11q-32 0 -55.5 -7.5t-38 -27t-23 -39t-12.5 -58.5t-5 -70t-1 -88v-697q-1 -92 -26.5 -169.5t-66.5 -129.5t-95 -88t-110.5 -52.5t-113.5 -16.5q-106 0 -193.5 12t-173 45.5t-144 86.5t-94.5 140.5t-36 202.5v731q0 126 -23.5 175.5t-105.5 49.5v11h586
v-11q-35 0 -58.5 -9.5t-37 -25t-21 -46.5t-9.5 -61.5t-3 -82.5v-792q0 -187 79.5 -299.5t233.5 -112.5q171 0 286.5 126t115.5 326v687q0 50 -0.5 76t-3 63t-7.5 55t-14.5 40t-24 32t-35 17t-48.5 7v11zM844 1802l55 -227h-10l-227 227h182z" />
    <glyph glyph-name="Uacute" unicode="&#xda;" horiz-adv-x="1439" 
d="M1100 1434h278v-11q-32 0 -55.5 -7.5t-38 -27t-23 -39t-12.5 -58.5t-5 -70t-1 -88v-697q-1 -92 -26.5 -169.5t-66.5 -129.5t-95 -88t-110.5 -52.5t-113.5 -16.5q-106 0 -193.5 12t-173 45.5t-144 86.5t-94.5 140.5t-36 202.5v731q0 126 -23.5 175.5t-105.5 49.5v11h586
v-11q-35 0 -58.5 -9.5t-37 -25t-21 -46.5t-9.5 -61.5t-3 -82.5v-792q0 -187 79.5 -299.5t233.5 -112.5q171 0 286.5 126t115.5 326v687q0 50 -0.5 76t-3 63t-7.5 55t-14.5 40t-24 32t-35 17t-48.5 7v11zM846 1575l53 227h184l-227 -227h-10z" />
    <glyph glyph-name="Ucircumflex" unicode="&#xdb;" horiz-adv-x="1439" 
d="M1100 1434h278v-11q-32 0 -55.5 -7.5t-38 -27t-23 -39t-12.5 -58.5t-5 -70t-1 -88v-697q-1 -92 -26.5 -169.5t-66.5 -129.5t-95 -88t-110.5 -52.5t-113.5 -16.5q-106 0 -193.5 12t-173 45.5t-144 86.5t-94.5 140.5t-36 202.5v731q0 126 -23.5 175.5t-105.5 49.5v11h586
v-11q-35 0 -58.5 -9.5t-37 -25t-21 -46.5t-9.5 -61.5t-3 -82.5v-792q0 -187 79.5 -299.5t233.5 -112.5q171 0 286.5 126t115.5 326v687q0 50 -0.5 76t-3 63t-7.5 55t-14.5 40t-24 32t-35 17t-48.5 7v11zM922 1802l194 -227h-10l-244 113l-241 -113h-11l193 227h119z" />
    <glyph glyph-name="Udieresis" unicode="&#xdc;" horiz-adv-x="1439" 
d="M1100 1434h278v-11q-32 0 -55.5 -7.5t-38 -27t-23 -39t-12.5 -58.5t-5 -70t-1 -88v-697q-1 -92 -26.5 -169.5t-66.5 -129.5t-95 -88t-110.5 -52.5t-113.5 -16.5q-106 0 -193.5 12t-173 45.5t-144 86.5t-94.5 140.5t-36 202.5v731q0 126 -23.5 175.5t-105.5 49.5v11h586
v-11q-35 0 -58.5 -9.5t-37 -25t-21 -46.5t-9.5 -61.5t-3 -82.5v-792q0 -187 79.5 -299.5t233.5 -112.5q171 0 286.5 126t115.5 326v687q0 50 -0.5 76t-3 63t-7.5 55t-14.5 40t-24 32t-35 17t-48.5 7v11zM780 1786q34 0 59 -25t25 -59q0 -35 -25 -60.5t-59 -25.5
q-35 0 -60.5 25.5t-25.5 60.5q0 34 25.5 59t60.5 25zM987 1786q35 0 59.5 -25t24.5 -59q0 -35 -24.5 -60.5t-59.5 -25.5q-34 0 -59 25.5t-25 60.5q0 34 25 59t59 25z" />
    <glyph glyph-name="Yacute" unicode="&#xdd;" horiz-adv-x="1507" 
d="M1010 1434h446v-11q-100 -17 -184 -100.5t-133 -216.5l-185 -485v-385q1 -51 3 -81.5t9.5 -62t21 -47t37 -25.5t58.5 -10v-10h-575v10q82 0 105.5 50.5t23.5 175.5v356q-249 465 -272 510q-169 321 -314 321v11h596v-11q-28 0 -41 -18t-11 -46.5t10.5 -57.5t21.5 -56
q20 -38 162 -314t157 -306q5 14 70.5 188t81.5 219q34 96 38.5 185t-28 147.5t-98.5 58.5v11zM840 1575l53 227h184l-227 -227h-10z" />
    <glyph glyph-name="Thorn" unicode="&#xde;" horiz-adv-x="1228" 
d="M711 1124q62 0 124 -14t122.5 -45.5t106.5 -77.5t74.5 -115.5t28.5 -154.5t-28.5 -154.5t-75 -116t-109 -78t-129 -45.5t-135.5 -14h-182v-73q0 -126 23 -176t104 -50v-10h-574v10q35 0 58.5 9.5t37 25.5t21 47t9.5 61.5t3 82.5v962q-1 52 -3 82.5t-9.5 61.5t-21 46.5
t-37 25t-58.5 9.5v11h574v-11q-81 0 -104 -49.5t-23 -175.5v-74h203zM662 319q37 0 65.5 15.5t46.5 46.5t29.5 65.5t16.5 84.5t7 90.5t2 95.5q0 100 -16 187t-55.5 148.5t-95.5 61.5h-154v-795h154z" />
    <glyph glyph-name="germandbls" unicode="&#xdf;" horiz-adv-x="1443" 
d="M1366 342q15 -51 15.5 -102t-23.5 -97.5t-62.5 -82t-100 -57t-136.5 -21.5q-84 0 -174 38q-26 11 -52.5 15t-55 -0.5t-46.5 -32t-18 -76.5h-11v516h11q0 -46 24.5 -121t64.5 -149.5t99 -128t119 -53.5q28 0 49 22t30 60.5t-0.5 98t-39.5 126.5q-27 61 -69 116t-78 91.5
t-72.5 77.5t-55.5 84t-23 99t21 135t80 181q43 86 40.5 160.5t-48.5 129t-123 69.5q-109 22 -166 -63.5t-57 -280.5v-860q1 -52 3 -82.5t9.5 -61.5t21 -47t37 -25.5t58.5 -9.5v-10h-576v10q82 0 105.5 50t23.5 176v835q0 86 25 155.5t67.5 114.5t97 75.5t115.5 42t121 10.5
t115 -15q69 -18 113 -59.5t58 -94t7.5 -109.5t-32.5 -110q-45 -90 -48 -161t29.5 -120.5t83 -89.5t115 -78t124 -76t111 -93.5t74.5 -120.5z" />
    <glyph glyph-name="agrave" unicode="&#xe0;" horiz-adv-x="1136" 
d="M1057 -6q41 0 69 22v-12q-43 -24 -104 -24q-329 0 -367 190q-65 -138 -184 -172q-48 -15 -102.5 -19.5t-110 4t-99.5 31.5t-71 69t-25 110q2 61 26.5 105t60.5 68t89.5 42t102.5 26.5t112.5 22t106.5 28.5q58 21 88 45v189v33v51.5t-1 47t-3.5 42.5t-7 37.5t-11.5 32
t-17.5 26t-24.5 19.5t-32.5 12t-41.5 4q-96 0 -159.5 -30.5t-88.5 -80.5q-12 -21 -6.5 -43t16 -35t24.5 -33t19 -38q13 -43 -17.5 -77.5t-82.5 -24.5q-48 9 -68.5 59t3.5 113q14 32 41.5 63.5t71 63.5t109.5 51.5t144 19.5q63 0 120.5 -8.5t118 -32.5t104 -61t71.5 -99
t28 -141v-477q0 -49 1.5 -77t6.5 -59t15.5 -46.5t29 -26t46.5 -10.5zM506 20q90 42 147 164q-4 24 -4 39v295q-29 -19 -78 -37q-10 -4 -37.5 -13.5t-39.5 -14t-35.5 -16t-35.5 -21.5t-29 -27.5t-26 -37.5t-16.5 -48.5t-9.5 -62.5q-11 -144 31 -205t133 -15zM535 1393
l55 -228h-10l-228 228h183z" />
    <glyph glyph-name="aacute" unicode="&#xe1;" horiz-adv-x="1136" 
d="M1057 -6q41 0 69 22v-12q-43 -24 -104 -24q-329 0 -367 190q-65 -138 -184 -172q-48 -15 -102.5 -19.5t-110 4t-99.5 31.5t-71 69t-25 110q2 61 26.5 105t60.5 68t89.5 42t102.5 26.5t112.5 22t106.5 28.5q58 21 88 45v189v33v51.5t-1 47t-3.5 42.5t-7 37.5t-11.5 32
t-17.5 26t-24.5 19.5t-32.5 12t-41.5 4q-96 0 -159.5 -30.5t-88.5 -80.5q-12 -21 -6.5 -43t16 -35t24.5 -33t19 -38q13 -43 -17.5 -77.5t-82.5 -24.5q-48 9 -68.5 59t3.5 113q14 32 41.5 63.5t71 63.5t109.5 51.5t144 19.5q63 0 120.5 -8.5t118 -32.5t104 -61t71.5 -99
t28 -141v-477q0 -49 1.5 -77t6.5 -59t15.5 -46.5t29 -26t46.5 -10.5zM506 20q90 42 147 164q-4 24 -4 39v295q-29 -19 -78 -37q-10 -4 -37.5 -13.5t-39.5 -14t-35.5 -16t-35.5 -21.5t-29 -27.5t-26 -37.5t-16.5 -48.5t-9.5 -62.5q-11 -144 31 -205t133 -15zM537 1165l53 228
h184l-227 -228h-10z" />
    <glyph glyph-name="acircumflex" unicode="&#xe2;" horiz-adv-x="1136" 
d="M1057 -6q41 0 69 22v-12q-43 -24 -104 -24q-329 0 -367 190q-65 -138 -184 -172q-48 -15 -102.5 -19.5t-110 4t-99.5 31.5t-71 69t-25 110q2 61 26.5 105t60.5 68t89.5 42t102.5 26.5t112.5 22t106.5 28.5q58 21 88 45v189v33v51.5t-1 47t-3.5 42.5t-7 37.5t-11.5 32
t-17.5 26t-24.5 19.5t-32.5 12t-41.5 4q-96 0 -159.5 -30.5t-88.5 -80.5q-12 -21 -6.5 -43t16 -35t24.5 -33t19 -38q13 -43 -17.5 -77.5t-82.5 -24.5q-48 9 -68.5 59t3.5 113q14 32 41.5 63.5t71 63.5t109.5 51.5t144 19.5q63 0 120.5 -8.5t118 -32.5t104 -61t71.5 -99
t28 -141v-477q0 -49 1.5 -77t6.5 -59t15.5 -46.5t29 -26t46.5 -10.5zM506 20q90 42 147 164q-4 24 -4 39v295q-29 -19 -78 -37q-10 -4 -37.5 -13.5t-39.5 -14t-35.5 -16t-35.5 -21.5t-29 -27.5t-26 -37.5t-16.5 -48.5t-9.5 -62.5q-11 -144 31 -205t133 -15zM651 1393
l195 -228h-10l-244 113l-242 -113h-10l192 228h119z" />
    <glyph glyph-name="atilde" unicode="&#xe3;" horiz-adv-x="1136" 
d="M1057 -6q41 0 69 22v-12q-43 -24 -104 -24q-329 0 -367 190q-65 -138 -184 -172q-48 -15 -102.5 -19.5t-110 4t-99.5 31.5t-71 69t-25 110q2 61 26.5 105t60.5 68t89.5 42t102.5 26.5t112.5 22t106.5 28.5q58 21 88 45v189v33v51.5t-1 47t-3.5 42.5t-7 37.5t-11.5 32
t-17.5 26t-24.5 19.5t-32.5 12t-41.5 4q-96 0 -159.5 -30.5t-88.5 -80.5q-12 -21 -6.5 -43t16 -35t24.5 -33t19 -38q13 -43 -17.5 -77.5t-82.5 -24.5q-48 9 -68.5 59t3.5 113q14 32 41.5 63.5t71 63.5t109.5 51.5t144 19.5q63 0 120.5 -8.5t118 -32.5t104 -61t71.5 -99
t28 -141v-477q0 -49 1.5 -77t6.5 -59t15.5 -46.5t29 -26t46.5 -10.5zM506 20q90 42 147 164q-4 24 -4 39v295q-29 -19 -78 -37q-10 -4 -37.5 -13.5t-39.5 -14t-35.5 -16t-35.5 -21.5t-29 -27.5t-26 -37.5t-16.5 -48.5t-9.5 -62.5q-11 -144 31 -205t133 -15zM651 1206
q-35 2 -106 22.5t-94 22.5q-32 4 -53.5 -6t-28.5 -26h-11q11 147 93 157q21 2 62 -7t84 -20.5t54 -13.5q39 -6 55.5 1t22.5 32h10q4 -29 -2 -65t-28 -67.5t-58 -29.5z" />
    <glyph glyph-name="adieresis" unicode="&#xe4;" horiz-adv-x="1136" 
d="M1057 -6q41 0 69 22v-12q-43 -24 -104 -24q-329 0 -367 190q-65 -138 -184 -172q-48 -15 -102.5 -19.5t-110 4t-99.5 31.5t-71 69t-25 110q2 61 26.5 105t60.5 68t89.5 42t102.5 26.5t112.5 22t106.5 28.5q58 21 88 45v189v33v51.5t-1 47t-3.5 42.5t-7 37.5t-11.5 32
t-17.5 26t-24.5 19.5t-32.5 12t-41.5 4q-96 0 -159.5 -30.5t-88.5 -80.5q-12 -21 -6.5 -43t16 -35t24.5 -33t19 -38q13 -43 -17.5 -77.5t-82.5 -24.5q-48 9 -68.5 59t3.5 113q14 32 41.5 63.5t71 63.5t109.5 51.5t144 19.5q63 0 120.5 -8.5t118 -32.5t104 -61t71.5 -99
t28 -141v-477q0 -49 1.5 -77t6.5 -59t15.5 -46.5t29 -26t46.5 -10.5zM506 20q90 42 147 164q-4 24 -4 39v295q-29 -19 -78 -37q-10 -4 -37.5 -13.5t-39.5 -14t-35.5 -16t-35.5 -21.5t-29 -27.5t-26 -37.5t-16.5 -48.5t-9.5 -62.5q-11 -144 31 -205t133 -15zM492 1376
q34 0 58.5 -25t24.5 -59q0 -35 -24.5 -60.5t-58.5 -25.5q-35 0 -60.5 25.5t-25.5 60.5q0 34 25.5 59t60.5 25zM698 1376q35 0 59.5 -25t24.5 -59q0 -35 -24.5 -60.5t-59.5 -25.5q-34 0 -59 25.5t-25 60.5q0 34 25 59t59 25z" />
    <glyph glyph-name="aring" unicode="&#xe5;" horiz-adv-x="1136" 
d="M1057 -6q41 0 69 22v-12q-43 -24 -104 -24q-329 0 -367 190q-65 -138 -184 -172q-48 -15 -102.5 -19.5t-110 4t-99.5 31.5t-71 69t-25 110q2 61 26.5 105t60.5 68t89.5 42t102.5 26.5t112.5 22t106.5 28.5q58 21 88 45v189v33v51.5t-1 47t-3.5 42.5t-7 37.5t-11.5 32
t-17.5 26t-24.5 19.5t-32.5 12t-41.5 4q-96 0 -159.5 -30.5t-88.5 -80.5q-12 -21 -6.5 -43t16 -35t24.5 -33t19 -38q13 -43 -17.5 -77.5t-82.5 -24.5q-48 9 -68.5 59t3.5 113q14 32 41.5 63.5t71 63.5t109.5 51.5t144 19.5q63 0 120.5 -8.5t118 -32.5t104 -61t71.5 -99
t28 -141v-477q0 -49 1.5 -77t6.5 -59t15.5 -46.5t29 -26t46.5 -10.5zM506 20q90 42 147 164q-4 24 -4 39v295q-29 -19 -78 -37q-10 -4 -37.5 -13.5t-39.5 -14t-35.5 -16t-35.5 -21.5t-29 -27.5t-26 -37.5t-16.5 -48.5t-9.5 -62.5q-11 -144 31 -205t133 -15zM553 1141
q-49 0 -84 34.5t-35 84.5q0 49 34.5 83.5t84.5 34.5t84.5 -34.5t34.5 -83.5q0 -50 -35 -84.5t-84 -34.5zM553 1368q-46 0 -78.5 -32t-32.5 -76q0 -46 32.5 -77.5t78.5 -31.5q45 0 77 32t32 77q0 44 -32.5 76t-76.5 32z" />
    <glyph glyph-name="ae" unicode="&#xe6;" horiz-adv-x="1779" 
d="M1729 682h-746q-13 -108 -4 -207q7 -96 31.5 -180t66 -154t108.5 -110.5t150 -40.5q86 -1 187 38.5t157 90.5v-25q-163 -102 -342 -112q-96 -5 -190.5 10.5t-183 52.5t-158.5 105t-105 159q-61 -261 -231 -311q-48 -14 -102.5 -18.5t-110 4.5t-99.5 32t-70.5 69
t-23.5 110q2 60 26.5 104t60.5 68t89.5 42t102 26.5t112 22t105.5 27.5q73 26 109 62v172q0 43 -1 72t-4.5 64t-10 57.5t-18.5 45.5t-28.5 36.5t-41 21.5t-56.5 8q-96 0 -159.5 -30.5t-86.5 -80.5q-13 -21 -7.5 -43t15.5 -34.5t24.5 -33t20.5 -38.5q11 -43 -19.5 -76.5
t-82.5 -23.5q-48 8 -69 57.5t3 112.5q14 31 42 63t71.5 63t110 50.5t143.5 19.5q241 0 356 -112q144 102 363 112q213 9 344 -80t152 -268zM1233 1022q-107 -6 -168 -97t-82 -235h459q-2 70 -13 126.5t-34 106.5t-64 76.5t-98 22.5zM504 20q138 67 190 306q-23 75 -26 145
v64q-31 -28 -99 -54q-10 -4 -37.5 -13.5t-39.5 -14t-35.5 -15.5t-35.5 -21.5t-29 -28t-26 -37t-16.5 -47.5t-9.5 -62q-11 -144 31 -206t133 -16z" />
    <glyph glyph-name="ccedilla" unicode="&#xe7;" horiz-adv-x="1112" 
d="M735 -10q80 0 168.5 39t130.5 86v-25q-122 -95 -297 -106q-27 -2 -82 -2q-3 -8 -10 -29q105 9 153 -34.5t27 -111.5q-16 -52 -64.5 -73.5t-115.5 0.5q-40 11 -72 43v22q30 -43 62 -55q28 -7 48 16.5t26 65.5q4 30 5 57.5t-18.5 46.5t-60.5 17q2 4 6 14.5t8 20.5
q-85 3 -163.5 20t-153.5 54.5t-131.5 92.5t-93.5 138t-44 186q-7 109 23.5 201t86.5 154.5t133.5 108t161 68t171.5 27.5q96 5 185.5 -27t141.5 -73.5t74 -81.5q20 -37 20.5 -78t-20.5 -71.5t-59 -36.5q-61 -9 -95.5 29t-17.5 91q6 18 18 35t21.5 27t17 21.5t5.5 25
t-15 31.5q-32 47 -110.5 76.5t-165.5 23.5q-76 -6 -132.5 -57.5t-86 -131.5t-41.5 -172t-6 -188q7 -94 33 -179t70 -154t111 -110t148 -42z" />
    <glyph glyph-name="egrave" unicode="&#xe8;" horiz-adv-x="1177" 
d="M1126 682h-747q-16 -137 -10 -207q7 -95 32 -179.5t68.5 -154t111 -110t150.5 -41.5q88 0 189 39t155 90v-25q-163 -102 -342 -112q-91 -5 -181 9t-176.5 51t-154 93t-110.5 143t-48 193t25.5 197t85.5 155t129 110.5t156.5 69.5t169.5 27q212 9 343 -80t154 -268z
M629 1022q-107 -6 -168 -97.5t-82 -236.5h459q-2 71 -13 128t-34 107t-64 76.5t-98 22.5zM627 1393l55 -228h-10l-228 228h183z" />
    <glyph glyph-name="eacute" unicode="&#xe9;" horiz-adv-x="1177" 
d="M1126 682h-747q-16 -137 -10 -207q7 -95 32 -179.5t68.5 -154t111 -110t150.5 -41.5q88 0 189 39t155 90v-25q-163 -102 -342 -112q-91 -5 -181 9t-176.5 51t-154 93t-110.5 143t-48 193t25.5 197t85.5 155t129 110.5t156.5 69.5t169.5 27q212 9 343 -80t154 -268z
M629 1022q-107 -6 -168 -97.5t-82 -236.5h459q-2 71 -13 128t-34 107t-64 76.5t-98 22.5zM629 1165l53 228h184l-227 -228h-10z" />
    <glyph glyph-name="ecircumflex" unicode="&#xea;" horiz-adv-x="1177" 
d="M1126 682h-747q-16 -137 -10 -207q7 -95 32 -179.5t68.5 -154t111 -110t150.5 -41.5q88 0 189 39t155 90v-25q-163 -102 -342 -112q-91 -5 -181 9t-176.5 51t-154 93t-110.5 143t-48 193t25.5 197t85.5 155t129 110.5t156.5 69.5t169.5 27q212 9 343 -80t154 -268z
M629 1022q-107 -6 -168 -97.5t-82 -236.5h459q-2 71 -13 128t-34 107t-64 76.5t-98 22.5zM702 1393l195 -228h-10l-244 113l-242 -113h-10l193 228h118z" />
    <glyph glyph-name="edieresis" unicode="&#xeb;" horiz-adv-x="1177" 
d="M1126 682h-747q-16 -137 -10 -207q7 -95 32 -179.5t68.5 -154t111 -110t150.5 -41.5q88 0 189 39t155 90v-25q-163 -102 -342 -112q-91 -5 -181 9t-176.5 51t-154 93t-110.5 143t-48 193t25.5 197t85.5 155t129 110.5t156.5 69.5t169.5 27q212 9 343 -80t154 -268z
M629 1022q-107 -6 -168 -97.5t-82 -236.5h459q-2 71 -13 128t-34 107t-64 76.5t-98 22.5zM543 1376q34 0 59 -25t25 -59q0 -35 -25 -60.5t-59 -25.5q-35 0 -60.5 25.5t-25.5 60.5q0 34 25.5 59t60.5 25zM750 1376q35 0 59.5 -25t24.5 -59q0 -35 -24.5 -60.5t-59.5 -25.5
q-34 0 -59 25.5t-25 60.5q0 34 25 59t59 25z" />
    <glyph glyph-name="igrave" unicode="&#xec;" horiz-adv-x="649" 
d="M479 236v-3q0 -130 24.5 -176.5t104.5 -46.5v-10h-567v10q80 0 104.5 47.5t24.5 178.5v542q0 130 -24.5 176.5t-104.5 46.5v11h471v-11q-33 -18 -33 -307v-458zM305 1393l55 -228h-10l-227 228h182z" />
    <glyph glyph-name="iacute" unicode="&#xed;" horiz-adv-x="649" 
d="M479 236v-3q0 -130 24.5 -176.5t104.5 -46.5v-10h-567v10q80 0 104.5 47.5t24.5 178.5v542q0 130 -24.5 176.5t-104.5 46.5v11h471v-11q-33 -18 -33 -307v-458zM287 1165l53 228h184l-227 -228h-10z" />
    <glyph glyph-name="icircumflex" unicode="&#xee;" horiz-adv-x="649" 
d="M479 236v-3q0 -130 24.5 -176.5t104.5 -46.5v-10h-567v10q80 0 104.5 47.5t24.5 178.5v542q0 130 -24.5 176.5t-104.5 46.5v11h471v-11q-33 -18 -33 -307v-458zM362 1393l195 -228h-10l-244 113l-242 -113h-10l193 228h118z" />
    <glyph glyph-name="idieresis" unicode="&#xef;" horiz-adv-x="649" 
d="M479 236v-3q0 -130 24.5 -176.5t104.5 -46.5v-10h-567v10q80 0 104.5 47.5t24.5 178.5v542q0 130 -24.5 176.5t-104.5 46.5v11h471v-11q-33 -18 -33 -307v-458zM221 1376q34 0 59 -25t25 -59q0 -35 -25 -60.5t-59 -25.5q-35 0 -60.5 25.5t-25.5 60.5q0 34 25.5 59
t60.5 25zM428 1376q35 0 59.5 -25t24.5 -59q0 -35 -24.5 -60.5t-59.5 -25.5q-34 0 -59 25.5t-25 60.5q0 34 25 59t59 25z" />
    <glyph glyph-name="eth" unicode="&#xf0;" horiz-adv-x="1196" 
d="M750 1272q396 -271 383 -721q-7 -255 -130.5 -402.5t-338.5 -166.5q-155 -13 -282.5 35.5t-213 162t-102.5 277.5q-25 246 113.5 399t375.5 176q80 8 201 -49q-60 142 -107 217l-131 -92l-6 8l131 92q-78 119 -201 215v11q170 -68 299 -156l113 80l8 -6zM662 -10
q208 24 157 553q-8 84 -19 150.5t-31 131t-46 107t-65.5 67.5t-88.5 23q-95 -3 -145 -73.5t-57 -192t6 -285.5q25 -257 91 -378t198 -103z" />
    <glyph glyph-name="ntilde" unicode="&#xf1;" horiz-adv-x="1318" 
d="M1149 236v-3q0 -129 25 -176t104 -47v-10h-565v10q79 0 103 47.5t26 178.5v458v18q0 40 -0.5 60.5t-3 57.5t-7.5 58t-15 48t-24.5 41t-37.5 24.5t-52 10.5q-62 0 -123 -42t-96 -110q-4 -45 -4 -166v-458q0 -131 24.5 -178.5t104.5 -47.5v-10h-567v10q80 0 104.5 47.5
t24.5 178.5v542q0 131 -24.5 177t-104.5 46v11h473v-11q-23 -11 -31 -120q51 76 119.5 113.5t183.5 37.5q171 0 267 -93.5t96 -283.5v-419zM778 1206q-35 2 -106 22.5t-94 22.5q-32 4 -53.5 -6t-28.5 -26h-11q11 147 93 157q21 2 62 -7t84 -20.5t54 -13.5q39 -6 55.5 1
t22.5 32h10q4 -29 -2 -65t-28 -67.5t-58 -29.5z" />
    <glyph glyph-name="ograve" unicode="&#xf2;" horiz-adv-x="1294" 
d="M1231 557q7 -123 -35 -230t-116 -179t-169.5 -115.5t-199.5 -50.5q-85 -6 -170 6.5t-168 48t-148.5 90.5t-109.5 140t-52 190q-10 126 28.5 231t112 174.5t169.5 112t207 55.5q111 12 222.5 -13t205 -82t155.5 -155.5t68 -222.5zM711 -10q62 6 106.5 54.5t65.5 125
t28.5 173t-4.5 198.5q-21 221 -110 356t-215 125q-62 -6 -107 -55.5t-66.5 -126t-29 -173.5t5.5 -198q16 -143 59.5 -253.5t113 -172t153.5 -53.5zM627 1393l55 -228h-10l-228 228h183z" />
    <glyph glyph-name="oacute" unicode="&#xf3;" horiz-adv-x="1294" 
d="M1231 557q7 -123 -35 -230t-116 -179t-169.5 -115.5t-199.5 -50.5q-85 -6 -170 6.5t-168 48t-148.5 90.5t-109.5 140t-52 190q-10 126 28.5 231t112 174.5t169.5 112t207 55.5q111 12 222.5 -13t205 -82t155.5 -155.5t68 -222.5zM711 -10q62 6 106.5 54.5t65.5 125
t28.5 173t-4.5 198.5q-21 221 -110 356t-215 125q-62 -6 -107 -55.5t-66.5 -126t-29 -173.5t5.5 -198q16 -143 59.5 -253.5t113 -172t153.5 -53.5zM588 1165l53 228h184l-227 -228h-10z" />
    <glyph glyph-name="ocircumflex" unicode="&#xf4;" horiz-adv-x="1294" 
d="M1231 557q7 -123 -35 -230t-116 -179t-169.5 -115.5t-199.5 -50.5q-85 -6 -170 6.5t-168 48t-148.5 90.5t-109.5 140t-52 190q-10 126 28.5 231t112 174.5t169.5 112t207 55.5q111 12 222.5 -13t205 -82t155.5 -155.5t68 -222.5zM711 -10q62 6 106.5 54.5t65.5 125
t28.5 173t-4.5 198.5q-21 221 -110 356t-215 125q-62 -6 -107 -55.5t-66.5 -126t-29 -173.5t5.5 -198q16 -143 59.5 -253.5t113 -172t153.5 -53.5zM682 1393l195 -228h-11l-243 113l-242 -113h-10l192 228h119z" />
    <glyph glyph-name="otilde" unicode="&#xf5;" horiz-adv-x="1294" 
d="M1231 557q7 -123 -35 -230t-116 -179t-169.5 -115.5t-199.5 -50.5q-85 -6 -170 6.5t-168 48t-148.5 90.5t-109.5 140t-52 190q-10 126 28.5 231t112 174.5t169.5 112t207 55.5q111 12 222.5 -13t205 -82t155.5 -155.5t68 -222.5zM711 -10q62 6 106.5 54.5t65.5 125
t28.5 173t-4.5 198.5q-21 221 -110 356t-215 125q-62 -6 -107 -55.5t-66.5 -126t-29 -173.5t5.5 -198q16 -143 59.5 -253.5t113 -172t153.5 -53.5zM723 1206q-35 2 -106.5 22.5t-94.5 22.5q-32 4 -53.5 -6t-28.5 -26h-10q2 27 5.5 46t12.5 46.5t28 44t46 20.5q21 2 62 -7
t84.5 -20.5t54.5 -13.5q39 -6 55.5 1t22.5 32h10q4 -29 -2 -65t-28 -67.5t-58 -29.5z" />
    <glyph glyph-name="odieresis" unicode="&#xf6;" horiz-adv-x="1294" 
d="M1231 557q7 -123 -35 -230t-116 -179t-169.5 -115.5t-199.5 -50.5q-85 -6 -170 6.5t-168 48t-148.5 90.5t-109.5 140t-52 190q-10 126 28.5 231t112 174.5t169.5 112t207 55.5q111 12 222.5 -13t205 -82t155.5 -155.5t68 -222.5zM711 -10q62 6 106.5 54.5t65.5 125
t28.5 173t-4.5 198.5q-21 221 -110 356t-215 125q-62 -6 -107 -55.5t-66.5 -126t-29 -173.5t5.5 -198q16 -143 59.5 -253.5t113 -172t153.5 -53.5zM522 1376q34 0 59 -25t25 -59q0 -35 -25 -60.5t-59 -25.5q-35 0 -60.5 25.5t-25.5 60.5q0 34 25.5 59t60.5 25zM729 1376
q35 0 59.5 -25t24.5 -59q0 -35 -24.5 -60.5t-59.5 -25.5q-34 0 -59 25.5t-25 60.5q0 34 25 59t59 25z" />
    <glyph glyph-name="divide" unicode="&#xf7;" 
d="M61 580h576v-11h-576v11zM348 440q35 0 60.5 -24.5t25.5 -59.5t-25.5 -59.5t-60.5 -24.5q-34 0 -59 24.5t-25 59.5t25 59.5t59 24.5zM348 709q-34 0 -59 25t-25 59q0 35 25 59.5t59 24.5q35 0 60.5 -24.5t25.5 -59.5q0 -34 -25.5 -59t-60.5 -25z" />
    <glyph glyph-name="oslash" unicode="&#xf8;" horiz-adv-x="1294" 
d="M1231 557q9 -123 -32 -230t-116 -179t-171.5 -115.5t-200.5 -50.5q-97 -6 -197 12l-31 -113h-10l31 115q-86 18 -161 53.5t-138 91t-100.5 137t-41.5 179.5q-5 127 34 231t111.5 174t166.5 112.5t205 55.5q94 11 200 -8l31 111h10l-30 -113q85 -17 159.5 -55t135.5 -94.5
t99.5 -137.5t45.5 -176zM385 469q25 -258 141 -393l234 866q-82 88 -178 80q-62 -6 -107 -55.5t-66.5 -126t-29 -173.5t5.5 -198zM711 -10q62 6 107.5 54.5t67 125t28.5 173t-7 198.5q-32 261 -141 391l-234 -864q77 -87 179 -78z" />
    <glyph glyph-name="ugrave" unicode="&#xf9;" horiz-adv-x="1308" 
d="M1139 236v-3q0 -130 24.5 -176.5t104.5 -46.5v-10h-471v10q19 10 28 123q-51 -77 -119.5 -115t-183.5 -38q-170 0 -266 93.5t-96 284.5v420q0 131 -24.5 177t-104.5 46v11h473v-11q-35 -17 -35 -307v-377v-25v-59.5t2.5 -56.5t7.5 -56t15 -46.5t24.5 -40t36.5 -23.5
t51 -10q62 0 123 42t96 112q4 43 4 163v461q0 131 -24.5 177t-104.5 46v11h474v-11q-35 -17 -35 -307v-458zM651 1393l56 -228h-11l-227 228h182z" />
    <glyph glyph-name="uacute" unicode="&#xfa;" horiz-adv-x="1308" 
d="M1139 236v-3q0 -130 24.5 -176.5t104.5 -46.5v-10h-471v10q19 10 28 123q-51 -77 -119.5 -115t-183.5 -38q-170 0 -266 93.5t-96 284.5v420q0 131 -24.5 177t-104.5 46v11h473v-11q-35 -17 -35 -307v-377v-25v-59.5t2.5 -56.5t7.5 -56t15 -46.5t24.5 -40t36.5 -23.5
t51 -10q62 0 123 42t96 112q4 43 4 163v461q0 131 -24.5 177t-104.5 46v11h474v-11q-35 -17 -35 -307v-458zM633 1165l53 228h184l-227 -228h-10z" />
    <glyph glyph-name="ucircumflex" unicode="&#xfb;" horiz-adv-x="1308" 
d="M1139 236v-3q0 -130 24.5 -176.5t104.5 -46.5v-10h-471v10q19 10 28 123q-51 -77 -119.5 -115t-183.5 -38q-170 0 -266 93.5t-96 284.5v420q0 131 -24.5 177t-104.5 46v11h473v-11q-35 -17 -35 -307v-377v-25v-59.5t2.5 -56.5t7.5 -56t15 -46.5t24.5 -40t36.5 -23.5
t51 -10q62 0 123 42t96 112q4 43 4 163v461q0 131 -24.5 177t-104.5 46v11h474v-11q-35 -17 -35 -307v-458zM707 1393l194 -228h-10l-244 113l-241 -113h-11l193 228h119z" />
    <glyph glyph-name="udieresis" unicode="&#xfc;" horiz-adv-x="1308" 
d="M1139 236v-3q0 -130 24.5 -176.5t104.5 -46.5v-10h-471v10q19 10 28 123q-51 -77 -119.5 -115t-183.5 -38q-170 0 -266 93.5t-96 284.5v420q0 131 -24.5 177t-104.5 46v11h473v-11q-35 -17 -35 -307v-377v-25v-59.5t2.5 -56.5t7.5 -56t15 -46.5t24.5 -40t36.5 -23.5
t51 -10q62 0 123 42t96 112q4 43 4 163v461q0 131 -24.5 177t-104.5 46v11h474v-11q-35 -17 -35 -307v-458zM547 1376q34 0 59 -25t25 -59q0 -35 -25 -60.5t-59 -25.5q-35 0 -60.5 25.5t-25.5 60.5q0 34 25.5 59t60.5 25zM754 1376q35 0 59.5 -25t24.5 -59
q0 -35 -24.5 -60.5t-59.5 -25.5q-34 0 -59 25.5t-25 60.5q0 34 25 59t59 25z" />
    <glyph glyph-name="yacute" unicode="&#xfd;" horiz-adv-x="1114" 
d="M786 1012h308v-11q-135 -26 -211 -221q-10 -27 -136.5 -381t-144.5 -399q-76 -207 -166.5 -322.5t-187.5 -121.5q-57 -3 -103.5 26t-54.5 86q-4 36 21.5 63.5t60 30.5t68.5 -20q13 -10 23.5 -35t17 -47t18.5 -41.5t27 -20t43 18.5q57 47 118.5 151t104.5 232h-33
q-324 711 -369 809q-45 100 -65 129q-44 63 -105 63v11h474v-11q-52 0 -59 -29.5t26 -107.5q22 -54 125.5 -295.5t113.5 -265.5q56 154 156 424q15 40 19 87.5t-3 89t-29.5 69.5t-56.5 28v11zM643 1165l53 228h185l-228 -228h-10z" />
    <glyph glyph-name="thorn" unicode="&#xfe;" horiz-adv-x="1263" 
d="M727 811q96 0 180.5 -33.5t151 -97t105 -165.5t38.5 -230t-37.5 -230t-103.5 -166t-151 -97.5t-183 -33.5q-152 0 -250 117v-63q2 -131 26 -177.5t103 -46.5v-10h-565v10q80 0 104.5 47t24.5 177v946q0 131 -24.5 177t-104.5 46v10h471v-10q-32 -14 -35 -287
q98 117 250 117zM688 -225q62 0 103 34t63.5 103.5t31.5 158t9 214.5t-9 215t-31.5 159t-63.5 104t-103 34q-53 0 -110.5 -30.5t-100.5 -84.5v-8v-787q43 -53 100.5 -82.5t110.5 -29.5z" />
    <glyph glyph-name="ydieresis" unicode="&#xff;" horiz-adv-x="1114" 
d="M786 1012h308v-11q-135 -26 -211 -221q-10 -27 -136.5 -381t-144.5 -399q-76 -207 -166.5 -322.5t-187.5 -121.5q-57 -3 -103.5 26t-54.5 86q-4 36 21.5 63.5t60 30.5t68.5 -20q13 -10 23.5 -35t17 -47t18.5 -41.5t27 -20t43 18.5q57 47 118.5 151t104.5 232h-33
q-324 711 -369 809q-45 100 -65 129q-44 63 -105 63v11h474v-11q-52 0 -59 -29.5t26 -107.5q22 -54 125.5 -295.5t113.5 -265.5q56 154 156 424q15 40 19 87.5t-3 89t-29.5 69.5t-56.5 28v11zM557 1376q34 0 59 -25t25 -59q0 -35 -25 -60.5t-59 -25.5q-35 0 -60.5 25.5
t-25.5 60.5q0 34 25.5 59t60.5 25zM764 1376q35 0 59.5 -25t24.5 -59q0 -35 -24.5 -60.5t-59.5 -25.5q-34 0 -59 25.5t-25 60.5q0 34 25 59t59 25z" />
    <glyph glyph-name="Amacron" unicode="&#x100;" horiz-adv-x="1478" 
d="M1239 287q56 -134 88 -181q64 -96 152 -96v-10h-607v10q76 0 88 38t-30 151q-9 25 -28 76t-50 132.5t-53 139.5h-396q-13 -33 -26.5 -67.5t-21 -53.5t-9.5 -25q-32 -88 -36 -177t28.5 -151.5t97.5 -62.5v-10h-436v10q100 19 174 94t133 224l432 1106h45
q402 -1016 455 -1147zM406 555h389l-82.5 214.5t-76 198t-34.5 89.5q-33 -84 -101 -259t-95 -243zM582 1694h356v-11h-356v11z" />
    <glyph glyph-name="amacron" unicode="&#x101;" horiz-adv-x="1136" 
d="M1057 -6q41 0 69 22v-12q-43 -24 -104 -24q-329 0 -367 190q-65 -138 -184 -172q-48 -15 -102.5 -19.5t-110 4t-99.5 31.5t-71 69t-25 110q2 61 26.5 105t60.5 68t89.5 42t102.5 26.5t112.5 22t106.5 28.5q58 21 88 45v189v33v51.5t-1 47t-3.5 42.5t-7 37.5t-11.5 32
t-17.5 26t-24.5 19.5t-32.5 12t-41.5 4q-96 0 -159.5 -30.5t-88.5 -80.5q-12 -21 -6.5 -43t16 -35t24.5 -33t19 -38q13 -43 -17.5 -77.5t-82.5 -24.5q-48 9 -68.5 59t3.5 113q14 32 41.5 63.5t71 63.5t109.5 51.5t144 19.5q63 0 120.5 -8.5t118 -32.5t104 -61t71.5 -99
t28 -141v-477q0 -49 1.5 -77t6.5 -59t15.5 -46.5t29 -26t46.5 -10.5zM506 20q90 42 147 164q-4 24 -4 39v295q-29 -19 -78 -37q-10 -4 -37.5 -13.5t-39.5 -14t-35.5 -16t-35.5 -21.5t-29 -27.5t-26 -37.5t-16.5 -48.5t-9.5 -62.5q-11 -144 31 -205t133 -15zM375 1284h356
v-10h-356v10z" />
    <glyph glyph-name="Abreve" unicode="&#x102;" horiz-adv-x="1478" 
d="M1239 287q56 -134 88 -181q64 -96 152 -96v-10h-607v10q76 0 88 38t-30 151q-9 25 -28 76t-50 132.5t-53 139.5h-396q-13 -33 -26.5 -67.5t-21 -53.5t-9.5 -25q-32 -88 -36 -177t28.5 -151.5t97.5 -62.5v-10h-436v10q100 19 174 94t133 224l432 1106h45
q402 -1016 455 -1147zM406 555h389l-82.5 214.5t-76 198t-34.5 89.5q-33 -84 -101 -259t-95 -243zM827 1741h138q-6 -64 -39.5 -108t-76 -61.5t-87.5 -17.5t-87.5 17.5t-76 61.5t-39.5 108h137q7 -89 21 -134.5t45 -45.5t43.5 43t21.5 137z" />
    <glyph glyph-name="abreve" unicode="&#x103;" horiz-adv-x="1136" 
d="M1057 -6q41 0 69 22v-12q-43 -24 -104 -24q-329 0 -367 190q-65 -138 -184 -172q-48 -15 -102.5 -19.5t-110 4t-99.5 31.5t-71 69t-25 110q2 61 26.5 105t60.5 68t89.5 42t102.5 26.5t112.5 22t106.5 28.5q58 21 88 45v189v33v51.5t-1 47t-3.5 42.5t-7 37.5t-11.5 32
t-17.5 26t-24.5 19.5t-32.5 12t-41.5 4q-96 0 -159.5 -30.5t-88.5 -80.5q-12 -21 -6.5 -43t16 -35t24.5 -33t19 -38q13 -43 -17.5 -77.5t-82.5 -24.5q-48 9 -68.5 59t3.5 113q14 32 41.5 63.5t71 63.5t109.5 51.5t144 19.5q63 0 120.5 -8.5t118 -32.5t104 -61t71.5 -99
t28 -141v-477q0 -49 1.5 -77t6.5 -59t15.5 -46.5t29 -26t46.5 -10.5zM506 20q90 42 147 164q-4 24 -4 39v295q-29 -19 -78 -37q-10 -4 -37.5 -13.5t-39.5 -14t-35.5 -16t-35.5 -21.5t-29 -27.5t-26 -37.5t-16.5 -48.5t-9.5 -62.5q-11 -144 31 -205t133 -15zM618 1331h138
q-6 -64 -39.5 -107.5t-75.5 -61t-88 -17.5t-88 17.5t-75.5 61t-39.5 107.5h137q7 -89 21 -134.5t45 -45.5t43.5 43t21.5 137z" />
    <glyph glyph-name="Aogonek" unicode="&#x104;" horiz-adv-x="1478" 
d="M1479 0q-71 -11 -115.5 -57t-34.5 -101q7 -41 42.5 -52.5t90.5 7.5v-10q-55 -47 -116.5 -57.5t-100 18t-31.5 84.5q7 58 63 103.5t138 64.5h-543v10q74 0 87 39t-29 152q-9 25 -28.5 76.5t-49.5 130t-53 139.5h-398q-12 -31 -25 -66.5t-20 -54.5t-10 -25
q-32 -88 -36.5 -177t28 -151.5t98.5 -62.5v-10h-436v10q100 19 174 94t133 224l432 1106h43q404 -1016 457 -1147q16 -39 23.5 -57.5t24 -54t28.5 -53.5t31.5 -43t38 -37.5t43 -22t51.5 -9.5v-10zM406 557h389q-37 95 -83 214.5t-75.5 195.5t-34.5 90q-27 -68 -96.5 -247.5
t-99.5 -252.5z" />
    <glyph glyph-name="aogonek" unicode="&#x105;" horiz-adv-x="1136" 
d="M1053 -14q-51 -20 -78.5 -60t-18.5 -84q7 -41 43 -52.5t91 7.5v-10q-56 -47 -117.5 -57.5t-99.5 18t-31 84.5q6 52 52 91.5t118 60.5q-320 0 -359 190q-65 -138 -184 -174q-48 -14 -102.5 -18.5t-110 4.5t-99.5 32t-70.5 69t-23.5 110q2 61 26.5 105t60.5 68t89.5 42
t102 26.5t111.5 22t106 28.5q55 20 88 46v188v33q0 51 -0.5 75.5t-4 62.5t-12 56t-23.5 38t-40 28t-59 8q-97 0 -160.5 -29t-85.5 -80q-13 -20 -7.5 -41.5t15.5 -34t24.5 -33t20.5 -38.5q11 -44 -19.5 -78t-82.5 -24q-48 9 -69 58t3 114q14 31 41.5 62t71 62t110 50.5
t144.5 19.5q63 0 120.5 -8t118 -31.5t104 -60t71.5 -98.5t28 -142v-475q0 -49 1.5 -77t6.5 -59t15.5 -46.5t29 -26t46.5 -10.5q32 0 69 22v-12q-28 -16 -71 -22zM504 23q91 45 147 165q-4 24 -4 39v295q-29 -19 -78 -37q-12 -5 -37.5 -14t-39.5 -14t-36 -16t-35 -21.5
t-29 -28t-25.5 -37t-17 -48t-9.5 -62.5q-11 -144 31 -205t133 -16z" />
    <glyph glyph-name="Cacute" unicode="&#x106;" horiz-adv-x="1456" 
d="M948 -4q244 5 447 199v-33q-98 -79 -196.5 -122.5t-250.5 -53.5q-129 -8 -251 11t-233 70t-195.5 129t-138.5 194.5t-64 258.5q-13 178 42.5 325t161.5 245t245.5 156.5t301.5 72.5q153 15 375 -43q33 -9 54 -12.5t45 -1.5t37.5 14t22.5 38t9 66h10v-516h-10
q0 41 -21 98.5t-66 122t-106.5 118t-153 85t-194.5 23.5q-112 -10 -196.5 -85.5t-129.5 -189.5t-63 -242t-8 -255q8 -101 33.5 -197t70.5 -183.5t104.5 -153t141.5 -103t176 -35.5zM844 1575l53 227h184l-227 -227h-10z" />
    <glyph glyph-name="cacute" unicode="&#x107;" horiz-adv-x="1114" 
d="M737 -10q80 0 168.5 38.5t130.5 86.5v-25q-120 -97 -297 -108q-92 -6 -180.5 5.5t-176 46.5t-154.5 90.5t-112 144.5t-53 202q-7 109 24 201t87.5 154.5t134 108t161 68t171.5 27.5q140 8 252.5 -53t148.5 -129q31 -55 14 -116t-75 -70q-59 -9 -93.5 30t-17.5 92
q6 18 18 34.5t22 26.5t17 21t5.5 25t-14.5 33q-32 46 -111 75t-166 23q-76 -6 -132.5 -57.5t-86.5 -131t-42 -171.5t-5 -187t33 -180t70 -154t111 -109.5t148 -41.5zM653 1165l54 228h184l-227 -228h-11z" />
    <glyph glyph-name="Ccircumflex" unicode="&#x108;" horiz-adv-x="1456" 
d="M948 -4q244 5 447 199v-33q-98 -79 -196.5 -122.5t-250.5 -53.5q-129 -8 -251 11t-233 70t-195.5 129t-138.5 194.5t-64 258.5q-13 178 42.5 325t161.5 245t245.5 156.5t301.5 72.5q153 15 375 -43q33 -9 54 -12.5t45 -1.5t37.5 14t22.5 38t9 66h10v-516h-10
q0 41 -21 98.5t-66 122t-106.5 118t-153 85t-194.5 23.5q-112 -10 -196.5 -85.5t-129.5 -189.5t-63 -242t-8 -255q8 -101 33.5 -197t70.5 -183.5t104.5 -153t141.5 -103t176 -35.5zM920 1802l194 -227h-10l-244 113l-242 -113h-10l193 227h119z" />
    <glyph glyph-name="ccircumflex" unicode="&#x109;" horiz-adv-x="1114" 
d="M737 -10q80 0 168.5 38.5t130.5 86.5v-25q-120 -97 -297 -108q-92 -6 -180.5 5.5t-176 46.5t-154.5 90.5t-112 144.5t-53 202q-7 109 24 201t87.5 154.5t134 108t161 68t171.5 27.5q140 8 252.5 -53t148.5 -129q31 -55 14 -116t-75 -70q-59 -9 -93.5 30t-17.5 92
q6 18 18 34.5t22 26.5t17 21t5.5 25t-14.5 33q-32 46 -111 75t-166 23q-76 -6 -132.5 -57.5t-86.5 -131t-42 -171.5t-5 -187t33 -180t70 -154t111 -109.5t148 -41.5zM729 1393l195 -228h-11l-243 113l-242 -113h-10l192 228h119z" />
    <glyph glyph-name="Cdotaccent" unicode="&#x10a;" horiz-adv-x="1456" 
d="M948 -4q244 5 447 199v-33q-98 -79 -196.5 -122.5t-250.5 -53.5q-129 -8 -251 11t-233 70t-195.5 129t-138.5 194.5t-64 258.5q-13 178 42.5 325t161.5 245t245.5 156.5t301.5 72.5q153 15 375 -43q33 -9 54 -12.5t45 -1.5t37.5 14t22.5 38t9 66h10v-516h-10
q0 41 -21 98.5t-66 122t-106.5 118t-153 85t-194.5 23.5q-112 -10 -196.5 -85.5t-129.5 -189.5t-63 -242t-8 -255q8 -101 33.5 -197t70.5 -183.5t104.5 -153t141.5 -103t176 -35.5zM883 1786q34 0 59 -25t25 -59q0 -35 -25 -60.5t-59 -25.5q-35 0 -60.5 25.5t-25.5 60.5
q0 34 25.5 59t60.5 25z" />
    <glyph glyph-name="cdotaccent" unicode="&#x10b;" horiz-adv-x="1114" 
d="M737 -10q80 0 168.5 38.5t130.5 86.5v-25q-120 -97 -297 -108q-92 -6 -180.5 5.5t-176 46.5t-154.5 90.5t-112 144.5t-53 202q-7 109 24 201t87.5 154.5t134 108t161 68t171.5 27.5q140 8 252.5 -53t148.5 -129q31 -55 14 -116t-75 -70q-59 -9 -93.5 30t-17.5 92
q6 18 18 34.5t22 26.5t17 21t5.5 25t-14.5 33q-32 46 -111 75t-166 23q-76 -6 -132.5 -57.5t-86.5 -131t-42 -171.5t-5 -187t33 -180t70 -154t111 -109.5t148 -41.5zM692 1376q34 0 59 -25t25 -59q0 -35 -25 -60.5t-59 -25.5q-35 0 -60.5 25.5t-25.5 60.5q0 34 25.5 59
t60.5 25z" />
    <glyph glyph-name="Ccaron" unicode="&#x10c;" horiz-adv-x="1456" 
d="M948 -4q244 5 447 199v-33q-98 -79 -196.5 -122.5t-250.5 -53.5q-129 -8 -251 11t-233 70t-195.5 129t-138.5 194.5t-64 258.5q-13 178 42.5 325t161.5 245t245.5 156.5t301.5 72.5q153 15 375 -43q33 -9 54 -12.5t45 -1.5t37.5 14t22.5 38t9 66h10v-516h-10
q0 41 -21 98.5t-66 122t-106.5 118t-153 85t-194.5 23.5q-112 -10 -196.5 -85.5t-129.5 -189.5t-63 -242t-8 -255q8 -101 33.5 -197t70.5 -183.5t104.5 -153t141.5 -103t176 -35.5zM1114 1788l-194 -227h-119l-193 227h10l242 -113l244 113h10z" />
    <glyph glyph-name="ccaron" unicode="&#x10d;" horiz-adv-x="1114" 
d="M737 -10q80 0 168.5 38.5t130.5 86.5v-25q-120 -97 -297 -108q-92 -6 -180.5 5.5t-176 46.5t-154.5 90.5t-112 144.5t-53 202q-7 109 24 201t87.5 154.5t134 108t161 68t171.5 27.5q140 8 252.5 -53t148.5 -129q31 -55 14 -116t-75 -70q-59 -9 -93.5 30t-17.5 92
q6 18 18 34.5t22 26.5t17 21t5.5 25t-14.5 33q-32 46 -111 75t-166 23q-76 -6 -132.5 -57.5t-86.5 -131t-42 -171.5t-5 -187t33 -180t70 -154t111 -109.5t148 -41.5zM924 1378l-195 -227h-119l-192 227h10l242 -112l243 112h11z" />
    <glyph glyph-name="Dcaron" unicode="&#x10e;" horiz-adv-x="1533" 
d="M766 1434q163 0 296.5 -53.5t223 -149t138.5 -227t49 -287.5q0 -207 -83.5 -369t-245.5 -255t-378 -93h-705v10q82 0 105.5 50t23.5 176v962q0 125 -23.5 175t-105.5 50v11h705zM676 10q102 0 179 38t133.5 120.5t86 220t29.5 328.5t-29.5 328.5t-86 219.5t-133.5 120
t-179 38h-39q-82 0 -105.5 -50t-23.5 -175v-962q0 -126 23.5 -176t105.5 -50h39zM944 1788l-194 -227h-119l-193 227h11l241 -113l244 113h10z" />
    <glyph glyph-name="dcaron" unicode="&#x10f;" horiz-adv-x="1347" 
d="M1122 236v-3q0 -130 24.5 -176.5t104.5 -46.5v-10h-473v10q22 10 31 142q-81 -172 -272 -172q-220 0 -352 139.5t-122 386.5q4 95 30.5 172.5t67 130t98 93t115.5 64.5t128 42q83 21 165 24t146 -4v246q0 130 -24.5 176.5t-104.5 46.5v10h471v-10q-33 -18 -33 -307v-954z
M813 317v703q-62 7 -142 2.5t-120 -21.5q-92 -38 -133.5 -164t-44.5 -335q-3 -140 21 -253.5t74.5 -181t119.5 -67.5q74 0 131 47.5t92 124.5q2 41 2 145zM1458 1423q2 -50 -7.5 -93t-43 -76.5t-88.5 -30.5v6q36 -3 63.5 13.5t40.5 43t19 51t6 45.5q-26 -47 -80 -47
q-37 0 -63.5 25.5t-26.5 62.5t26.5 63.5t63.5 26.5q36 0 61.5 -25.5t28.5 -64.5z" />
    <glyph glyph-name="Dcroat" unicode="&#x110;" horiz-adv-x="1531" 
d="M766 1434q162 0 295 -54t222.5 -149.5t138 -227t48.5 -286.5t-48.5 -286.5t-138 -227t-222.5 -149.5t-295 -54h-705v10q35 0 58.5 9.5t37 25.5t21 47t9.5 61.5t3 82.5v473h-129v10h129v479q-1 52 -3 82.5t-9.5 61.5t-21 46.5t-37 25t-58.5 9.5v11h705zM676 10
q101 0 178 38t134 120.5t86.5 220t29.5 328.5t-29.5 328.5t-86.5 219.5t-134 120t-178 38h-39q-82 0 -105.5 -49.5t-23.5 -175.5v-479h317v-10h-317v-473q0 -126 23.5 -176t105.5 -50h39z" />
    <glyph glyph-name="dcroat" unicode="&#x111;" horiz-adv-x="1288" 
d="M1118 1210v-20v-954q2 -132 26 -179t103 -47v-10h-471v10q22 10 31 140q-84 -170 -272 -170q-106 0 -195 35t-153 100.5t-97 166t-27 224.5q5 118 42.5 208t101.5 146.5t134 90t159 55.5q80 21 164 24.5t147 -2.5v182h-268v11h268v53q0 130 -24.5 176.5t-104.5 46.5v10
h471v-10q-32 -14 -35 -276h129v-11h-129zM811 317v703q-189 13 -262 -19q-93 -39 -134 -165t-44 -336q-3 -139 21 -252t74.5 -180.5t119.5 -67.5q74 0 131 47.5t92 124.5q2 41 2 145z" />
    <glyph glyph-name="Emacron" unicode="&#x112;" horiz-adv-x="1200" 
d="M1149 362h10l-84 -362h-1014v10q82 0 105.5 50t23.5 176v962q0 125 -23.5 175t-105.5 50v11h949l69 -297h-10q-24 55 -56.5 101.5t-78.5 90.5t-109.5 69t-136.5 25h-51q-35 0 -58.5 -10t-37 -25.5t-21 -46.5t-9.5 -61.5t-3 -81.5v-479h31q117 0 201.5 79.5t84.5 184.5h11
v-537h-11q0 106 -84.5 185.5t-201.5 79.5h-31v-475q1 -52 3 -82.5t9.5 -61.5t21 -47t37 -25.5t58.5 -9.5h115q73 0 139.5 35t116 93t82.5 111.5t59 112.5zM479 1694h357v-11h-357v11z" />
    <glyph glyph-name="emacron" unicode="&#x113;" horiz-adv-x="1177" 
d="M1126 682h-747q-16 -137 -10 -207q7 -95 32 -179.5t68.5 -154t111 -110t150.5 -41.5q88 0 189 39t155 90v-25q-163 -102 -342 -112q-91 -5 -181 9t-176.5 51t-154 93t-110.5 143t-48 193t25.5 197t85.5 155t129 110.5t156.5 69.5t169.5 27q212 9 343 -80t154 -268z
M629 1022q-107 -6 -168 -97.5t-82 -236.5h459q-2 71 -13 128t-34 107t-64 76.5t-98 22.5zM467 1284h356v-10h-356v10z" />
    <glyph glyph-name="Ebreve" unicode="&#x114;" horiz-adv-x="1200" 
d="M1149 362h10l-84 -362h-1014v10q82 0 105.5 50t23.5 176v962q0 125 -23.5 175t-105.5 50v11h949l69 -297h-10q-24 55 -56.5 101.5t-78.5 90.5t-109.5 69t-136.5 25h-51q-35 0 -58.5 -10t-37 -25.5t-21 -46.5t-9.5 -61.5t-3 -81.5v-479h31q117 0 201.5 79.5t84.5 184.5h11
v-537h-11q0 106 -84.5 185.5t-201.5 79.5h-31v-475q1 -52 3 -82.5t9.5 -61.5t21 -47t37 -25.5t58.5 -9.5h115q73 0 139.5 35t116 93t82.5 111.5t59 112.5zM743 1741h138q-6 -64 -39.5 -108t-76 -61.5t-87.5 -17.5t-87.5 17.5t-76 61.5t-39.5 108h137q7 -89 21 -134.5
t45 -45.5t43.5 43t21.5 137z" />
    <glyph glyph-name="ebreve" unicode="&#x115;" horiz-adv-x="1177" 
d="M1126 682h-747q-16 -137 -10 -207q7 -95 32 -179.5t68.5 -154t111 -110t150.5 -41.5q88 0 189 39t155 90v-25q-163 -102 -342 -112q-91 -5 -181 9t-176.5 51t-154 93t-110.5 143t-48 193t25.5 197t85.5 155t129 110.5t156.5 69.5t169.5 27q212 9 343 -80t154 -268z
M629 1022q-107 -6 -168 -97.5t-82 -236.5h459q-2 71 -13 128t-34 107t-64 76.5t-98 22.5zM731 1331h137q-6 -64 -39.5 -107.5t-75 -61t-87.5 -17.5t-88 17.5t-75.5 61t-39.5 107.5h137q7 -89 21 -134.5t45 -45.5t43.5 43t21.5 137z" />
    <glyph glyph-name="Edotaccent" unicode="&#x116;" horiz-adv-x="1200" 
d="M1149 362h10l-84 -362h-1014v10q82 0 105.5 50t23.5 176v962q0 125 -23.5 175t-105.5 50v11h949l69 -297h-10q-24 55 -56.5 101.5t-78.5 90.5t-109.5 69t-136.5 25h-51q-35 0 -58.5 -10t-37 -25.5t-21 -46.5t-9.5 -61.5t-3 -81.5v-479h31q117 0 201.5 79.5t84.5 184.5h11
v-537h-11q0 106 -84.5 185.5t-201.5 79.5h-31v-475q1 -52 3 -82.5t9.5 -61.5t21 -47t37 -25.5t58.5 -9.5h115q73 0 139.5 35t116 93t82.5 111.5t59 112.5zM659 1786q34 0 59 -25t25 -59q0 -35 -25 -60.5t-59 -25.5q-35 0 -60.5 25.5t-25.5 60.5q0 34 25.5 59t60.5 25z" />
    <glyph glyph-name="edotaccent" unicode="&#x117;" horiz-adv-x="1177" 
d="M1126 682h-747q-16 -137 -10 -207q7 -95 32 -179.5t68.5 -154t111 -110t150.5 -41.5q88 0 189 39t155 90v-25q-163 -102 -342 -112q-91 -5 -181 9t-176.5 51t-154 93t-110.5 143t-48 193t25.5 197t85.5 155t129 110.5t156.5 69.5t169.5 27q212 9 343 -80t154 -268z
M629 1022q-107 -6 -168 -97.5t-82 -236.5h459q-2 71 -13 128t-34 107t-64 76.5t-98 22.5zM645 1376q34 0 59 -25t25 -59q0 -35 -25 -60.5t-59 -25.5q-35 0 -60.5 25.5t-25.5 60.5q0 34 25.5 59t60.5 25z" />
    <glyph glyph-name="Eogonek" unicode="&#x118;" horiz-adv-x="1198" 
d="M1073 0q-71 -11 -115 -57t-34 -101q7 -41 42.5 -52.5t90.5 7.5v-10q-55 -47 -116.5 -57.5t-100 18t-31.5 84.5q7 59 63 104t140 64h-951v10q35 0 58.5 10t37 25.5t21 47t9.5 62t3 81.5v962q-1 51 -3 81.5t-9.5 61.5t-21 46.5t-37 25.5t-58.5 10v11h947l69 -297h-10
q-24 55 -56.5 101.5t-78.5 90.5t-109.5 69t-136.5 25h-49q-82 0 -105.5 -50t-23.5 -175v-479h29q119 0 203.5 79t84.5 185h11v-537h-11q0 106 -85 185.5t-203 79.5h-29v-475q0 -125 23.5 -175.5t105.5 -50.5h113q73 0 139.5 35t116 93t82.5 111.5t59 112.5h10z" />
    <glyph glyph-name="eogonek" unicode="&#x119;" horiz-adv-x="1175" 
d="M375 475q7 -95 31.5 -179t66 -153.5t108.5 -110.5t150 -42q88 0 188.5 39.5t155.5 91.5v-25q-137 -86 -282 -108q-68 -12 -108 -52.5t-30 -93.5q7 -41 42.5 -52.5t90.5 7.5v-10q-56 -47 -117 -57.5t-99 18t-31 84.5q14 108 192 150q-75 -4 -150.5 5t-150 31t-139 62
t-115.5 93.5t-81.5 130.5t-33.5 169q-4 113 26.5 206.5t85 156t129.5 106.5t156 64.5t169 23.5q213 9 343.5 -80t151.5 -268h-745q-13 -108 -4 -207zM629 1022q-107 -6 -168 -97.5t-80 -234.5h457q-12 342 -209 332z" />
    <glyph glyph-name="Ecaron" unicode="&#x11a;" horiz-adv-x="1200" 
d="M1149 362h10l-84 -362h-1014v10q82 0 105.5 50t23.5 176v962q0 125 -23.5 175t-105.5 50v11h949l69 -297h-10q-24 55 -56.5 101.5t-78.5 90.5t-109.5 69t-136.5 25h-51q-35 0 -58.5 -10t-37 -25.5t-21 -46.5t-9.5 -61.5t-3 -81.5v-479h31q117 0 201.5 79.5t84.5 184.5h11
v-537h-11q0 106 -84.5 185.5t-201.5 79.5h-31v-475q1 -52 3 -82.5t9.5 -61.5t21 -47t37 -25.5t58.5 -9.5h115q73 0 139.5 35t116 93t82.5 111.5t59 112.5zM911 1788l-194 -227h-119l-192 227h10l241 -113l244 113h10z" />
    <glyph glyph-name="ecaron" unicode="&#x11b;" horiz-adv-x="1177" 
d="M1126 682h-747q-16 -137 -10 -207q7 -95 32 -179.5t68.5 -154t111 -110t150.5 -41.5q88 0 189 39t155 90v-25q-163 -102 -342 -112q-91 -5 -181 9t-176.5 51t-154 93t-110.5 143t-48 193t25.5 197t85.5 155t129 110.5t156.5 69.5t169.5 27q212 9 343 -80t154 -268z
M629 1022q-107 -6 -168 -97.5t-82 -236.5h459q-2 71 -13 128t-34 107t-64 76.5t-98 22.5zM897 1378l-195 -227h-118l-193 227h10l242 -112l244 112h10z" />
    <glyph glyph-name="Gcircumflex" unicode="&#x11c;" horiz-adv-x="1564" 
d="M948 649h576v-10q-35 0 -58.5 -9.5t-37 -25t-21 -46t-9.5 -61t-3 -81.5v-436h-9q0 35 -18 53t-51.5 19.5t-64.5 -3.5t-72 -16q-93 -38 -232 -47q-129 -8 -251 11t-232.5 70t-195 129t-139 194.5t-64.5 258.5q-10 143 24 267t103 215.5t167 159.5t214 107t245 50
q155 15 373 -43q33 -9 54 -12.5t45 -1.5t37.5 14t22.5 38t9 66h10v-516h-10q0 41 -21 98.5t-66 122t-106.5 118t-153 85t-194.5 23.5q-111 -10 -195.5 -85.5t-129.5 -189t-63 -242t-7 -255.5q8 -101 33 -197t69.5 -183.5t104 -153t141.5 -103t176 -35.5q67 0 129 16v404
q0 124 -23.5 173.5t-105.5 49.5v10zM913 1802l195 -227h-10l-244 113l-242 -113h-10l193 227h118z" />
    <glyph glyph-name="gcircumflex" unicode="&#x11d;" horiz-adv-x="1112" 
d="M1110 -70q18 -136 -108 -256.5t-320 -175.5q-91 -26 -205 -27.5t-216.5 18.5t-176 69t-82.5 118q-7 51 13 90t54 61t85 36.5t95.5 19.5t96.5 6q93 0 158 -8v-20q-9 3 -25.5 7.5t-60.5 10.5t-80 2q-66 -8 -99.5 -56t-27.5 -132q7 -87 63.5 -141t136.5 -67t171 2t170 56
q57 29 97.5 65.5t59 70.5t21.5 66t-11 57t-42 38q-42 20 -169 33.5t-262.5 34.5t-203.5 61q-63 38 -74.5 108t33.5 122q17 19 48.5 34t49.5 20.5t59 16.5q-108 32 -180 106t-80 191q-5 75 19.5 138.5t67 106.5t100 74.5t115 48t114.5 21.5q131 13 262 -43q14 56 39.5 100
t50.5 62q45 33 91.5 24t60.5 -48q17 -43 -9 -75.5t-67 -27.5q-15 2 -33 11.5t-30 17.5t-28.5 7t-33.5 -17q-19 -19 -35 -56q196 -87 207 -276q4 -73 -21 -135.5t-67.5 -105.5t-99.5 -75t-114.5 -49t-113.5 -22q-105 -10 -204 18q-63 -39 26 -78q82 -36 252 -55
q77 -9 125 -15t101 -15t84 -19t61.5 -24t47 -32.5t28.5 -42.5t16 -55zM514 948q-64 -7 -98 -56.5t-39 -129t2 -184.5q15 -167 57.5 -248t136.5 -74q64 7 98 56t39.5 128.5t-1.5 184.5q-15 167 -58 248.5t-137 74.5zM594 1393l194 -228h-10l-243 113l-242 -113h-10l192 228
h119z" />
    <glyph glyph-name="Gbreve" unicode="&#x11e;" horiz-adv-x="1564" 
d="M948 649h576v-10q-35 0 -58.5 -9.5t-37 -25t-21 -46t-9.5 -61t-3 -81.5v-436h-9q0 35 -18 53t-51.5 19.5t-64.5 -3.5t-72 -16q-93 -38 -232 -47q-129 -8 -251 11t-232.5 70t-195 129t-139 194.5t-64.5 258.5q-10 143 24 267t103 215.5t167 159.5t214 107t245 50
q155 15 373 -43q33 -9 54 -12.5t45 -1.5t37.5 14t22.5 38t9 66h10v-516h-10q0 41 -21 98.5t-66 122t-106.5 118t-153 85t-194.5 23.5q-111 -10 -195.5 -85.5t-129.5 -189t-63 -242t-7 -255.5q8 -101 33 -197t69.5 -183.5t104 -153t141.5 -103t176 -35.5q67 0 129 16v404
q0 124 -23.5 173.5t-105.5 49.5v10zM920 1741h137q-6 -64 -39.5 -108t-76 -61.5t-87.5 -17.5t-87.5 17.5t-76 61.5t-39.5 108h137q7 -89 21 -134.5t45 -45.5t44 44t22 136z" />
    <glyph glyph-name="gbreve" unicode="&#x11f;" horiz-adv-x="1112" 
d="M1110 -70q18 -136 -108 -256.5t-320 -175.5q-91 -26 -205 -27.5t-216.5 18.5t-176 69t-82.5 118q-7 51 13 90t54 61t85 36.5t95.5 19.5t96.5 6q93 0 158 -8v-20q-9 3 -25.5 7.5t-60.5 10.5t-80 2q-66 -8 -99.5 -56t-27.5 -132q7 -87 63.5 -141t136.5 -67t171 2t170 56
q57 29 97.5 65.5t59 70.5t21.5 66t-11 57t-42 38q-42 20 -169 33.5t-262.5 34.5t-203.5 61q-63 38 -74.5 108t33.5 122q17 19 48.5 34t49.5 20.5t59 16.5q-108 32 -180 106t-80 191q-5 75 19.5 138.5t67 106.5t100 74.5t115 48t114.5 21.5q131 13 262 -43q14 56 39.5 100
t50.5 62q45 33 91.5 24t60.5 -48q17 -43 -9 -75.5t-67 -27.5q-15 2 -33 11.5t-30 17.5t-28.5 7t-33.5 -17q-19 -19 -35 -56q196 -87 207 -276q4 -73 -21 -135.5t-67.5 -105.5t-99.5 -75t-114.5 -49t-113.5 -22q-105 -10 -204 18q-63 -39 26 -78q82 -36 252 -55
q77 -9 125 -15t101 -15t84 -19t61.5 -24t47 -32.5t28.5 -42.5t16 -55zM514 948q-64 -7 -98 -56.5t-39 -129t2 -184.5q15 -167 57.5 -248t136.5 -74q64 7 98 56t39.5 128.5t-1.5 184.5q-15 167 -58 248.5t-137 74.5zM600 1331h137q-6 -64 -39.5 -107.5t-75 -61t-87.5 -17.5
t-88 17.5t-75.5 61t-39.5 107.5h137q7 -89 21 -134.5t45 -45.5t43.5 43t21.5 137z" />
    <glyph glyph-name="Gdotaccent" unicode="&#x120;" horiz-adv-x="1564" 
d="M948 649h576v-10q-35 0 -58.5 -9.5t-37 -25t-21 -46t-9.5 -61t-3 -81.5v-436h-9q0 35 -18 53t-51.5 19.5t-64.5 -3.5t-72 -16q-93 -38 -232 -47q-129 -8 -251 11t-232.5 70t-195 129t-139 194.5t-64.5 258.5q-10 143 24 267t103 215.5t167 159.5t214 107t245 50
q155 15 373 -43q33 -9 54 -12.5t45 -1.5t37.5 14t22.5 38t9 66h10v-516h-10q0 41 -21 98.5t-66 122t-106.5 118t-153 85t-194.5 23.5q-111 -10 -195.5 -85.5t-129.5 -189t-63 -242t-7 -255.5q8 -101 33 -197t69.5 -183.5t104 -153t141.5 -103t176 -35.5q67 0 129 16v404
q0 124 -23.5 173.5t-105.5 49.5v10zM856 1786q34 0 59 -25t25 -59q0 -35 -25 -60.5t-59 -25.5q-35 0 -60.5 25.5t-25.5 60.5q0 34 25.5 59t60.5 25z" />
    <glyph glyph-name="gdotaccent" unicode="&#x121;" horiz-adv-x="1112" 
d="M1110 -70q18 -136 -108 -256.5t-320 -175.5q-91 -26 -205 -27.5t-216.5 18.5t-176 69t-82.5 118q-7 51 13 90t54 61t85 36.5t95.5 19.5t96.5 6q93 0 158 -8v-20q-9 3 -25.5 7.5t-60.5 10.5t-80 2q-66 -8 -99.5 -56t-27.5 -132q7 -87 63.5 -141t136.5 -67t171 2t170 56
q57 29 97.5 65.5t59 70.5t21.5 66t-11 57t-42 38q-42 20 -169 33.5t-262.5 34.5t-203.5 61q-63 38 -74.5 108t33.5 122q17 19 48.5 34t49.5 20.5t59 16.5q-108 32 -180 106t-80 191q-5 75 19.5 138.5t67 106.5t100 74.5t115 48t114.5 21.5q131 13 262 -43q14 56 39.5 100
t50.5 62q45 33 91.5 24t60.5 -48q17 -43 -9 -75.5t-67 -27.5q-15 2 -33 11.5t-30 17.5t-28.5 7t-33.5 -17q-19 -19 -35 -56q196 -87 207 -276q4 -73 -21 -135.5t-67.5 -105.5t-99.5 -75t-114.5 -49t-113.5 -22q-105 -10 -204 18q-63 -39 26 -78q82 -36 252 -55
q77 -9 125 -15t101 -15t84 -19t61.5 -24t47 -32.5t28.5 -42.5t16 -55zM514 948q-64 -7 -98 -56.5t-39 -129t2 -184.5q15 -167 57.5 -248t136.5 -74q64 7 98 56t39.5 128.5t-1.5 184.5q-15 167 -58 248.5t-137 74.5zM557 1376q34 0 59 -25t25 -59q0 -35 -25 -60.5t-59 -25.5
q-35 0 -60.5 25.5t-25.5 60.5q0 34 25.5 59t60.5 25z" />
    <glyph glyph-name="Gcommaaccent" unicode="&#x122;" horiz-adv-x="1564" 
d="M948 649h576v-10q-35 0 -58.5 -9.5t-37 -25t-21 -46t-9.5 -61t-3 -81.5v-436h-9q0 35 -18 53t-51.5 19.5t-64.5 -3.5t-72 -16q-93 -38 -232 -47q-129 -8 -251 11t-232.5 70t-195 129t-139 194.5t-64.5 258.5q-10 143 24 267t103 215.5t167 159.5t214 107t245 50
q155 15 373 -43q33 -9 54 -12.5t45 -1.5t37.5 14t22.5 38t9 66h10v-516h-10q0 41 -21 98.5t-66 122t-106.5 118t-153 85t-194.5 23.5q-111 -10 -195.5 -85.5t-129.5 -189t-63 -242t-7 -255.5q8 -101 33 -197t69.5 -183.5t104 -153t141.5 -103t176 -35.5q67 0 129 16v404
q0 124 -23.5 173.5t-105.5 49.5v10zM969 -311q2 -50 -8 -93.5t-43.5 -77t-88.5 -30.5v6q48 -4 79 26.5t40.5 64t9.5 63.5q-26 -47 -79 -47q-37 0 -64 26t-27 62q0 37 27 63.5t64 26.5q36 0 61.5 -25.5t28.5 -64.5z" />
    <glyph glyph-name="gcommaaccent" unicode="&#x123;" horiz-adv-x="1112" 
d="M1110 -70q18 -136 -108 -256.5t-320 -175.5q-91 -26 -205 -27.5t-216.5 18.5t-176 69t-82.5 118q-7 51 13 90t54 61t85 36.5t95.5 19.5t96.5 6q93 0 158 -8v-20q-9 3 -25.5 7.5t-60.5 10.5t-80 2q-66 -8 -99.5 -56t-27.5 -132q7 -87 63.5 -141t136.5 -67t171 2t170 56
q57 29 97.5 65.5t59 70.5t21.5 66t-11 57t-42 38q-42 20 -169 33.5t-262.5 34.5t-203.5 61q-63 38 -74.5 108t33.5 122q17 19 48.5 34t49.5 20.5t59 16.5q-108 32 -180 106t-80 191q-5 75 19.5 138.5t67 106.5t100 74.5t115 48t114.5 21.5q131 13 262 -43q14 56 39.5 100
t50.5 62q45 33 91.5 24t60.5 -48q17 -43 -9 -75.5t-67 -27.5q-15 2 -33 11.5t-30 17.5t-28.5 7t-33.5 -17q-19 -19 -35 -56q196 -87 207 -276q4 -73 -21 -135.5t-67.5 -105.5t-99.5 -75t-114.5 -49t-113.5 -22q-105 -10 -204 18q-63 -39 26 -78q82 -36 252 -55
q77 -9 125 -15t101 -15t84 -19t61.5 -24t47 -32.5t28.5 -42.5t16 -55zM514 948q-64 -7 -98 -56.5t-39 -129t2 -184.5q15 -167 57.5 -248t136.5 -74q64 7 98 56t39.5 128.5t-1.5 184.5q-15 167 -58 248.5t-137 74.5zM463 1219q-2 37 3 70.5t19 65t43.5 49.5t71.5 17v-6
q-36 3 -63 -13.5t-40 -43t-18.5 -51t-5.5 -45.5q11 21 32.5 34t45.5 13q37 0 63.5 -26.5t26.5 -63.5t-26.5 -63t-63.5 -26t-61.5 25.5t-26.5 63.5z" />
    <glyph glyph-name="Hcircumflex" unicode="&#x124;" horiz-adv-x="1574" 
d="M1384 1198v2v-964q1 -51 3 -81.5t9.5 -62t21 -47t37 -25.5t58.5 -10v-10h-575v10q82 0 105.5 50.5t23.5 175.5v475h-559v-475q0 -50 2 -81.5t9.5 -62t21 -46.5t37 -26t57.5 -10v-10h-574v10q35 0 58.5 10t37 25.5t21 47t9.5 62t3 81.5v962q-1 51 -3 81.5t-9.5 61.5
t-21 46.5t-37 25.5t-58.5 10v11h574v-11q-34 0 -57.5 -9.5t-37 -25.5t-21 -46.5t-9.5 -62t-2 -81.5v-477h559v477q0 125 -23.5 175t-105.5 50v11h575v-11q-35 0 -58.5 -10t-37 -25.5t-21 -46.5t-9.5 -61.5t-3 -81.5zM874 1802l195 -227h-10l-244 113l-242 -113h-10l193 227
h118z" />
    <glyph glyph-name="hcircumflex" unicode="&#x125;" horiz-adv-x="1316" 
d="M1147 236v-3q2 -130 26 -176.5t103 -46.5v-10h-565v10q79 0 104 48t25 178v458q0 140 -8 187q-29 128 -132 131q-64 0 -126 -44.5t-97 -117.5v-614q0 -130 25 -178t104 -48v-10h-565v10q79 0 103 47.5t26 178.5v1038q-1 51 -3 81.5t-9.5 61t-21 46t-37 25t-58.5 9.5v10
h471v-10q-35 -17 -35 -307v-320q54 82 122.5 122t186.5 40q169 0 265 -93.5t96 -283.5v-419zM373 1825l194 -228h-10l-244 113l-241 -113h-11l193 228h119z" />
    <glyph glyph-name="Hbar" unicode="&#x126;" horiz-adv-x="1574" 
d="M1384 1198v-235h127v-11h-127v-716q1 -52 3 -82.5t9.5 -61.5t21 -47t37 -25.5t58.5 -9.5v-10h-575v10q82 0 105.5 50t23.5 176v473h-559v-473q0 -126 23.5 -176t105.5 -50v-10h-576v10q35 0 58.5 9.5t37 25.5t21 47t9.5 61.5t3 82.5v716h-127v11h127v235q-1 52 -3 82.5
t-9.5 61.5t-21 46.5t-37 25t-58.5 9.5v11h576v-11q-82 0 -105.5 -49.5t-23.5 -175.5v-235h559v235q0 126 -23.5 175.5t-105.5 49.5v11h575v-11q-35 0 -58.5 -9.5t-37 -25t-21 -46.5t-9.5 -61.5t-3 -82.5zM1067 719v233h-559v-233h559z" />
    <glyph glyph-name="hbar" unicode="&#x127;" horiz-adv-x="1316" 
d="M1147 655v-419q2 -132 26 -179t103 -47v-10h-565v10q79 0 104 48t25 178v458q0 142 -9 191q-24 127 -129 127q-65 0 -127.5 -44.5t-97.5 -117.5v-614q2 -131 26 -178.5t103 -47.5v-10h-565v10q79 0 104 48t25 178v978h-129v11h129v49q0 124 -23.5 173.5t-105.5 49.5v10
h471v-10q-32 -14 -35 -272h268v-11h-268v-24v-320q54 82 122.5 122t186.5 40q169 0 265 -93.5t96 -283.5z" />
    <glyph glyph-name="Itilde" unicode="&#x128;" 
d="M508 1198v-962q0 -126 23.5 -176t105.5 -50v-10h-576v10q35 0 58.5 9.5t37 25.5t21 47t9.5 61.5t3 82.5v962q-1 51 -3 81.5t-9.5 61.5t-21 46.5t-37 25.5t-58.5 10v11h576v-11q-82 0 -105.5 -50t-23.5 -175zM449 1616q-35 2 -106.5 22.5t-94.5 22.5q-32 4 -53.5 -6.5
t-28.5 -26.5h-10q12 148 92 158q21 2 62 -7t84.5 -20.5t54.5 -13.5q39 -6 55 1t22 32h11q4 -29 -2 -65t-28 -67.5t-58 -29.5z" />
    <glyph glyph-name="itilde" unicode="&#x129;" horiz-adv-x="649" 
d="M479 236v-3q0 -130 24.5 -176.5t104.5 -46.5v-10h-567v10q80 0 104.5 47.5t24.5 178.5v542q0 130 -24.5 176.5t-104.5 46.5v11h471v-11q-33 -18 -33 -307v-458zM424 1206q-35 2 -106.5 22.5t-94.5 22.5q-32 4 -53.5 -6t-28.5 -26h-10q2 27 5.5 46t12.5 46.5t28 44
t46 20.5q21 2 62 -7t84.5 -20.5t54.5 -13.5q39 -6 55.5 1t22.5 32h10q4 -29 -2 -65t-28 -67.5t-58 -29.5z" />
    <glyph glyph-name="Imacron" unicode="&#x12a;" 
d="M508 1198v-962q0 -126 23.5 -176t105.5 -50v-10h-576v10q35 0 58.5 9.5t37 25.5t21 47t9.5 61.5t3 82.5v962q-1 51 -3 81.5t-9.5 61.5t-21 46.5t-37 25.5t-58.5 10v11h576v-11q-82 0 -105.5 -50t-23.5 -175zM170 1694h356v-11h-356v11z" />
    <glyph glyph-name="imacron" unicode="&#x12b;" horiz-adv-x="649" 
d="M479 236v-3q0 -130 24.5 -176.5t104.5 -46.5v-10h-567v10q80 0 104.5 47.5t24.5 178.5v542q0 130 -24.5 176.5t-104.5 46.5v11h471v-11q-33 -18 -33 -307v-458zM125 1284h356v-10h-356v10z" />
    <glyph glyph-name="Ibreve" unicode="&#x12c;" 
d="M508 1198v-962q0 -126 23.5 -176t105.5 -50v-10h-576v10q35 0 58.5 9.5t37 25.5t21 47t9.5 61.5t3 82.5v962q-1 51 -3 81.5t-9.5 61.5t-21 46.5t-37 25.5t-58.5 10v11h576v-11q-82 0 -105.5 -50t-23.5 -175zM414 1741h137q-6 -64 -39.5 -108t-76 -61.5t-87.5 -17.5
t-87.5 17.5t-76 61.5t-39.5 108h138q7 -90 20.5 -135t44.5 -45t44 44t22 136z" />
    <glyph glyph-name="ibreve" unicode="&#x12d;" horiz-adv-x="649" 
d="M479 236v-3q0 -130 24.5 -176.5t104.5 -46.5v-10h-567v10q80 0 104.5 47.5t24.5 178.5v542q0 130 -24.5 176.5t-104.5 46.5v11h471v-11q-33 -18 -33 -307v-458zM389 1331h137q-6 -64 -39.5 -107.5t-75 -61t-87.5 -17.5t-88 17.5t-75.5 61t-39.5 107.5h137
q7 -89 21 -134.5t45 -45.5t43.5 43t21.5 137z" />
    <glyph glyph-name="Iogonek" unicode="&#x12e;" 
d="M637 1423q-35 0 -58.5 -10t-37 -25.5t-21 -46.5t-9.5 -61.5t-3 -81.5v-962q1 -51 3 -81.5t9.5 -62t21 -47t37 -25.5t58.5 -10v-10q-71 -11 -115.5 -57t-32.5 -101q7 -41 43 -52.5t91 7.5v-10q-56 -47 -117.5 -57.5t-99.5 18t-31 84.5q7 59 62.5 104t137.5 64h-514v10
q82 0 105.5 50.5t23.5 175.5v962q0 125 -23.5 175t-105.5 50v11h576v-11z" />
    <glyph glyph-name="iogonek" unicode="&#x12f;" horiz-adv-x="647" 
d="M606 0q-71 -11 -114 -57t-33 -101q7 -41 42.5 -52.5t90.5 7.5v-10q-56 -47 -117.5 -57.5t-99.5 18t-31 84.5q7 58 63 103.5t138 64.5h-504v10q80 0 104.5 47.5t24.5 178.5v544q0 130 -24.5 175.5t-104.5 45.5v11h471v-11q-35 -16 -35 -307v-458q2 -131 26 -178.5
t103 -47.5v-10zM324 1171q-66 0 -113 49.5t-47 118.5q0 70 47 120t113 50q67 0 114 -49.5t47 -120.5q0 -69 -47 -118.5t-114 -49.5z" />
    <glyph glyph-name="Idotaccent" unicode="&#x130;" 
d="M508 1198v-962q0 -126 23.5 -176t105.5 -50v-10h-576v10q35 0 58.5 9.5t37 25.5t21 47t9.5 61.5t3 82.5v962q-1 51 -3 81.5t-9.5 61.5t-21 46.5t-37 25.5t-58.5 10v11h576v-11q-82 0 -105.5 -50t-23.5 -175zM350 1786q34 0 59 -25t25 -59q0 -35 -25 -60.5t-59 -25.5
q-35 0 -60.5 25.5t-25.5 60.5q0 34 25.5 59t60.5 25z" />
    <glyph glyph-name="dotlessi" unicode="&#x131;" horiz-adv-x="649" 
d="M479 236v-3q0 -130 24.5 -176.5t104.5 -46.5v-10h-567v10q80 0 104.5 47.5t24.5 178.5v542q0 130 -24.5 176.5t-104.5 46.5v11h471v-11q-33 -18 -33 -307v-458z" />
    <glyph glyph-name="IJ" unicode="&#x132;" horiz-adv-x="1449" 
d="M508 1198v-962q0 -126 23.5 -176t105.5 -50v-10h-576v10q35 0 58.5 9.5t37 25.5t21 47t9.5 61.5t3 82.5v962q-1 51 -3 81.5t-9.5 61.5t-21 46.5t-37 25.5t-58.5 10v11h576v-11q-82 0 -105.5 -50t-23.5 -175zM793 1434h575v-11q-35 0 -58.5 -10t-37 -25.5t-21 -46.5
t-9.5 -61.5t-3 -81.5v-1114q0 -101 -31.5 -183t-81.5 -134.5t-118 -89.5t-133.5 -54.5t-135.5 -23.5v12q98 36 140.5 127t42.5 272v1188q0 125 -23.5 175t-105.5 50v11z" />
    <glyph glyph-name="ij" unicode="&#x133;" horiz-adv-x="1277" 
d="M479 236v-3q0 -130 24.5 -176.5t104.5 -46.5v-10h-567v10q80 0 104.5 47.5t24.5 178.5v542q0 130 -24.5 176.5t-104.5 46.5v11h471v-11q-33 -18 -33 -307v-458zM324 1171q-66 0 -113 49.5t-47 118.5q0 70 47 119t113 49q68 0 114.5 -49t46.5 -119q0 -69 -47 -118.5
t-114 -49.5zM932 1171q-67 0 -114.5 49.5t-47.5 118.5q0 70 47 119t115 49q66 0 113 -49t47 -119q0 -69 -47 -118.5t-113 -49.5zM647 1012h473v-11q-35 -17 -35 -307v-848q0 -93 -31 -168.5t-80.5 -123.5t-116.5 -82t-132.5 -50t-136.5 -22v12q99 36 143.5 129.5t44.5 280.5
v956q0 130 -24.5 176.5t-104.5 46.5v11z" />
    <glyph glyph-name="Jcircumflex" unicode="&#x134;" horiz-adv-x="772" 
d="M115 1434h575v-11q-35 0 -58.5 -10t-37 -25.5t-21 -46.5t-9.5 -61.5t-3 -81.5v-1114q0 -101 -31.5 -183t-81.5 -134.5t-118 -89.5t-133.5 -54.5t-135.5 -23.5v12q98 36 140.5 127t42.5 272v1188q0 125 -23.5 175t-105.5 50v11zM463 1802l194 -227h-10l-244 113l-241 -113
h-10l192 227h119z" />
    <glyph glyph-name="jcircumflex" unicode="&#x135;" horiz-adv-x="649" 
d="M59 1012h473v-11q-34 -17 -34 -307v-848q0 -93 -31 -168.5t-80.5 -123.5t-117 -82t-133 -50t-136.5 -22v12q99 36 143.5 129.5t44.5 280.5v956q0 130 -24.5 176.5t-104.5 46.5v11zM385 1393l195 -228h-11l-243 113l-242 -113h-10l192 228h119z" />
    <glyph glyph-name="Kcommaaccent" unicode="&#x136;" horiz-adv-x="1505" 
d="M1235 276q72 -110 149.5 -188t120.5 -78v-10h-471l-461 737q-49 -43 -65 -57v-444q1 -52 3 -82.5t9.5 -61.5t21 -47t37 -25.5t58.5 -9.5v-10h-576v10q82 0 105.5 50t23.5 176v962q0 125 -23.5 175t-105.5 50v11h576v-11q-35 0 -58.5 -10t-37 -25.5t-21 -46.5t-9.5 -61.5
t-3 -81.5v-508q299 268 453 422q72 73 101 146t6 119t-93 46v11h436v-11q-36 0 -86.5 -25.5t-93.5 -56t-102.5 -83.5t-88 -81t-75.5 -75l-15 -15q-65 -65 -151 -145q56 -81 436 -666zM868 -311q2 -50 -7.5 -93.5t-43 -77t-88.5 -30.5v6q48 -4 79 26.5t40.5 64t9.5 63.5
q-26 -47 -80 -47q-37 0 -63.5 25.5t-26.5 62.5t26.5 63.5t63.5 26.5q36 0 61.5 -25.5t28.5 -64.5z" />
    <glyph glyph-name="kcommaaccent" unicode="&#x137;" horiz-adv-x="1323" 
d="M1014 279q42 -66 69.5 -104.5t65 -81.5t72.5 -63t71 -20v-10h-442l-338 539l-33 -33v-273q0 -130 24.5 -176.5t104.5 -46.5v-10h-567v10q80 0 104.5 46.5t24.5 176.5v1041q0 130 -24.5 176.5t-104.5 46.5v10h473v-10q-35 -17 -35 -307v-672q46 46 178.5 175.5
t167.5 164.5q21 21 25.5 48.5t-10.5 51.5q-27 43 -129 43v11h438v-11q-50 0 -143.5 -38t-169.5 -109q-19 -19 -58 -57t-59 -56q9 -15 65 -103t128.5 -201t101.5 -158zM754 -311q2 -50 -8 -93.5t-43.5 -77t-88.5 -30.5v6q48 -4 79 26.5t40.5 64t9.5 63.5q-26 -47 -79 -47
q-37 0 -64 26t-27 62q0 37 27 63.5t64 26.5q36 0 61.5 -25.5t28.5 -64.5z" />
    <glyph glyph-name="kgreenlandic" unicode="&#x138;" horiz-adv-x="1323" 
d="M1014 279q42 -66 69.5 -104.5t65 -81.5t72.5 -63t71 -20v-10h-442l-338 539l-33 -33v-273q0 -130 24.5 -176.5t104.5 -46.5v-10h-567v10q80 0 104.5 46.5t24.5 176.5v545q0 130 -24.5 176.5t-104.5 46.5v11h473v-11q-35 -17 -35 -307v-176q46 46 178.5 175.5t167.5 164.5
q21 21 25.5 48.5t-10.5 51.5q-27 43 -129 43v11h438v-11q-50 0 -143.5 -38t-169.5 -109q-19 -19 -58 -57t-59 -56q9 -15 65 -103t128.5 -201t101.5 -158z" />
    <glyph glyph-name="Lacute" unicode="&#x139;" horiz-adv-x="1179" 
d="M1149 362h10l-86 -362h-1012v10q82 0 105.5 50t23.5 176v962q0 125 -23.5 175t-105.5 50v11h576v-11q-35 0 -58.5 -10t-37 -25.5t-21 -46.5t-9.5 -61.5t-3 -81.5v-962q1 -52 3 -82.5t9.5 -61.5t21 -47t37 -25.5t58.5 -9.5h115q73 0 139.5 35t116 93t82.5 111.5t59 112.5z
M348 1575l53 227h185l-228 -227h-10z" />
    <glyph glyph-name="lacute" unicode="&#x13a;" horiz-adv-x="647" 
d="M477 1190v-954q0 -131 25 -178.5t104 -47.5v-10h-565v10q79 0 103 47.5t26 178.5v1038q-2 130 -26 176.5t-103 46.5v10h471v-10q-35 -17 -35 -307zM266 1577l53 227h185l-228 -227h-10z" />
    <glyph glyph-name="Lcommaaccent" unicode="&#x13b;" horiz-adv-x="1179" 
d="M1149 362h10l-86 -362h-1012v10q82 0 105.5 50t23.5 176v962q0 125 -23.5 175t-105.5 50v11h576v-11q-35 0 -58.5 -10t-37 -25.5t-21 -46.5t-9.5 -61.5t-3 -81.5v-962q1 -52 3 -82.5t9.5 -61.5t21 -47t37 -25.5t58.5 -9.5h115q73 0 139.5 35t116 93t82.5 111.5t59 112.5z
M762 -311q2 -50 -7.5 -93.5t-43 -77t-88.5 -30.5v6q48 -4 79 26.5t40.5 64t9.5 63.5q-26 -47 -80 -47q-37 0 -63.5 25.5t-26.5 62.5t26.5 63.5t63.5 26.5q36 0 61.5 -25.5t28.5 -64.5z" />
    <glyph glyph-name="lcommaaccent" unicode="&#x13c;" horiz-adv-x="647" 
d="M477 1190v-954q0 -131 25 -178.5t104 -47.5v-10h-565v10q79 0 103 47.5t26 178.5v1038q-2 130 -26 176.5t-103 46.5v10h471v-10q-35 -17 -35 -307zM412 -311q2 -50 -8 -93.5t-43.5 -77t-88.5 -30.5v6q48 -4 79 26.5t40.5 64t9.5 63.5q-26 -47 -79 -47q-37 0 -64 26
t-27 62q0 37 27 63.5t64 26.5q36 0 61.5 -25.5t28.5 -64.5z" />
    <glyph glyph-name="Lcaron" unicode="&#x13d;" horiz-adv-x="1179" 
d="M1149 362h10l-86 -362h-1012v10q82 0 105.5 50t23.5 176v962q0 125 -23.5 175t-105.5 50v11h576v-11q-35 0 -58.5 -10t-37 -25.5t-21 -46.5t-9.5 -61.5t-3 -81.5v-962q1 -52 3 -82.5t9.5 -61.5t21 -47t37 -25.5t58.5 -9.5h115q73 0 139.5 35t116 93t82.5 111.5t59 112.5z
M973 1350q2 -50 -7.5 -93.5t-43 -77t-88.5 -30.5v6q48 -4 79 26.5t40.5 64t9.5 63.5q-26 -47 -80 -47q-37 0 -63.5 25.5t-26.5 62.5t26.5 63.5t63.5 26.5q36 0 61.5 -25.5t28.5 -64.5z" />
    <glyph glyph-name="lcaron" unicode="&#x13e;" horiz-adv-x="700" 
d="M477 1190v-954q0 -131 25 -178.5t104 -47.5v-10h-565v10q79 0 103 47.5t26 178.5v1038q-2 130 -26 176.5t-103 46.5v10h471v-10q-35 -17 -35 -307zM821 1425q2 -50 -7.5 -93t-43 -76.5t-88.5 -30.5v6q36 -3 63.5 13.5t40.5 43t19 51t6 45.5q-26 -47 -80 -47
q-37 0 -63.5 25.5t-26.5 62.5t26.5 64t63.5 27q36 0 61.5 -26t28.5 -65z" />
    <glyph glyph-name="Ldot" unicode="&#x13f;" horiz-adv-x="1179" 
d="M1100 692q34 0 59 -25t25 -59q0 -35 -25 -60.5t-59 -25.5q-35 0 -60.5 25.5t-25.5 60.5q0 34 25.5 59t60.5 25zM1149 362h10l-86 -362h-1012v10q82 0 105.5 50t23.5 176v962q0 125 -23.5 175t-105.5 50v11h576v-11q-35 0 -58.5 -10t-37 -25.5t-21 -46.5t-9.5 -61.5
t-3 -81.5v-962q1 -52 3 -82.5t9.5 -61.5t21 -47t37 -25.5t58.5 -9.5h115q73 0 139.5 35t116 93t82.5 111.5t59 112.5z" />
    <glyph glyph-name="ldot" unicode="&#x140;" horiz-adv-x="733" 
d="M477 1190v-954q0 -131 25 -178.5t104 -47.5v-10h-565v10q79 0 103 47.5t26 178.5v1038q-2 130 -26 176.5t-103 46.5v10h471v-10q-35 -17 -35 -307zM721 770q34 0 59 -25t25 -59q0 -35 -25 -60.5t-59 -25.5q-35 0 -60.5 25.5t-25.5 60.5q0 34 25.5 59t60.5 25z" />
    <glyph glyph-name="Lslash" unicode="&#x141;" horiz-adv-x="1179" 
d="M1149 362h10l-84 -362h-1012v10q35 0 58.5 9.5t37.5 25.5t21.5 46.5t9.5 61.5t3 83v104l-113 -66l-6 7l119 71v846q-1 52 -3 83t-9.5 61.5t-21.5 46t-37.5 25t-58.5 9.5v11h576v-11q-82 0 -105.5 -49.5t-23.5 -175.5v-659l168 100l6 -8l-174 -103v-292q0 -126 23.5 -176
t105.5 -50h113q73 0 139.5 35t116 93t82.5 111.5t59 112.5z" />
    <glyph glyph-name="lslash" unicode="&#x142;" horiz-adv-x="647" 
d="M477 236v-3q2 -130 26 -176.5t103 -46.5v-10h-565v10q79 0 104 48t25 178v110l-121 -72l-8 7l129 75v918q0 129 -25 176t-104 47v10h471v-10q-35 -17 -35 -307v-651l170 100l6 -8l-176 -103v-292z" />
    <glyph glyph-name="Nacute" unicode="&#x143;" horiz-adv-x="1605" 
d="M1049 1434h516v-11q-108 0 -180 -104.5t-72 -282.5v-1036h-60q-34 40 -479.5 612t-468.5 605v-820q0 -178 72 -282.5t180 -104.5v-10h-516v10q108 0 181 105t73 282v834q-63 88 -121.5 140t-118.5 52v11h477l771 -1004v606q0 177 -73 282t-181 105v11zM848 1575l53 227
h184l-227 -227h-10z" />
    <glyph glyph-name="nacute" unicode="&#x144;" horiz-adv-x="1318" 
d="M1149 236v-3q0 -129 25 -176t104 -47v-10h-565v10q79 0 103 47.5t26 178.5v458v18q0 40 -0.5 60.5t-3 57.5t-7.5 58t-15 48t-24.5 41t-37.5 24.5t-52 10.5q-62 0 -123 -42t-96 -110q-4 -45 -4 -166v-458q0 -131 24.5 -178.5t104.5 -47.5v-10h-567v10q80 0 104.5 47.5
t24.5 178.5v542q0 131 -24.5 177t-104.5 46v11h473v-11q-23 -11 -31 -120q51 76 119.5 113.5t183.5 37.5q171 0 267 -93.5t96 -283.5v-419zM684 1165l53 228h185l-228 -228h-10z" />
    <glyph glyph-name="Ncommaaccent" unicode="&#x145;" horiz-adv-x="1605" 
d="M1049 1434h516v-11q-108 0 -180 -104.5t-72 -282.5v-1036h-60q-34 40 -479.5 612t-468.5 605v-820q0 -178 72 -282.5t180 -104.5v-10h-516v10q108 0 181 105t73 282v834q-63 88 -121.5 140t-118.5 52v11h477l771 -1004v606q0 177 -73 282t-181 105v11zM940 -311
q2 -50 -7.5 -93.5t-43 -77t-88.5 -30.5v6q48 -4 79 26.5t40.5 64t9.5 63.5q-26 -47 -80 -47q-37 0 -63.5 25.5t-26.5 62.5t26.5 63.5t63.5 26.5q36 0 61.5 -25.5t28.5 -64.5z" />
    <glyph glyph-name="ncommaaccent" unicode="&#x146;" horiz-adv-x="1318" 
d="M1149 236v-3q0 -129 25 -176t104 -47v-10h-565v10q79 0 103 47.5t26 178.5v458v18q0 40 -0.5 60.5t-3 57.5t-7.5 58t-15 48t-24.5 41t-37.5 24.5t-52 10.5q-62 0 -123 -42t-96 -110q-4 -45 -4 -166v-458q0 -131 24.5 -178.5t104.5 -47.5v-10h-567v10q80 0 104.5 47.5
t24.5 178.5v542q0 131 -24.5 177t-104.5 46v11h473v-11q-23 -11 -31 -120q51 76 119.5 113.5t183.5 37.5q171 0 267 -93.5t96 -283.5v-419zM748 -311q2 -50 -8 -93.5t-43.5 -77t-88.5 -30.5v6q48 -4 79 26.5t40.5 64t9.5 63.5q-26 -47 -80 -47q-37 0 -63.5 25.5t-26.5 62.5
t26.5 63.5t63.5 26.5t62.5 -25.5t28.5 -64.5z" />
    <glyph glyph-name="Ncaron" unicode="&#x147;" horiz-adv-x="1605" 
d="M1049 1434h516v-11q-108 0 -180 -104.5t-72 -282.5v-1036h-60q-34 40 -479.5 612t-468.5 605v-820q0 -178 72 -282.5t180 -104.5v-10h-516v10q108 0 181 105t73 282v834q-63 88 -121.5 140t-118.5 52v11h477l771 -1004v606q0 177 -73 282t-181 105v11zM1116 1788
l-194 -227h-119l-193 227h11l241 -113l244 113h10z" />
    <glyph glyph-name="ncaron" unicode="&#x148;" horiz-adv-x="1318" 
d="M1149 236v-3q0 -129 25 -176t104 -47v-10h-565v10q79 0 103 47.5t26 178.5v458v18q0 40 -0.5 60.5t-3 57.5t-7.5 58t-15 48t-24.5 41t-37.5 24.5t-52 10.5q-62 0 -123 -42t-96 -110q-4 -45 -4 -166v-458q0 -131 24.5 -178.5t104.5 -47.5v-10h-567v10q80 0 104.5 47.5
t24.5 178.5v542q0 131 -24.5 177t-104.5 46v11h473v-11q-23 -11 -31 -120q51 76 119.5 113.5t183.5 37.5q171 0 267 -93.5t96 -283.5v-419zM932 1378l-195 -227h-119l-192 227h10l242 -112l244 112h10z" />
    <glyph glyph-name="napostrophe" unicode="&#x149;" horiz-adv-x="1605" 
d="M274 909q1 -38 -2.5 -73t-15.5 -71.5t-31.5 -63t-53 -42.5t-77.5 -14v8q47 -4 82 17.5t52 57t24.5 67.5t7.5 59q-14 -28 -41 -44.5t-61 -16.5q-50 0 -83.5 33.5t-33.5 82.5q0 48 34 82.5t83 34.5q47 0 80 -33t36 -84zM1436 236v-3q0 -129 25 -176t104 -47v-10h-566v10
q79 0 103 47.5t26 178.5v458q0 143 -10 194q-26 124 -129 124q-62 0 -123 -42t-96 -110q-4 -45 -4 -166v-458q0 -131 24.5 -178.5t104.5 -47.5v-10h-567v10q80 0 104.5 47.5t24.5 178.5v542q0 131 -24.5 177t-104.5 46v11h473v-11q-23 -11 -31 -120q51 76 119.5 113.5
t183.5 37.5q171 0 267 -93.5t96 -283.5v-419z" />
    <glyph glyph-name="Eng" unicode="&#x14a;" horiz-adv-x="1605" 
d="M1049 1434h516v-11q-108 0 -181 -105t-73 -282v-1026q0 -92 -19 -158t-47 -94q-38 -40 -86 -39t-67 41q-19 41 -0.5 75.5t59.5 37.5q15 1 34 -6t32 -12.5t29 -2.5t30 21q28 37 31 127h-56q-38 47 -481 616.5t-465 600.5v-820q0 -178 72 -282.5t180 -104.5v-10h-516v10
q108 0 181 105t73 282v834q-65 89 -122 140.5t-116 51.5v11h475l768 -1004v606q0 178 -71.5 282.5t-179.5 104.5v11z" />
    <glyph glyph-name="eng" unicode="&#x14b;" horiz-adv-x="1310" 
d="M1147 14q0 -91 -19.5 -159t-46.5 -97q-39 -41 -87 -40t-66 40q-20 43 -1.5 77t60.5 36q15 1 34 -5t32 -11.5t29 -2.5t30 21q31 42 31 127h-432v10q79 0 104 48t25 178v458q0 142 -9 191q-24 127 -129 127q-63 0 -123.5 -42t-97.5 -112q-4 -86 -4 -164v-458
q2 -131 26 -178.5t103 -47.5v-10h-565v10q79 0 104 48t25 178v542q0 129 -25 176t-104 47v11h471v-11q-20 -10 -29 -122q51 77 119.5 115t183.5 38q169 0 265 -93.5t96 -283.5v-641z" />
    <glyph glyph-name="Omacron" unicode="&#x14c;" horiz-adv-x="1714" 
d="M1651 801q13 -171 -34.5 -318.5t-142 -252t-231 -169.5t-299.5 -79q-164 -13 -317 28.5t-272.5 127t-197 220t-91.5 297.5q-14 165 34 308t143.5 245.5t232.5 166t300 77.5q131 10 256 -13t232 -78t190.5 -135t135 -189.5t61.5 -235.5zM944 -8q117 13 200.5 117.5
t120.5 273.5t23 373q-11 149 -58.5 281.5t-117.5 223t-159 139.5t-179 42q-117 -12 -203.5 -118.5t-123.5 -276t-17 -363.5q20 -196 95.5 -358t187 -252.5t231.5 -81.5zM612 1694h357v-11h-357v11z" />
    <glyph glyph-name="omacron" unicode="&#x14d;" horiz-adv-x="1294" 
d="M1231 557q7 -123 -35 -230t-116 -179t-169.5 -115.5t-199.5 -50.5q-85 -6 -170 6.5t-168 48t-148.5 90.5t-109.5 140t-52 190q-10 126 28.5 231t112 174.5t169.5 112t207 55.5q111 12 222.5 -13t205 -82t155.5 -155.5t68 -222.5zM711 -10q62 6 106.5 54.5t65.5 125
t28.5 173t-4.5 198.5q-21 221 -110 356t-215 125q-62 -6 -107 -55.5t-66.5 -126t-29 -173.5t5.5 -198q16 -143 59.5 -253.5t113 -172t153.5 -53.5zM426 1284h356v-10h-356v10z" />
    <glyph glyph-name="Obreve" unicode="&#x14e;" horiz-adv-x="1714" 
d="M1651 801q13 -171 -34.5 -318.5t-142 -252t-231 -169.5t-299.5 -79q-164 -13 -317 28.5t-272.5 127t-197 220t-91.5 297.5q-14 165 34 308t143.5 245.5t232.5 166t300 77.5q131 10 256 -13t232 -78t190.5 -135t135 -189.5t61.5 -235.5zM944 -8q117 13 200.5 117.5
t120.5 273.5t23 373q-11 149 -58.5 281.5t-117.5 223t-159 139.5t-179 42q-117 -12 -203.5 -118.5t-123.5 -276t-17 -363.5q20 -196 95.5 -358t187 -252.5t231.5 -81.5zM856 1741h137q-6 -64 -39.5 -108t-75.5 -61.5t-87 -17.5t-87.5 17.5t-76 61.5t-39.5 108h137
q7 -89 21 -134.5t45 -45.5t43.5 43t21.5 137z" />
    <glyph glyph-name="obreve" unicode="&#x14f;" horiz-adv-x="1294" 
d="M1231 557q7 -123 -35 -230t-116 -179t-169.5 -115.5t-199.5 -50.5q-85 -6 -170 6.5t-168 48t-148.5 90.5t-109.5 140t-52 190q-10 126 28.5 231t112 174.5t169.5 112t207 55.5q111 12 222.5 -13t205 -82t155.5 -155.5t68 -222.5zM711 -10q62 6 106.5 54.5t65.5 125
t28.5 173t-4.5 198.5q-21 221 -110 356t-215 125q-62 -6 -107 -55.5t-66.5 -126t-29 -173.5t5.5 -198q16 -143 59.5 -253.5t113 -172t153.5 -53.5zM690 1331h137q-6 -64 -39.5 -107.5t-75 -61t-87.5 -17.5t-88 17.5t-75.5 61t-39.5 107.5h137q7 -89 21 -134.5t45 -45.5
t43.5 43t21.5 137z" />
    <glyph glyph-name="Ohungarumlaut" unicode="&#x150;" horiz-adv-x="1714" 
d="M1651 801q13 -171 -34.5 -318.5t-142 -252t-231 -169.5t-299.5 -79q-164 -13 -317 28.5t-272.5 127t-197 220t-91.5 297.5q-14 165 34 308t143.5 245.5t232.5 166t300 77.5q131 10 256 -13t232 -78t190.5 -135t135 -189.5t61.5 -235.5zM944 -8q117 13 200.5 117.5
t120.5 273.5t23 373q-11 149 -58.5 281.5t-117.5 223t-159 139.5t-179 42q-117 -12 -203.5 -118.5t-123.5 -276t-17 -363.5q20 -196 95.5 -358t187 -252.5t231.5 -81.5zM883 1575l55 227h184l-229 -227h-10zM666 1575l55 227h182l-227 -227h-10z" />
    <glyph glyph-name="ohungarumlaut" unicode="&#x151;" horiz-adv-x="1294" 
d="M1231 557q7 -123 -35 -230t-116 -179t-169.5 -115.5t-199.5 -50.5q-85 -6 -170 6.5t-168 48t-148.5 90.5t-109.5 140t-52 190q-10 126 28.5 231t112 174.5t169.5 112t207 55.5q111 12 222.5 -13t205 -82t155.5 -155.5t68 -222.5zM711 -10q62 6 106.5 54.5t65.5 125
t28.5 173t-4.5 198.5q-21 221 -110 356t-215 125q-62 -6 -107 -55.5t-66.5 -126t-29 -173.5t5.5 -198q16 -143 59.5 -253.5t113 -172t153.5 -53.5zM694 1165l56 228h184l-229 -228h-11zM477 1165l55 228h183l-228 -228h-10z" />
    <glyph glyph-name="OE" unicode="&#x152;" horiz-adv-x="2021" 
d="M1950 362h10l-84 -362h-1110q-216 0 -377 93t-244.5 255t-83.5 369t83.5 369t244.5 255t377 93h1046l70 -297h-10q-24 55 -56.5 101.5t-78.5 90.5t-110 69t-138 25h-49q-35 0 -58.5 -9.5t-37 -25t-21 -46.5t-9.5 -61.5t-3 -82.5v-479h30q117 0 202 79.5t85 184.5h10v-268
v-269h-10q0 105 -85 184t-202 79h-30v-473q1 -52 3 -82.5t9.5 -61.5t21 -47t37 -25.5t58.5 -9.5h114q59 0 114.5 24.5t96.5 60.5t79 86t62 93t44 88zM856 10h8q82 0 105.5 50t23.5 176v962q0 126 -23.5 175.5t-105.5 49.5h-8q-101 0 -177.5 -38t-133 -120t-86 -219.5
t-29.5 -328.5t29.5 -328.5t86 -220t133 -120.5t177.5 -38z" />
    <glyph glyph-name="oe" unicode="&#x153;" horiz-adv-x="2041" 
d="M1239 475q7 -96 31.5 -180t66.5 -153.5t109 -110t151 -41.5q86 0 187.5 40t154.5 89v-25q-163 -102 -342 -112q-145 -8 -286 31t-238 128q-71 -69 -166 -110t-196 -49q-84 -6 -171 7t-171.5 49t-150.5 91t-108.5 140t-46.5 188q-5 127 34 231t111.5 174t166.5 112.5
t205 55.5q136 14 269.5 -25.5t229.5 -127.5q78 72 186.5 110t227.5 43q213 9 344 -80t154 -268h-748q-13 -108 -4 -207zM1493 1024q-107 -7 -168 -99t-80 -235h457q-2 70 -13 127t-34 107t-64 76.5t-98 23.5zM711 -10q62 6 107.5 54.5t67 125t28.5 173t-7 198.5
q-26 219 -113.5 355t-211.5 126q-62 -6 -107 -55.5t-66.5 -126t-29 -173.5t5.5 -198q16 -143 59.5 -253.5t113 -172t153.5 -53.5z" />
    <glyph glyph-name="Racute" unicode="&#x154;" horiz-adv-x="1480" 
d="M1163 317q25 -56 53.5 -104.5t67.5 -97t87 -77t99 -28.5v-10h-217q-39 0 -62.5 0.5t-68 5.5t-75 13.5t-65 26.5t-56.5 44q-48 54 -83.5 140.5t-56 165.5t-45 153t-64.5 120.5t-99 49.5h-70v-483q1 -51 3 -81.5t9.5 -62t21 -47t37 -25.5t58.5 -10v-10h-576v10
q82 0 105.5 50.5t23.5 175.5v962q0 126 -23.5 175.5t-105.5 49.5v11h650q80 0 156 -19t145.5 -58.5t112 -111.5t42.5 -168q0 -85 -32.5 -151t-89 -106.5t-123 -64t-144.5 -32.5q65 -13 117 -39.5t86.5 -57.5t66.5 -80t52.5 -91.5t49.5 -107.5l4.5 -10.5t4 -9t4.5 -10.5z
M508 729h156q54 0 89.5 29.5t51.5 85t21 108t5 125.5q0 87 -16.5 163t-56 129.5t-94.5 53.5h-27q-35 0 -58.5 -9.5t-37 -25t-21 -46.5t-9.5 -61.5t-3 -82.5v-469zM586 1575l53 227h184l-227 -227h-10z" />
    <glyph glyph-name="racute" unicode="&#x155;" horiz-adv-x="991" 
d="M770 1032q90 7 136.5 -36t27.5 -113q-8 -37 -40 -57t-64.5 -18t-59.5 15q-25 17 -39.5 44.5t-18 48.5t-16 32.5t-37.5 3.5q-51 -15 -104 -86.5t-78 -156.5v-473q2 -131 26 -178.5t103 -47.5v-10h-565v10q80 0 104.5 47.5t24.5 178.5v542q0 131 -24.5 177t-104.5 46v11
h471v-11q-30 -17 -33 -264q38 122 128.5 205t162.5 90zM494 1165l53 228h184l-227 -228h-10z" />
    <glyph glyph-name="Rcommaaccent" unicode="&#x156;" horiz-adv-x="1480" 
d="M1163 317q25 -56 53.5 -104.5t67.5 -97t87 -77t99 -28.5v-10h-217q-39 0 -62.5 0.5t-68 5.5t-75 13.5t-65 26.5t-56.5 44q-48 54 -83.5 140.5t-56 165.5t-45 153t-64.5 120.5t-99 49.5h-70v-483q1 -51 3 -81.5t9.5 -62t21 -47t37 -25.5t58.5 -10v-10h-576v10
q82 0 105.5 50.5t23.5 175.5v962q0 126 -23.5 175.5t-105.5 49.5v11h650q80 0 156 -19t145.5 -58.5t112 -111.5t42.5 -168q0 -85 -32.5 -151t-89 -106.5t-123 -64t-144.5 -32.5q65 -13 117 -39.5t86.5 -57.5t66.5 -80t52.5 -91.5t49.5 -107.5l4.5 -10.5t4 -9t4.5 -10.5z
M508 729h156q54 0 89.5 29.5t51.5 85t21 108t5 125.5q0 87 -16.5 163t-56 129.5t-94.5 53.5h-27q-35 0 -58.5 -9.5t-37 -25t-21 -46.5t-9.5 -61.5t-3 -82.5v-469zM846 -311q2 -50 -7.5 -93.5t-43 -77t-88.5 -30.5v6q48 -4 79 26.5t40.5 64t9.5 63.5q-26 -47 -80 -47
q-37 0 -63.5 25.5t-26.5 62.5t26.5 63.5t63.5 26.5q36 0 61.5 -25.5t28.5 -64.5z" />
    <glyph glyph-name="rcommaaccent" unicode="&#x157;" horiz-adv-x="991" 
d="M770 1032q90 7 136.5 -36t27.5 -113q-8 -37 -40 -57t-64.5 -18t-59.5 15q-25 17 -39.5 44.5t-18 48.5t-16 32.5t-37.5 3.5q-51 -15 -104 -86.5t-78 -156.5v-473q2 -131 26 -178.5t103 -47.5v-10h-565v10q80 0 104.5 47.5t24.5 178.5v542q0 131 -24.5 177t-104.5 46v11
h471v-11q-30 -17 -33 -264q38 122 128.5 205t162.5 90zM412 -311q2 -50 -8 -93.5t-43.5 -77t-88.5 -30.5v6q48 -4 79 26.5t40.5 64t9.5 63.5q-26 -47 -79 -47q-37 0 -64 26t-27 62q0 37 27 63.5t64 26.5q36 0 61.5 -25.5t28.5 -64.5z" />
    <glyph glyph-name="Rcaron" unicode="&#x158;" horiz-adv-x="1480" 
d="M1163 317q25 -56 53.5 -104.5t67.5 -97t87 -77t99 -28.5v-10h-217q-39 0 -62.5 0.5t-68 5.5t-75 13.5t-65 26.5t-56.5 44q-48 54 -83.5 140.5t-56 165.5t-45 153t-64.5 120.5t-99 49.5h-70v-483q1 -51 3 -81.5t9.5 -62t21 -47t37 -25.5t58.5 -10v-10h-576v10
q82 0 105.5 50.5t23.5 175.5v962q0 126 -23.5 175.5t-105.5 49.5v11h650q80 0 156 -19t145.5 -58.5t112 -111.5t42.5 -168q0 -85 -32.5 -151t-89 -106.5t-123 -64t-144.5 -32.5q65 -13 117 -39.5t86.5 -57.5t66.5 -80t52.5 -91.5t49.5 -107.5l4.5 -10.5t4 -9t4.5 -10.5z
M508 729h156q54 0 89.5 29.5t51.5 85t21 108t5 125.5q0 87 -16.5 163t-56 129.5t-94.5 53.5h-27q-35 0 -58.5 -9.5t-37 -25t-21 -46.5t-9.5 -61.5t-3 -82.5v-469zM895 1788l-195 -227h-118l-193 227h10l242 -113l244 113h10z" />
    <glyph glyph-name="rcaron" unicode="&#x159;" horiz-adv-x="991" 
d="M770 1032q90 7 136.5 -36t27.5 -113q-8 -37 -40 -57t-64.5 -18t-59.5 15q-25 17 -39.5 44.5t-18 48.5t-16 32.5t-37.5 3.5q-51 -15 -104 -86.5t-78 -156.5v-473q2 -131 26 -178.5t103 -47.5v-10h-565v10q80 0 104.5 47.5t24.5 178.5v542q0 131 -24.5 177t-104.5 46v11
h471v-11q-30 -17 -33 -264q38 122 128.5 205t162.5 90zM805 1378l-195 -227h-118l-193 227h10l242 -112l244 112h10z" />
    <glyph glyph-name="Sacute" unicode="&#x15a;" horiz-adv-x="1105" 
d="M354 1231q0 -67 38 -125.5t99 -103.5t134.5 -88.5t147 -92t134.5 -103.5t99 -132.5t38 -169.5q0 -192 -140.5 -314t-389.5 -122q-112 0 -268 38q-24 6 -37.5 9t-38 5.5t-38.5 -2.5t-29.5 -15.5t-23 -34t-7.5 -56.5h-11v527h11q0 -39 14 -93.5t47.5 -120t81.5 -120
t125 -91t168 -36.5q52 0 94 13t68.5 34.5t44.5 50t25.5 57t7.5 58.5q0 78 -37.5 142.5t-97 110.5t-131.5 89t-144 89.5t-131.5 100t-97 133t-37.5 176.5q0 182 133.5 296t343.5 114q52 0 93 -7.5t102.5 -27.5t76.5 -24q59 -16 87 8t28 106h10v-526h-10q0 126 -44 229.5
t-132.5 167.5t-206.5 64q-94 0 -146.5 -64t-52.5 -149zM557 1575l53 227h185l-228 -227h-10z" />
    <glyph glyph-name="sacute" unicode="&#x15b;" horiz-adv-x="960" 
d="M317 868q0 -46 35 -83t89.5 -64t120 -54.5t129 -62t114 -78t76 -110.5t14.5 -152q-19 -133 -138 -207.5t-304 -74.5q-74 0 -138.5 17t-108 44t-71.5 52t-45 50q-34 51 -26 104.5t49 67.5q48 14 80.5 -12t29.5 -69q-1 -18 -12.5 -41.5t-21 -39.5t-9 -37.5t18.5 -41.5
q31 -36 95.5 -61t143.5 -25q102 0 168 45t70 125q2 44 -17.5 79.5t-54.5 61.5t-80.5 49t-96 44.5t-101.5 44.5t-96 53.5t-79 67.5t-52.5 89.5t-14.5 116.5q7 130 109.5 198t252.5 68q134 0 226 -44.5t129 -98.5q34 -51 26.5 -103t-51.5 -67q-40 -15 -76.5 10.5t-33.5 69.5
q2 18 12.5 41t18.5 38.5t7 36t-18 39.5q-29 30 -82 49t-117 19q-79 0 -124.5 -40t-45.5 -114zM483 1165l54 228h184l-227 -228h-11z" />
    <glyph glyph-name="Scircumflex" unicode="&#x15c;" horiz-adv-x="1105" 
d="M354 1231q0 -67 38 -125.5t99 -103.5t134.5 -88.5t147 -92t134.5 -103.5t99 -132.5t38 -169.5q0 -192 -140.5 -314t-389.5 -122q-112 0 -268 38q-24 6 -37.5 9t-38 5.5t-38.5 -2.5t-29.5 -15.5t-23 -34t-7.5 -56.5h-11v527h11q0 -39 14 -93.5t47.5 -120t81.5 -120
t125 -91t168 -36.5q52 0 94 13t68.5 34.5t44.5 50t25.5 57t7.5 58.5q0 78 -37.5 142.5t-97 110.5t-131.5 89t-144 89.5t-131.5 100t-97 133t-37.5 176.5q0 182 133.5 296t343.5 114q52 0 93 -7.5t102.5 -27.5t76.5 -24q59 -16 87 8t28 106h10v-526h-10q0 126 -44 229.5
t-132.5 167.5t-206.5 64q-94 0 -146.5 -64t-52.5 -149zM610 1802l195 -227h-10l-244 113l-242 -113h-10l193 227h118z" />
    <glyph glyph-name="scircumflex" unicode="&#x15d;" horiz-adv-x="960" 
d="M317 868q0 -46 35 -83t89.5 -64t120 -54.5t129 -62t114 -78t76 -110.5t14.5 -152q-19 -133 -138 -207.5t-304 -74.5q-74 0 -138.5 17t-108 44t-71.5 52t-45 50q-34 51 -26 104.5t49 67.5q48 14 80.5 -12t29.5 -69q-1 -18 -12.5 -41.5t-21 -39.5t-9 -37.5t18.5 -41.5
q31 -36 95.5 -61t143.5 -25q102 0 168 45t70 125q2 44 -17.5 79.5t-54.5 61.5t-80.5 49t-96 44.5t-101.5 44.5t-96 53.5t-79 67.5t-52.5 89.5t-14.5 116.5q7 130 109.5 198t252.5 68q134 0 226 -44.5t129 -98.5q34 -51 26.5 -103t-51.5 -67q-40 -15 -76.5 10.5t-33.5 69.5
q2 18 12.5 41t18.5 38.5t7 36t-18 39.5q-29 30 -82 49t-117 19q-79 0 -124.5 -40t-45.5 -114zM559 1393l195 -228h-11l-243 113l-242 -113h-10l192 228h119z" />
    <glyph glyph-name="Scedilla" unicode="&#x15e;" horiz-adv-x="1105" 
d="M1044 416q0 -186 -133.5 -307t-369.5 -127q-3 -9 -7.5 -18l-5.5 -11q105 9 153.5 -34.5t27.5 -111.5q-16 -52 -65 -73.5t-114 0.5q-40 10 -73 43v22q31 -44 61 -55q28 -7 48 16.5t26 65.5q4 30 5 57.5t-18 46.5t-59 17q5 18 12 35h-18q-127 0 -268 38q-24 6 -37.5 9
t-38 5.5t-38.5 -2.5t-29.5 -15.5t-23 -34t-7.5 -56.5h-11v527h11q0 -39 14 -93.5t47.5 -120t81.5 -120t125 -91t168 -36.5q52 0 94 13t68.5 34.5t44.5 50t25.5 57t7.5 58.5q0 78 -37.5 142t-97 109.5t-131.5 88.5t-144 89.5t-131.5 100t-97 133t-37.5 176.5q0 182 133.5 296
t343.5 114q52 0 95.5 -8.5t98 -26.5t78.5 -24q59 -16 87 8t28 106h8v-526h-8q0 126 -44 229.5t-132.5 167.5t-206.5 64q-94 0 -146.5 -64t-52.5 -149q0 -67 38 -125t99 -103t134.5 -89t147 -92.5t134.5 -103.5t99 -132.5t38 -169.5z" />
    <glyph glyph-name="scedilla" unicode="&#x15f;" horiz-adv-x="960" 
d="M317 868q0 -46 35 -83t89.5 -64t120 -54.5t129 -62t114 -78t76 -110.5t14.5 -152q-19 -129 -131.5 -203t-288.5 -79q-8 -22 -10 -29q104 9 151.5 -34t26.5 -112q-14 -52 -62.5 -73.5t-115.5 0.5q-40 11 -72 43v22q31 -44 62 -53q27 -9 47 14.5t26 65.5q3 30 4.5 57.5
t-17.5 46.5t-60 17q1 3 2.5 8t4.5 12.5t5 14.5h-14q-74 0 -138.5 17t-108 44t-71.5 52t-45 50q-34 51 -26 104.5t49 67.5q48 14 80.5 -12t29.5 -69q-1 -18 -12.5 -41.5t-21 -39.5t-9 -37.5t18.5 -41.5q31 -36 95.5 -61t143.5 -25q102 0 168 45t70 125q2 44 -17.5 79.5
t-54.5 61.5t-80.5 49t-96 44.5t-101.5 44.5t-96 53.5t-79 67.5t-52.5 89.5t-14.5 116.5q7 130 109.5 198t252.5 68q134 0 226 -44.5t129 -98.5q34 -51 26.5 -103t-51.5 -67q-40 -15 -76.5 10.5t-33.5 69.5q2 18 12.5 41t18.5 38.5t7 36t-18 39.5q-29 30 -82 49t-117 19
q-79 0 -124.5 -40t-45.5 -114z" />
    <glyph glyph-name="Scaron" unicode="&#x160;" horiz-adv-x="1105" 
d="M354 1231q0 -67 38 -125.5t99 -103.5t134.5 -88.5t147 -92t134.5 -103.5t99 -132.5t38 -169.5q0 -192 -140.5 -314t-389.5 -122q-112 0 -268 38q-24 6 -37.5 9t-38 5.5t-38.5 -2.5t-29.5 -15.5t-23 -34t-7.5 -56.5h-11v527h11q0 -39 14 -93.5t47.5 -120t81.5 -120
t125 -91t168 -36.5q52 0 94 13t68.5 34.5t44.5 50t25.5 57t7.5 58.5q0 78 -37.5 142.5t-97 110.5t-131.5 89t-144 89.5t-131.5 100t-97 133t-37.5 176.5q0 182 133.5 296t343.5 114q52 0 93 -7.5t102.5 -27.5t76.5 -24q59 -16 87 8t28 106h10v-526h-10q0 126 -44 229.5
t-132.5 167.5t-206.5 64q-94 0 -146.5 -64t-52.5 -149zM805 1788l-195 -227h-118l-193 227h10l242 -113l244 113h10z" />
    <glyph glyph-name="scaron" unicode="&#x161;" horiz-adv-x="960" 
d="M317 868q0 -46 35 -83t89.5 -64t120 -54.5t129 -62t114 -78t76 -110.5t14.5 -152q-19 -133 -138 -207.5t-304 -74.5q-74 0 -138.5 17t-108 44t-71.5 52t-45 50q-34 51 -26 104.5t49 67.5q48 14 80.5 -12t29.5 -69q-1 -18 -12.5 -41.5t-21 -39.5t-9 -37.5t18.5 -41.5
q31 -36 95.5 -61t143.5 -25q102 0 168 45t70 125q2 44 -17.5 79.5t-54.5 61.5t-80.5 49t-96 44.5t-101.5 44.5t-96 53.5t-79 67.5t-52.5 89.5t-14.5 116.5q7 130 109.5 198t252.5 68q134 0 226 -44.5t129 -98.5q34 -51 26.5 -103t-51.5 -67q-40 -15 -76.5 10.5t-33.5 69.5
q2 18 12.5 41t18.5 38.5t7 36t-18 39.5q-29 30 -82 49t-117 19q-79 0 -124.5 -40t-45.5 -114zM754 1378l-195 -227h-119l-192 227h10l242 -112l243 112h11z" />
    <glyph glyph-name="Tcommaaccent" unicode="&#x162;" horiz-adv-x="1402" 
d="M1303 1434l38 -318h-10q-21 48 -39 83.5t-49.5 80.5t-65.5 73.5t-84 48.5t-108 21q-34 -1 -56.5 -10.5t-36 -25.5t-20.5 -46.5t-9 -61t-3 -81.5v-962q1 -51 3 -81.5t9.5 -62t21 -47t37 -25.5t58.5 -10v-10h-575v10q82 0 105.5 50.5t23.5 175.5v962q0 124 -23 174t-102 51
q-58 -1 -108 -21.5t-83.5 -48t-65.5 -73.5t-49.5 -80t-39.5 -84h-11l39 318h1203zM788 -311q2 -50 -7.5 -93.5t-43 -77t-88.5 -30.5v6q48 -4 79 26.5t40.5 64t9.5 63.5q-26 -47 -80 -47q-37 0 -63.5 25.5t-26.5 62.5t26.5 63.5t63.5 26.5q36 0 61.5 -25.5t28.5 -64.5z" />
    <glyph glyph-name="tcommaaccent" unicode="&#x163;" horiz-adv-x="671" 
d="M551 -4q43 0 90 20v-10q-50 -26 -129 -26q-36 0 -65 2t-70 9.5t-72.5 20t-64.5 37t-55 57.5t-36 83.5t-14 113.5v698h-94v11h94v75q60 0 117.5 16t109.5 57t70 102h4h6v-250h183v-11h-183v-739q0 -60 3.5 -101t14 -82t33.5 -62t58 -21zM510 -311q2 -50 -7.5 -93.5
t-43 -77t-88.5 -30.5v6q48 -4 79 26.5t40.5 64t9.5 63.5q-26 -47 -80 -47q-37 0 -63.5 25.5t-26.5 62.5t26.5 63.5t63.5 26.5q36 0 61.5 -25.5t28.5 -64.5z" />
    <glyph glyph-name="Tcaron" unicode="&#x164;" horiz-adv-x="1402" 
d="M1303 1434l38 -318h-10q-21 48 -39 83.5t-49.5 80.5t-65.5 73.5t-84 48.5t-108 21q-34 -1 -56.5 -10.5t-36 -25.5t-20.5 -46.5t-9 -61t-3 -81.5v-962q1 -51 3 -81.5t9.5 -62t21 -47t37 -25.5t58.5 -10v-10h-575v10q82 0 105.5 50.5t23.5 175.5v962q0 124 -23 174t-102 51
q-58 -1 -108 -21.5t-83.5 -48t-65.5 -73.5t-49.5 -80t-39.5 -84h-11l39 318h1203zM954 1788l-194 -227h-119l-192 227h10l241 -113l244 113h10z" />
    <glyph glyph-name="tcaron" unicode="&#x165;" horiz-adv-x="911" 
d="M551 -4q43 0 90 20v-10q-50 -26 -129 -26q-36 0 -65 2t-70 9.5t-72.5 20t-64.5 37t-55 57.5t-36 83.5t-14 113.5v698h-94v11h94v75q60 0 117.5 16t109.5 57t70 102h4h6v-250h183v-11h-183v-739q0 -60 3.5 -101t14 -82t33.5 -62t58 -21zM879 1155q2 -50 -8 -93.5
t-43.5 -77t-88.5 -30.5v7q36 -3 63.5 13.5t40.5 43t19 51t6 45.5q-26 -47 -80 -47q-37 0 -63.5 25.5t-26.5 62.5t26.5 63.5t63.5 26.5q36 0 62 -25.5t29 -64.5z" />
    <glyph glyph-name="Tbar" unicode="&#x166;" horiz-adv-x="1402" 
d="M1303 1434l38 -318h-10q-18 42 -32.5 70t-38 67.5t-49 66t-59 52t-76 38.5t-91.5 13q-34 -1 -56.5 -10.5t-36 -25.5t-20.5 -46.5t-9 -61t-3 -81.5v-479h195v-10h-195v-473q1 -52 3 -82.5t9.5 -61.5t21 -47t37 -25.5t58.5 -9.5v-10h-575v10q82 0 105.5 50t23.5 176v473
h-193v10h193v479q0 124 -22.5 174t-100.5 51q-49 0 -91.5 -13t-76 -38.5t-60 -52t-50 -66t-38 -68t-32.5 -69.5h-11l41 318h1201z" />
    <glyph glyph-name="tbar" unicode="&#x167;" horiz-adv-x="671" 
d="M553 -4q41 0 88 20v-12q-50 -24 -129 -24q-35 0 -64.5 2t-70 9.5t-72 20t-65 37t-55.5 57.5t-36 83.5t-14 113.5v555h-94v10h94v133h-94v11h94v73q60 0 118 16t110 57t71 102h8v-248h185v-11h-185v-133h125v-10h-125v-596q0 -48 2 -82t8.5 -71t18 -60t32.5 -38t50 -15z
" />
    <glyph glyph-name="Utilde" unicode="&#x168;" horiz-adv-x="1439" 
d="M1100 1434h278v-11q-32 0 -55.5 -7.5t-38 -27t-23 -39t-12.5 -58.5t-5 -70t-1 -88v-697q-1 -92 -26.5 -169.5t-66.5 -129.5t-95 -88t-110.5 -52.5t-113.5 -16.5q-106 0 -193.5 12t-173 45.5t-144 86.5t-94.5 140.5t-36 202.5v731q0 126 -23.5 175.5t-105.5 49.5v11h586
v-11q-35 0 -58.5 -9.5t-37 -25t-21 -46.5t-9.5 -61.5t-3 -82.5v-792q0 -187 79.5 -299.5t233.5 -112.5q171 0 286.5 126t115.5 326v687q0 50 -0.5 76t-3 63t-7.5 55t-14.5 40t-24 32t-35 17t-48.5 7v11zM963 1616q-35 2 -106.5 22.5t-94.5 22.5q-32 4 -53.5 -6.5
t-28.5 -26.5h-10q12 148 92 158q21 2 62 -7t84.5 -20.5t54.5 -13.5q39 -6 55 1t22 32h11q4 -29 -2 -65t-28 -67.5t-58 -29.5z" />
    <glyph glyph-name="utilde" unicode="&#x169;" horiz-adv-x="1308" 
d="M1139 236v-3q0 -130 24.5 -176.5t104.5 -46.5v-10h-471v10q19 10 28 123q-51 -77 -119.5 -115t-183.5 -38q-170 0 -266 93.5t-96 284.5v420q0 131 -24.5 177t-104.5 46v11h473v-11q-35 -17 -35 -307v-377v-25v-59.5t2.5 -56.5t7.5 -56t15 -46.5t24.5 -40t36.5 -23.5
t51 -10q62 0 123 42t96 112q4 43 4 163v461q0 131 -24.5 177t-104.5 46v11h474v-11q-35 -17 -35 -307v-458zM727 1206q-35 2 -106.5 22.5t-94.5 22.5q-32 4 -53.5 -6t-28.5 -26h-10q2 27 5.5 46t12.5 46.5t28 44t46 20.5q21 2 62 -7t84.5 -20.5t54.5 -13.5q39 -6 55.5 1
t22.5 32h10q4 -29 -2 -65t-28 -67.5t-58 -29.5z" />
    <glyph glyph-name="Umacron" unicode="&#x16a;" horiz-adv-x="1439" 
d="M1100 1434h278v-11q-32 0 -55.5 -7.5t-38 -27t-23 -39t-12.5 -58.5t-5 -70t-1 -88v-697q-1 -92 -26.5 -169.5t-66.5 -129.5t-95 -88t-110.5 -52.5t-113.5 -16.5q-106 0 -193.5 12t-173 45.5t-144 86.5t-94.5 140.5t-36 202.5v731q0 126 -23.5 175.5t-105.5 49.5v11h586
v-11q-35 0 -58.5 -9.5t-37 -25t-21 -46.5t-9.5 -61.5t-3 -82.5v-792q0 -187 79.5 -299.5t233.5 -112.5q171 0 286.5 126t115.5 326v687q0 50 -0.5 76t-3 63t-7.5 55t-14.5 40t-24 32t-35 17t-48.5 7v11zM705 1694h356v-11h-356v11z" />
    <glyph glyph-name="umacron" unicode="&#x16b;" horiz-adv-x="1308" 
d="M1139 236v-3q0 -130 24.5 -176.5t104.5 -46.5v-10h-471v10q19 10 28 123q-51 -77 -119.5 -115t-183.5 -38q-170 0 -266 93.5t-96 284.5v420q0 131 -24.5 177t-104.5 46v11h473v-11q-35 -17 -35 -307v-377v-25v-59.5t2.5 -56.5t7.5 -56t15 -46.5t24.5 -40t36.5 -23.5
t51 -10q62 0 123 42t96 112q4 43 4 163v461q0 131 -24.5 177t-104.5 46v11h474v-11q-35 -17 -35 -307v-458zM451 1284h356v-10h-356v10z" />
    <glyph glyph-name="Ubreve" unicode="&#x16c;" horiz-adv-x="1439" 
d="M1100 1434h278v-11q-32 0 -55.5 -7.5t-38 -27t-23 -39t-12.5 -58.5t-5 -70t-1 -88v-697q-1 -92 -26.5 -169.5t-66.5 -129.5t-95 -88t-110.5 -52.5t-113.5 -16.5q-106 0 -193.5 12t-173 45.5t-144 86.5t-94.5 140.5t-36 202.5v731q0 126 -23.5 175.5t-105.5 49.5v11h586
v-11q-35 0 -58.5 -9.5t-37 -25t-21 -46.5t-9.5 -61.5t-3 -82.5v-792q0 -187 79.5 -299.5t233.5 -112.5q171 0 286.5 126t115.5 326v687q0 50 -0.5 76t-3 63t-7.5 55t-14.5 40t-24 32t-35 17t-48.5 7v11zM938 1741h137q-6 -64 -39.5 -108t-76 -61.5t-87.5 -17.5t-87 17.5
t-75.5 61.5t-39.5 108h137q7 -90 20.5 -135t44.5 -45t44 44t22 136z" />
    <glyph glyph-name="ubreve" unicode="&#x16d;" horiz-adv-x="1308" 
d="M1139 236v-3q0 -130 24.5 -176.5t104.5 -46.5v-10h-471v10q19 10 28 123q-51 -77 -119.5 -115t-183.5 -38q-170 0 -266 93.5t-96 284.5v420q0 131 -24.5 177t-104.5 46v11h473v-11q-35 -17 -35 -307v-377v-25v-59.5t2.5 -56.5t7.5 -56t15 -46.5t24.5 -40t36.5 -23.5
t51 -10q62 0 123 42t96 112q4 43 4 163v461q0 131 -24.5 177t-104.5 46v11h474v-11q-35 -17 -35 -307v-458zM715 1331h137q-6 -64 -39.5 -107.5t-75.5 -61t-88 -17.5t-88 17.5t-75.5 61t-39.5 107.5h138q7 -90 20.5 -135t44.5 -45t44 44t22 136z" />
    <glyph glyph-name="Uring" unicode="&#x16e;" horiz-adv-x="1439" 
d="M1100 1434h278v-11q-32 0 -55.5 -7.5t-38 -27t-23 -39t-12.5 -58.5t-5 -70t-1 -88v-697q-1 -92 -26.5 -169.5t-66.5 -129.5t-95 -88t-110.5 -52.5t-113.5 -16.5q-106 0 -193.5 12t-173 45.5t-144 86.5t-94.5 140.5t-36 202.5v731q0 126 -23.5 175.5t-105.5 49.5v11h586
v-11q-35 0 -58.5 -9.5t-37 -25t-21 -46.5t-9.5 -61.5t-3 -82.5v-792q0 -187 79.5 -299.5t233.5 -112.5q171 0 286.5 126t115.5 326v687q0 50 -0.5 76t-3 63t-7.5 55t-14.5 40t-24 32t-35 17t-48.5 7v11zM883 1550q-49 0 -84 35t-35 84t35 84t84 35t83.5 -34.5t34.5 -84.5
t-34.5 -84.5t-83.5 -34.5zM883 1778q-46 0 -78.5 -32.5t-32.5 -76.5q0 -45 32.5 -76.5t78.5 -31.5q45 0 76.5 31.5t31.5 76.5q0 44 -32 76.5t-76 32.5z" />
    <glyph glyph-name="uring" unicode="&#x16f;" horiz-adv-x="1308" 
d="M1139 236v-3q0 -130 24.5 -176.5t104.5 -46.5v-10h-471v10q19 10 28 123q-51 -77 -119.5 -115t-183.5 -38q-170 0 -266 93.5t-96 284.5v420q0 131 -24.5 177t-104.5 46v11h473v-11q-35 -17 -35 -307v-377v-25v-59.5t2.5 -56.5t7.5 -56t15 -46.5t24.5 -40t36.5 -23.5
t51 -10q62 0 123 42t96 112q4 43 4 163v461q0 131 -24.5 177t-104.5 46v11h474v-11q-35 -17 -35 -307v-458zM621 1141q-49 0 -84 34.5t-35 84.5q0 49 34.5 83.5t84.5 34.5q49 0 83.5 -34t34.5 -84t-34.5 -84.5t-83.5 -34.5zM621 1368q-46 0 -78.5 -32t-32.5 -76
q0 -46 32.5 -77.5t78.5 -31.5q45 0 76.5 31.5t31.5 77.5q0 44 -32 76t-76 32z" />
    <glyph glyph-name="Uhungarumlaut" unicode="&#x170;" horiz-adv-x="1439" 
d="M1100 1434h278v-11q-32 0 -55.5 -7.5t-38 -27t-23 -39t-12.5 -58.5t-5 -70t-1 -88v-697q-1 -92 -26.5 -169.5t-66.5 -129.5t-95 -88t-110.5 -52.5t-113.5 -16.5q-106 0 -193.5 12t-173 45.5t-144 86.5t-94.5 140.5t-36 202.5v731q0 126 -23.5 175.5t-105.5 49.5v11h586
v-11q-35 0 -58.5 -9.5t-37 -25t-21 -46.5t-9.5 -61.5t-3 -82.5v-792q0 -187 79.5 -299.5t233.5 -112.5q171 0 286.5 126t115.5 326v687q0 50 -0.5 76t-3 63t-7.5 55t-14.5 40t-24 32t-35 17t-48.5 7v11zM934 1575l55 227h185l-230 -227h-10zM717 1575l55 227h182l-227 -227
h-10z" />
    <glyph glyph-name="uhungarumlaut" unicode="&#x171;" horiz-adv-x="1308" 
d="M1139 236v-3q0 -130 24.5 -176.5t104.5 -46.5v-10h-471v10q19 10 28 123q-51 -77 -119.5 -115t-183.5 -38q-170 0 -266 93.5t-96 284.5v420q0 131 -24.5 177t-104.5 46v11h473v-11q-35 -17 -35 -307v-377v-25v-59.5t2.5 -56.5t7.5 -56t15 -46.5t24.5 -40t36.5 -23.5
t51 -10q62 0 123 42t96 112q4 43 4 163v461q0 131 -24.5 177t-104.5 46v11h474v-11q-35 -17 -35 -307v-458zM739 1165l56 228h184l-229 -228h-11zM522 1165l56 228h182l-228 -228h-10z" />
    <glyph glyph-name="Uogonek" unicode="&#x172;" horiz-adv-x="1439" 
d="M1100 1434h276v-11q-27 0 -48 -7t-35 -17t-23.5 -31.5t-15 -40.5t-8 -54.5t-3 -63.5t-0.5 -76v-697q-1 -103 -32 -186t-81.5 -136.5t-110 -85t-126.5 -42.5q-73 -11 -116.5 -50.5t-31.5 -93.5q7 -41 43 -52.5t91 7.5v-10q-56 -47 -117.5 -57.5t-99.5 18t-31 84.5
q7 53 54.5 91.5t121.5 58.5q-102 1 -186.5 14.5t-166 47t-137.5 86.5t-90 139t-34 198v731q-1 51 -3 82t-9.5 61.5t-21.5 46.5t-37.5 25.5t-58.5 9.5v11h584v-11q-35 0 -58.5 -10t-37 -25.5t-21 -46.5t-9.5 -61.5t-3 -81.5v-790q0 -187 79.5 -300.5t233.5 -113.5
q171 0 286.5 126t115.5 326v687q0 50 -0.5 76t-3 63t-7.5 55t-14.5 40t-24 32t-35 17t-48.5 7v11z" />
    <glyph glyph-name="uogonek" unicode="&#x173;" horiz-adv-x="1308" 
d="M1268 0q-71 -11 -115.5 -57t-32.5 -101q7 -41 42.5 -52.5t90.5 7.5v-10q-56 -47 -117 -57.5t-99 18t-31 84.5q7 59 62.5 104t137.5 64h-409v10q19 10 28 123q-51 -76 -118.5 -113.5t-182.5 -37.5q-170 0 -266 92.5t-96 283.5v422q0 130 -24.5 175.5t-104.5 45.5v11h471
v-11q-35 -16 -35 -307v-377q0 -142 10 -193q25 -124 129 -124q62 0 123 42t96 112q4 43 4 163v463q0 130 -24.5 175.5t-104.5 45.5v11h472v-11q-35 -16 -35 -307v-458q2 -132 26 -179t103 -47v-10z" />
    <glyph glyph-name="Wcircumflex" unicode="&#x174;" horiz-adv-x="2222" 
d="M1735 1434h436v-11q-100 -17 -177.5 -99t-119.5 -218l-358 -1106h-46l-378 989l-326 -989h-45q-356 952 -430 1149q-23 59 -37.5 92.5t-37 73.5t-44 60t-52.5 34t-69 14v11h645v-11q-71 0 -89.5 -37t14.5 -129q33 -88 156 -434t130 -366l320 977h51l364 -1012
q197 609 205 649q15 61 17.5 121t-8 113t-41.5 85.5t-80 32.5v11zM1313 1802l194 -227h-10l-244 113l-241 -113h-11l193 227h119z" />
    <glyph glyph-name="wcircumflex" unicode="&#x175;" horiz-adv-x="1619" 
d="M1290 1012h309v-11q-134 -26 -210 -221q-22 -56 -87 -251t-120 -362l-54 -167h-43l-288 666l-209 -666h-43q-302 684 -357 809q-45 101 -66 130q-43 62 -102 62v11h482v-11q-52 0 -59 -30.5t26 -106.5q26 -60 117 -279.5t102 -244.5l211 672h39l287 -699q26 82 57.5 179
t54 163.5t23.5 71.5q20 55 21.5 117.5t-22 109.5t-69.5 47v11zM975 1393l194 -228h-10l-244 113l-241 -113h-10l192 228h119z" />
    <glyph glyph-name="Ycircumflex" unicode="&#x176;" horiz-adv-x="1507" 
d="M1010 1434h446v-11q-100 -17 -184 -100.5t-133 -216.5l-185 -485v-385q1 -51 3 -81.5t9.5 -62t21 -47t37 -25.5t58.5 -10v-10h-575v10q82 0 105.5 50.5t23.5 175.5v356q-249 465 -272 510q-169 321 -314 321v11h596v-11q-28 0 -41 -18t-11 -46.5t10.5 -57.5t21.5 -56
q20 -38 162 -314t157 -306q5 14 70.5 188t81.5 219q34 96 38.5 185t-28 147.5t-98.5 58.5v11zM872 1802l195 -227h-10l-244 113l-242 -113h-10l193 227h118z" />
    <glyph glyph-name="ycircumflex" unicode="&#x177;" horiz-adv-x="1114" 
d="M786 1012h308v-11q-135 -26 -211 -221q-10 -27 -136.5 -381t-144.5 -399q-76 -207 -166.5 -322.5t-187.5 -121.5q-57 -3 -103.5 26t-54.5 86q-4 36 21.5 63.5t60 30.5t68.5 -20q13 -10 23.5 -35t17 -47t18.5 -41.5t27 -20t43 18.5q57 47 118.5 151t104.5 232h-33
q-324 711 -369 809q-45 100 -65 129q-44 63 -105 63v11h474v-11q-52 0 -59 -29.5t26 -107.5q22 -54 125.5 -295.5t113.5 -265.5q56 154 156 424q15 40 19 87.5t-3 89t-29.5 69.5t-56.5 28v11zM717 1393l194 -228h-10l-244 113l-241 -113h-10l192 228h119z" />
    <glyph glyph-name="Ydieresis" unicode="&#x178;" horiz-adv-x="1507" 
d="M1010 1434h446v-11q-100 -17 -184 -100.5t-133 -216.5l-185 -485v-385q1 -51 3 -81.5t9.5 -62t21 -47t37 -25.5t58.5 -10v-10h-575v10q82 0 105.5 50.5t23.5 175.5v356q-249 465 -272 510q-169 321 -314 321v11h596v-11q-28 0 -41 -18t-11 -46.5t10.5 -57.5t21.5 -56
q20 -38 162 -314t157 -306q5 14 70.5 188t81.5 219q34 96 38.5 185t-28 147.5t-98.5 58.5v11zM733 1786q34 0 59 -25t25 -59q0 -35 -25 -60.5t-59 -25.5q-35 0 -60.5 25.5t-25.5 60.5q0 34 25.5 59t60.5 25zM940 1786q35 0 59.5 -25t24.5 -59q0 -35 -24.5 -60.5t-59.5 -25.5
q-34 0 -59 25.5t-25 60.5q0 34 25 59t59 25z" />
    <glyph glyph-name="Zacute" unicode="&#x179;" horiz-adv-x="1210" 
d="M1149 1434v-11l-750 -1413h322q249 0 373 283h10l-70 -293h-973v10l750 1413h-293q-74 0 -138 -24.5t-110 -67t-78.5 -89t-56.5 -101.5h-8l68 293h954zM690 1575l53 227h185l-228 -227h-10z" />
    <glyph glyph-name="zacute" unicode="&#x17a;" horiz-adv-x="933" 
d="M872 1012v-11l-516 -991h213q99 0 174 65t111 150h8l-63 -225h-738v10l514 991h-178q-52 0 -98.5 -19.5t-80.5 -52t-58 -68t-41 -73.5h-8l59 224h702zM512 1165l53 228h185l-228 -228h-10z" />
    <glyph glyph-name="Zdotaccent" unicode="&#x17b;" horiz-adv-x="1210" 
d="M1149 1434v-11l-750 -1413h322q249 0 373 283h10l-70 -293h-973v10l750 1413h-293q-74 0 -138 -24.5t-110 -67t-78.5 -89t-56.5 -101.5h-8l68 293h954zM709 1786q34 0 59 -25t25 -59q0 -35 -25 -60.5t-59 -25.5q-35 0 -60.5 25.5t-25.5 60.5q0 34 25.5 59t60.5 25z" />
    <glyph glyph-name="zdotaccent" unicode="&#x17c;" horiz-adv-x="933" 
d="M872 1012v-11l-516 -991h213q99 0 174 65t111 150h8l-63 -225h-738v10l514 991h-178q-52 0 -98.5 -19.5t-80.5 -52t-58 -68t-41 -73.5h-8l59 224h702zM569 1376q34 0 59 -25t25 -59q0 -35 -25 -60.5t-59 -25.5q-35 0 -60.5 25.5t-25.5 60.5q0 34 25.5 59t60.5 25z" />
    <glyph glyph-name="Zcaron" unicode="&#x17d;" horiz-adv-x="1210" 
d="M1149 1434v-11l-750 -1413h322q249 0 373 283h10l-70 -293h-973v10l750 1413h-293q-74 0 -138 -24.5t-110 -67t-78.5 -89t-56.5 -101.5h-8l68 293h954zM981 1788l-195 -227h-118l-193 227h10l242 -113l244 113h10z" />
    <glyph glyph-name="zcaron" unicode="&#x17e;" horiz-adv-x="933" 
d="M872 1012v-11l-516 -991h213q99 0 174 65t111 150h8l-63 -225h-738v10l514 991h-178q-52 0 -98.5 -19.5t-80.5 -52t-58 -68t-41 -73.5h-8l59 224h702zM821 1378l-194 -227h-119l-193 227h11l241 -112l244 112h10z" />
    <glyph glyph-name="longs" unicode="&#x17f;" horiz-adv-x="720" 
d="M752 1483q38 -18 55.5 -50t14.5 -63.5t-21 -54.5t-51.5 -30t-66.5 9.5t-46 55.5q-5 19 0.5 49t11.5 51t-1.5 37t-35.5 16q-21 0 -38 -5t-28.5 -16t-20 -22.5t-13.5 -32t-8 -35t-4 -42t-1 -43.5t0.5 -47.5t0.5 -45.5v-978q0 -131 24.5 -178.5t104.5 -47.5v-10h-568v10
q80 0 104.5 47.5t24.5 178.5v765h-112v11h112v108q0 98 26.5 172.5t66 115t93.5 65.5t98.5 32.5t92.5 7.5q66 0 117.5 -10.5t67.5 -19.5z" />
    <glyph glyph-name="AEacute" unicode="&#x1fc;" horiz-adv-x="2064" 
d="M2013 362h10l-84 -362h-1013v10q82 0 105.5 50.5t23.5 175.5v309h-549q-77 -124 -90 -144q-49 -80 -69 -170.5t2 -155.5t87 -65v-10h-436v10q94 17 179 94.5t177 221.5l699 1108h819l70 -297h-11q-24 55 -56.5 101.5t-78.5 90.5t-109.5 69t-136.5 25h-51
q-35 0 -58.5 -9.5t-37 -25t-21 -46.5t-9.5 -61.5t-3 -82.5v-479h31q118 0 203.5 79t85.5 183h8v-535h-8q0 105 -85 184t-204 79h-31v-473q1 -51 3 -81.5t9.5 -62t21 -47t37 -25.5t58.5 -10h115q59 0 115 24t97.5 60.5t79 86t61.5 92.5t44 89zM512 555h543v862
q-21 -35 -543 -862zM1094 1575l53 227h184l-227 -227h-10z" />
    <glyph glyph-name="aeacute" unicode="&#x1fd;" horiz-adv-x="1779" 
d="M1729 682h-746q-13 -108 -4 -207q7 -96 31.5 -180t66 -154t108.5 -110.5t150 -40.5q86 -1 187 38.5t157 90.5v-25q-163 -102 -342 -112q-96 -5 -190.5 10.5t-183 52.5t-158.5 105t-105 159q-61 -261 -231 -311q-48 -14 -102.5 -18.5t-110 4.5t-99.5 32t-70.5 69
t-23.5 110q2 60 26.5 104t60.5 68t89.5 42t102 26.5t112 22t105.5 27.5q73 26 109 62v172q0 43 -1 72t-4.5 64t-10 57.5t-18.5 45.5t-28.5 36.5t-41 21.5t-56.5 8q-96 0 -159.5 -30.5t-86.5 -80.5q-13 -21 -7.5 -43t15.5 -34.5t24.5 -33t20.5 -38.5q11 -43 -19.5 -76.5
t-82.5 -23.5q-48 8 -69 57.5t3 112.5q14 31 42 63t71.5 63t110 50.5t143.5 19.5q241 0 356 -112q144 102 363 112q213 9 344 -80t152 -268zM1233 1022q-107 -6 -168 -97t-82 -235h459q-2 70 -13 126.5t-34 106.5t-64 76.5t-98 22.5zM504 20q138 67 190 306q-23 75 -26 145
v64q-31 -28 -99 -54q-10 -4 -37.5 -13.5t-39.5 -14t-35.5 -15.5t-35.5 -21.5t-29 -28t-26 -37t-16.5 -47.5t-9.5 -62q-11 -144 31 -206t133 -16zM899 1165l53 228h185l-228 -228h-10z" />
    <glyph glyph-name="Oslashacute" unicode="&#x1fe;" horiz-adv-x="1714" 
d="M1651 801q17 -166 -29.5 -312.5t-142.5 -252.5t-234.5 -173t-300.5 -81q-138 -12 -274 16l-31 -109h-10l30 111q-244 55 -405.5 227.5t-187.5 427.5q-17 164 30.5 307t144 245.5t234.5 166.5t301 78q137 9 271 -16l28 106h10l-28 -108q244 -52 406 -220.5t188 -412.5z
M430 684q18 -184 87 -339t169 -249l338 1250q-117 105 -250 96q-117 -12 -203.5 -118.5t-123.5 -276t-17 -363.5zM944 -8q117 13 203.5 121t123.5 278.5t17 364.5q-20 184 -88.5 337.5t-167.5 245.5l-338 -1249q119 -110 250 -98zM791 1575l53 227h184l-227 -227h-10z" />
    <glyph glyph-name="oslashacute" unicode="&#x1ff;" horiz-adv-x="1294" 
d="M1231 557q9 -123 -32 -230t-116 -179t-171.5 -115.5t-200.5 -50.5q-97 -6 -197 12l-31 -113h-10l31 115q-86 18 -161 53.5t-138 91t-100.5 137t-41.5 179.5q-5 127 34 231t111.5 174t166.5 112.5t205 55.5q94 11 200 -8l31 111h10l-30 -113q85 -17 159.5 -55t135.5 -94.5
t99.5 -137.5t45.5 -176zM385 469q25 -258 141 -393l234 866q-82 88 -178 80q-62 -6 -107 -55.5t-66.5 -126t-29 -173.5t5.5 -198zM711 -10q62 6 107.5 54.5t67 125t28.5 173t-7 198.5q-32 261 -141 391l-234 -864q77 -87 179 -78zM596 1165l53 228h185l-228 -228h-10z" />
    <glyph glyph-name="Scommaaccent" unicode="&#x218;" horiz-adv-x="1105" 
d="M354 1231q0 -67 38 -125.5t99 -103.5t134.5 -88.5t147 -92t134.5 -103.5t99 -132.5t38 -169.5q0 -192 -140.5 -314t-389.5 -122q-112 0 -268 38q-24 6 -37.5 9t-38 5.5t-38.5 -2.5t-29.5 -15.5t-23 -34t-7.5 -56.5h-11v527h11q0 -39 14 -93.5t47.5 -120t81.5 -120
t125 -91t168 -36.5q52 0 94 13t68.5 34.5t44.5 50t25.5 57t7.5 58.5q0 78 -37.5 142.5t-97 110.5t-131.5 89t-144 89.5t-131.5 100t-97 133t-37.5 176.5q0 182 133.5 296t343.5 114q52 0 93 -7.5t102.5 -27.5t76.5 -24q59 -16 87 8t28 106h10v-526h-10q0 126 -44 229.5
t-132.5 167.5t-206.5 64q-94 0 -146.5 -64t-52.5 -149zM664 -311q2 -50 -8 -93.5t-43.5 -77t-88.5 -30.5v6q48 -4 79 26.5t40.5 64t9.5 63.5q-26 -47 -80 -47q-37 0 -63.5 25.5t-26.5 62.5t26.5 63.5t63.5 26.5t62.5 -25.5t28.5 -64.5z" />
    <glyph glyph-name="scommaaccent" unicode="&#x219;" horiz-adv-x="960" 
d="M317 868q0 -46 35 -83t89.5 -64t120 -54.5t129 -62t114 -78t76 -110.5t14.5 -152q-19 -133 -138 -207.5t-304 -74.5q-74 0 -138.5 17t-108 44t-71.5 52t-45 50q-34 51 -26 104.5t49 67.5q48 14 80.5 -12t29.5 -69q-1 -18 -12.5 -41.5t-21 -39.5t-9 -37.5t18.5 -41.5
q31 -36 95.5 -61t143.5 -25q102 0 168 45t70 125q2 44 -17.5 79.5t-54.5 61.5t-80.5 49t-96 44.5t-101.5 44.5t-96 53.5t-79 67.5t-52.5 89.5t-14.5 116.5q7 130 109.5 198t252.5 68q134 0 226 -44.5t129 -98.5q34 -51 26.5 -103t-51.5 -67q-40 -15 -76.5 10.5t-33.5 69.5
q2 18 12.5 41t18.5 38.5t7 36t-18 39.5q-29 30 -82 49t-117 19q-79 0 -124.5 -40t-45.5 -114zM567 -311q2 -50 -7.5 -93.5t-43 -77t-88.5 -30.5v6q48 -4 79 26.5t40.5 64t9.5 63.5q-26 -47 -80 -47q-37 0 -63.5 25.5t-26.5 62.5t26.5 63.5t63.5 26.5q36 0 61.5 -25.5
t28.5 -64.5z" />
    <glyph glyph-name="circumflex" unicode="&#x2c6;" horiz-adv-x="628" 
d="M373 1393l194 -228h-10l-244 113l-241 -113h-11l193 228h119z" />
    <glyph glyph-name="caron" unicode="&#x2c7;" horiz-adv-x="628" 
d="M567 1378l-194 -227h-119l-193 227h11l241 -112l244 112h10z" />
    <glyph glyph-name="breve" unicode="&#x2d8;" horiz-adv-x="528" 
d="M330 1331h137q-6 -64 -39.5 -107.5t-75.5 -61t-88 -17.5t-88 17.5t-75.5 61t-39.5 107.5h138q7 -90 20.5 -135t44.5 -45t44 44t22 136z" />
    <glyph glyph-name="dotaccent" unicode="&#x2d9;" horiz-adv-x="292" 
d="M147 1376q34 0 59 -25t25 -59q0 -35 -25 -60.5t-59 -25.5q-35 0 -60.5 25.5t-25.5 60.5q0 34 25.5 59t60.5 25z" />
    <glyph glyph-name="ring" unicode="&#x2da;" horiz-adv-x="360" 
d="M180 1141q-50 0 -84.5 34.5t-34.5 84.5q0 49 34.5 83.5t84.5 34.5t84.5 -34.5t34.5 -83.5q0 -50 -34.5 -84.5t-84.5 -34.5zM180 1368q-46 0 -78 -32t-32 -76q0 -46 32 -77.5t78 -31.5q45 0 77 32t32 77q0 44 -32.5 76t-76.5 32z" />
    <glyph glyph-name="ogonek" unicode="&#x2db;" horiz-adv-x="389" 
d="M328 -2q-71 -11 -115.5 -57t-34.5 -101q7 -41 42.5 -52.5t90.5 7.5v-10q-55 -47 -116.5 -57.5t-100 18t-31.5 84.5q9 69 84.5 119t180.5 59v-10z" />
    <glyph glyph-name="tilde" unicode="&#x2dc;" horiz-adv-x="505" 
d="M354 1206q-35 2 -106 22.5t-94 22.5q-32 4 -53.5 -6t-28.5 -26h-11q11 147 93 157q21 2 62 -7t84 -20.5t54 -13.5q39 -6 55.5 1t22.5 32h10q4 -29 -2 -65t-28 -67.5t-58 -29.5z" />
    <glyph glyph-name="hungarumlaut" unicode="&#x2dd;" horiz-adv-x="579" 
d="M279 1165l55 228h184l-229 -228h-10zM61 1165l56 228h182l-227 -228h-11z" />
    <glyph glyph-name="Wgrave" unicode="&#x1e80;" horiz-adv-x="2222" 
d="M1735 1434h436v-11q-100 -17 -177.5 -99t-119.5 -218l-358 -1106h-46l-378 989l-326 -989h-45q-356 952 -430 1149q-23 59 -37.5 92.5t-37 73.5t-44 60t-52.5 34t-69 14v11h645v-11q-71 0 -89.5 -37t14.5 -129q33 -88 156 -434t130 -366l320 977h51l364 -1012
q197 609 205 649q15 61 17.5 121t-8 113t-41.5 85.5t-80 32.5v11zM1174 1802l55 -227h-10l-228 227h183z" />
    <glyph glyph-name="wgrave" unicode="&#x1e81;" horiz-adv-x="1619" 
d="M1290 1012h309v-11q-134 -26 -210 -221q-22 -56 -87 -251t-120 -362l-54 -167h-43l-288 666l-209 -666h-43q-302 684 -357 809q-45 101 -66 130q-43 62 -102 62v11h482v-11q-52 0 -59 -30.5t26 -106.5q26 -60 117 -279.5t102 -244.5l211 672h39l287 -699q26 82 57.5 179
t54 163.5t23.5 71.5q20 55 21.5 117.5t-22 109.5t-69.5 47v11zM838 1393l55 -228h-10l-228 228h183z" />
    <glyph glyph-name="Wacute" unicode="&#x1e82;" horiz-adv-x="2222" 
d="M1735 1434h436v-11q-100 -17 -177.5 -99t-119.5 -218l-358 -1106h-46l-378 989l-326 -989h-45q-356 952 -430 1149q-23 59 -37.5 92.5t-37 73.5t-44 60t-52.5 34t-69 14v11h645v-11q-71 0 -89.5 -37t14.5 -129q33 -88 156 -434t130 -366l320 977h51l364 -1012
q197 609 205 649q15 61 17.5 121t-8 113t-41.5 85.5t-80 32.5v11zM1257 1575l54 227h184l-227 -227h-11z" />
    <glyph glyph-name="wacute" unicode="&#x1e83;" horiz-adv-x="1619" 
d="M1290 1012h309v-11q-134 -26 -210 -221q-22 -56 -87 -251t-120 -362l-54 -167h-43l-288 666l-209 -666h-43q-302 684 -357 809q-45 101 -66 130q-43 62 -102 62v11h482v-11q-52 0 -59 -30.5t26 -106.5q26 -60 117 -279.5t102 -244.5l211 672h39l287 -699q26 82 57.5 179
t54 163.5t23.5 71.5q20 55 21.5 117.5t-22 109.5t-69.5 47v11zM936 1165l53 228h185l-228 -228h-10z" />
    <glyph glyph-name="Wdieresis" unicode="&#x1e84;" horiz-adv-x="2222" 
d="M1735 1434h436v-11q-100 -17 -177.5 -99t-119.5 -218l-358 -1106h-46l-378 989l-326 -989h-45q-356 952 -430 1149q-23 59 -37.5 92.5t-37 73.5t-44 60t-52.5 34t-69 14v11h645v-11q-71 0 -89.5 -37t14.5 -129q33 -88 156 -434t130 -366l320 977h51l364 -1012
q197 609 205 649q15 61 17.5 121t-8 113t-41.5 85.5t-80 32.5v11zM1149 1786q34 0 59 -25t25 -59q0 -35 -25 -60.5t-59 -25.5q-35 0 -60.5 25.5t-25.5 60.5q0 34 25.5 59t60.5 25zM1356 1786q35 0 59.5 -25t24.5 -59q0 -35 -24.5 -60.5t-59.5 -25.5q-34 0 -59 25.5t-25 60.5
q0 34 25 59t59 25z" />
    <glyph glyph-name="wdieresis" unicode="&#x1e85;" horiz-adv-x="1619" 
d="M1290 1012h309v-11q-134 -26 -210 -221q-22 -56 -87 -251t-120 -362l-54 -167h-43l-288 666l-209 -666h-43q-302 684 -357 809q-45 101 -66 130q-43 62 -102 62v11h482v-11q-52 0 -59 -30.5t26 -106.5q26 -60 117 -279.5t102 -244.5l211 672h39l287 -699q26 82 57.5 179
t54 163.5t23.5 71.5q20 55 21.5 117.5t-22 109.5t-69.5 47v11zM815 1376q34 0 59 -25t25 -59q0 -35 -25 -60.5t-59 -25.5q-35 0 -60.5 25.5t-25.5 60.5q0 34 25.5 59t60.5 25zM1022 1376q35 0 59.5 -25t24.5 -59q0 -35 -24.5 -60.5t-59.5 -25.5q-34 0 -59 25.5t-25 60.5
q0 34 25 59t59 25z" />
    <glyph glyph-name="Ygrave" unicode="&#x1ef2;" horiz-adv-x="1507" 
d="M1010 1434h446v-11q-100 -17 -184 -100.5t-133 -216.5l-185 -485v-385q1 -51 3 -81.5t9.5 -62t21 -47t37 -25.5t58.5 -10v-10h-575v10q82 0 105.5 50.5t23.5 175.5v356q-249 465 -272 510q-169 321 -314 321v11h596v-11q-28 0 -41 -18t-11 -46.5t10.5 -57.5t21.5 -56
q20 -38 162 -314t157 -306q5 14 70.5 188t81.5 219q34 96 38.5 185t-28 147.5t-98.5 58.5v11zM776 1802l55 -227h-10l-227 227h182z" />
    <glyph glyph-name="ygrave" unicode="&#x1ef3;" horiz-adv-x="1114" 
d="M786 1012h308v-11q-135 -26 -211 -221q-10 -27 -136.5 -381t-144.5 -399q-76 -207 -166.5 -322.5t-187.5 -121.5q-57 -3 -103.5 26t-54.5 86q-4 36 21.5 63.5t60 30.5t68.5 -20q13 -10 23.5 -35t17 -47t18.5 -41.5t27 -20t43 18.5q57 47 118.5 151t104.5 232h-33
q-324 711 -369 809q-45 100 -65 129q-44 63 -105 63v11h474v-11q-52 0 -59 -29.5t26 -107.5q22 -54 125.5 -295.5t113.5 -265.5q56 154 156 424q15 40 19 87.5t-3 89t-29.5 69.5t-56.5 28v11zM600 1393l55 -228h-10l-227 228h182z" />
    <glyph glyph-name="endash" unicode="&#x2013;" horiz-adv-x="727" 
d="M61 580h605v-11h-605v11z" />
    <glyph glyph-name="emdash" unicode="&#x2014;" horiz-adv-x="892" 
d="M61 582h770v-11h-770v11z" />
    <glyph glyph-name="quoteleft" unicode="&#x2018;" horiz-adv-x="303" 
d="M63 1311q-2 37 3 71t19.5 65t44 49t71.5 17v-6q-36 3 -63 -13.5t-40 -43t-18.5 -51t-5.5 -45.5q11 21 32.5 34t45.5 13q37 0 63.5 -26.5t26.5 -63.5t-26.5 -62.5t-63.5 -25.5t-62.5 25t-26.5 63z" />
    <glyph glyph-name="quoteright" unicode="&#x2019;" horiz-adv-x="305" 
d="M242 1423q2 -36 -4 -69.5t-20.5 -65t-44 -49.5t-71.5 -16v6q36 -3 63.5 13.5t40.5 43t19 51t6 45.5q-26 -47 -79 -47q-37 0 -64 26t-27 62q0 37 27 63.5t64 26.5q36 0 61.5 -25.5t28.5 -64.5z" />
    <glyph glyph-name="quotesinglbase" unicode="&#x201a;" horiz-adv-x="303" 
d="M240 70q2 -51 -7.5 -94.5t-42.5 -77t-88 -31.5v6q48 -3 78.5 27.5t39.5 63.5t9 63q-11 -21 -32 -34t-45 -13q-38 0 -64.5 26.5t-26.5 63.5t26.5 62.5t64.5 25.5q37 0 61.5 -25t26.5 -63z" />
    <glyph glyph-name="quotedblleft" unicode="&#x201c;" horiz-adv-x="514" 
d="M272 1311q-2 37 4 70.5t20.5 65t44 49.5t71.5 17v-6q-36 3 -63.5 -13.5t-40.5 -43t-19 -51t-6 -45.5q28 47 79 47q37 0 64 -26.5t27 -63.5q0 -36 -27 -62t-64 -26t-62 25t-28 63zM63 1311q-2 37 3 71t19.5 65t44 49t71.5 17v-6q-36 3 -63 -13.5t-40 -43t-18.5 -51
t-5.5 -45.5q11 21 32.5 34t45.5 13q37 0 63.5 -26.5t26.5 -63.5t-26.5 -62.5t-63.5 -25.5t-62.5 25t-26.5 63z" />
    <glyph glyph-name="quotedblright" unicode="&#x201d;" horiz-adv-x="514" 
d="M240 1423q2 -36 -3 -69.5t-19.5 -65t-44 -49.5t-71.5 -16v6q48 -4 79 26t40 64t8 63q-23 -47 -77 -47q-37 0 -64 26t-27 62q0 37 27 63.5t64 26.5t61.5 -26t26.5 -64zM451 1423q2 -36 -3.5 -69.5t-19.5 -65t-43.5 -49.5t-71.5 -16v6q36 -3 63 13.5t40 43t18.5 51
t5.5 45.5q-23 -47 -78 -47q-37 0 -63.5 25.5t-26.5 62.5t26.5 63.5t63.5 26.5t62 -26t27 -64z" />
    <glyph glyph-name="quotedblbase" unicode="&#x201e;" horiz-adv-x="514" 
d="M240 70q3 -51 -6.5 -94.5t-43 -77t-88.5 -31.5v6q48 -3 78.5 27.5t39.5 63.5t9 63q-11 -21 -32 -34t-45 -13q-37 0 -64 26.5t-27 63.5q0 36 27 62t64 26t61.5 -25t26.5 -63zM451 70q2 -51 -7.5 -94.5t-42.5 -77t-88 -31.5v6q48 -3 78.5 27.5t39.5 63.5t9 63
q-11 -21 -32.5 -34t-45.5 -13q-38 0 -64 26.5t-26 63.5t26 62.5t64 25.5q37 0 62.5 -25t26.5 -63z" />
    <glyph glyph-name="bullet" unicode="&#x2022;" horiz-adv-x="356" 
d="M178 895q49 0 83 -34.5t34 -82.5q0 -49 -33.5 -82.5t-83.5 -33.5q-48 0 -82.5 33.5t-34.5 82.5q0 47 35 82t82 35z" />
    <glyph glyph-name="ellipsis" unicode="&#x2026;" horiz-adv-x="972" 
d="M178 213q49 0 83 -34.5t34 -82.5q0 -49 -33.5 -82.5t-83.5 -33.5q-48 0 -82.5 33.5t-34.5 82.5q0 47 35 82t82 35zM485 213q49 0 83 -34.5t34 -82.5q0 -49 -33.5 -82.5t-83.5 -33.5q-48 0 -82 33.5t-34 82.5q0 47 34.5 82t81.5 35zM795 213q49 0 82.5 -34.5t33.5 -82.5
q0 -50 -33.5 -83t-82.5 -33q-48 0 -82.5 33.5t-34.5 82.5q0 47 35 82t82 35z" />
    <glyph glyph-name="perthousand" unicode="&#x2030;" horiz-adv-x="1712" 
d="M821 1454h10l-516 -1454h-10zM311 1454q112 0 182 -73t70 -216q0 -141 -70 -213.5t-182 -72.5q-111 0 -180.5 72.5t-69.5 213.5q0 142 69.5 214.5t180.5 74.5zM311 885q109 0 109 280q0 281 -109 281q-106 0 -106 -281q0 -280 106 -280zM844 555q111 0 180.5 -73
t69.5 -216q0 -141 -69.5 -213.5t-180.5 -72.5q-112 0 -182 72.5t-70 213.5q0 143 70 216t182 73zM844 -14q106 0 106 280q0 281 -106 281q-109 0 -109 -281q0 -280 109 -280zM1401 555q111 0 180.5 -73t69.5 -216q0 -141 -69.5 -213.5t-180.5 -72.5q-112 0 -182 72.5
t-70 213.5q0 143 70 216t182 73zM1401 -14q106 0 106 280q0 281 -106 281q-109 0 -109 -281q0 -280 109 -280z" />
    <glyph glyph-name="guilsinglleft" unicode="&#x2039;" horiz-adv-x="555" 
d="M61 709l433 348v-10l-363 -342l363 -343v-10l-433 346v11z" />
    <glyph glyph-name="guilsinglright" unicode="&#x203a;" horiz-adv-x="555" 
d="M61 1057l433 -348v-11l-433 -346v10l361 343l-361 342v10z" />
    <glyph glyph-name="fraction" unicode="&#x2044;" horiz-adv-x="430" 
d="M358 1454h11l-297 -1454h-11z" />
    <glyph glyph-name="Euro" unicode="&#x20ac;" horiz-adv-x="1536" 
d="M1028 -4q240 5 447 199v-31q-49 -39 -87 -64t-92.5 -51.5t-121 -42t-146.5 -20.5q-158 -10 -304 22t-268 105t-204 200t-102 293h-130v10h127q0 5 -1 16t-1 17q-6 71 0 135h-125v11h127q14 145 80 264.5t168 199.5t230 128t272 61q155 15 373 -43q33 -9 54.5 -12.5
t45.5 -1.5t38 14t23 38t9 66h8v-516h-8q0 40 -21 98t-66.5 122.5t-107 118t-153 84.5t-193.5 22q-79 -7 -145 -47.5t-111 -102.5t-77 -144t-48 -169.5t-18 -179.5h424v-11h-424q-2 -42 2 -116q4 -36 6 -52h366v-10h-364q13 -94 40.5 -182t72.5 -167t103 -137.5t136 -92
t166 -31.5z" />
    <glyph glyph-name="afii61352" unicode="&#x2116;" horiz-adv-x="2242" 
d="M1049 1434h516v-11q-108 0 -181 -105t-73 -282v-1036h-60q-31 37 -475.5 607.5t-472.5 609.5v-820q0 -177 73 -282t181 -105v-10h-516v10q108 0 180 104.5t72 282.5v834q-65 89 -121.5 140.5t-116.5 51.5v11h477l768 -1004v606q0 177 -72 282t-179 105v11zM1606 715h575
v-10h-575v10zM1892 1454q116 -2 196.5 -75.5t80.5 -213.5q-1 -95 -41.5 -161.5t-101 -95.5t-134.5 -29q-115 0 -194.5 73.5t-79.5 212.5q0 140 80 214.5t194 74.5zM1892 885q40 0 69 25.5t43 69t20 89t6 96.5t-6 96t-19.5 89t-42.5 70t-70 26q-40 0 -68.5 -25.5t-42.5 -69.5
t-20 -89t-6 -97q0 -51 6 -96t20 -88.5t42.5 -69.5t68.5 -26z" />
    <glyph glyph-name="minus" unicode="&#x2212;" horiz-adv-x="700" 
d="M61 580h578v-11h-578v11z" />
    <glyph glyph-name="approxequal" unicode="&#x2248;" horiz-adv-x="911" 
d="M680 682q-36 0 -75 11.5t-65.5 24.5t-70.5 38q-45 25 -73 39t-71.5 26.5t-82.5 12.5q-40 0 -72 -15t-49.5 -35.5t-29 -43.5t-15.5 -36t-4 -16l-11 2q0 3 4 17t16.5 38t31.5 45.5t53 37.5t76 16q41 0 86 -13.5t71 -27t74 -39.5q49 -26 71 -37t61.5 -23t74.5 -12
q46 0 80.5 18.5t50 46t22.5 49.5t7 38h10q0 -13 -4 -30.5t-15.5 -41.5t-29.5 -43.5t-49.5 -33t-71.5 -13.5zM680 453q-36 0 -75.5 12t-64.5 24.5t-71 38.5q-52 28 -75 39t-68 25t-84 14t-71.5 -15t-50 -36t-29 -42.5t-15.5 -36.5l-4 -15h-11q0 3 4 17t16.5 38t31.5 46t53 38
t76 16q41 0 85.5 -13t72 -26.5t73.5 -39.5q3 -1 22.5 -11.5t24 -13t21.5 -11t23.5 -11t21.5 -8.5t23.5 -8t22 -5.5t25 -4.5t23.5 -1q46 0 80.5 18.5t50 45.5t22.5 49t7 38h10q0 -13 -4 -30.5t-15.5 -41t-29.5 -43t-49.5 -33t-71.5 -13.5z" />
    <glyph glyph-name="notequal" unicode="&#x2260;" horiz-adv-x="718" 
d="M637 688h-168l-227 -227h395v-10h-406l-81 -82l-9 6l76 76h-156v10h166l228 227h-394v10h404l84 84l6 -8l-76 -76h158v-10zM82 698h575v-10h-575v10zM82 451v10h575v-10h-575z" />
    <glyph glyph-name="lessequal" unicode="&#x2264;" 
d="M121 811l426 348v-10l-420 -342l420 -342v-10l-426 346v10zM61 274h576v-10h-576v10z" />
    <glyph glyph-name="greaterequal" unicode="&#x2265;" 
d="M152 1159l426 -348v-10l-426 -346v10l419 342l-419 342v10zM61 274h576v-10h-576v10z" />
    <glyph glyph-name="ruble" horiz-adv-x="1263" 
d="M725 621h-182v-154h202v-10h-202v-221q0 -126 23.5 -176t105.5 -50v-10h-576v10q35 0 58.5 9.5t37 25.5t21 47t9.5 61.5t3 82.5v221h-184v10h184v143h-184v11h184v577q-1 51 -3 81.5t-9.5 61.5t-21 46.5t-37 25.5t-58.5 10v11h649q62 0 124 -13.5t122.5 -45t107 -77.5
t75 -116t28.5 -154q0 -85 -28.5 -154.5t-75 -115.5t-109 -77.5t-129 -45.5t-135.5 -14zM696 1423h-24q-82 0 -105.5 -50t-23.5 -175v-567h153q37 0 65.5 15.5t46.5 46.5t29.5 65.5t17 83.5t7.5 90.5t2 95.5q0 73 -10 141.5t-29 126t-52.5 92.5t-76.5 35z" />
    <glyph glyph-name="bitcoin" horiz-adv-x="1284" 
d="M782 729q66 -1 128 -13.5t121.5 -41t103.5 -69.5t71 -104t27 -139q0 -78 -28.5 -140.5t-75 -103t-109.5 -68t-128.5 -39t-135.5 -11.5h-51v-217h-11v217h-110v-217h-9v217h-514v10q82 0 105.5 50t23.5 176v962q0 125 -23.5 175t-105.5 50v11h463v219h11v-219h110v219h8
v-219h23q80 0 156 -19t146 -58.5t112.5 -111.5t42.5 -168q0 -79 -28.5 -142t-79.5 -103.5t-111 -65.5t-132 -37zM508 1198v-469h121q37 0 65 14t45.5 40.5t29 57t17 74t7.5 79.5t2 83q0 63 -10 122.5t-29 110.5t-51.5 82t-73.5 31q-34 0 -57 -10t-36 -26t-20 -47t-8.5 -61
t-1.5 -81zM664 10q112 0 171.5 94.5t59.5 257.5q0 162 -61 259.5t-170 97.5h-7h-149v-483q0 -126 23.5 -176t105.5 -50h27z" />
    <glyph glyph-name="commaaccent" horiz-adv-x="305" 
d="M242 1288q2 -50 -8 -93.5t-43.5 -77t-88.5 -30.5v7q36 -3 63.5 13.5t40.5 43t19 51t6 45.5q-26 -47 -79 -47q-37 0 -64 26t-27 62q0 37 27 63.5t64 26.5q36 0 61.5 -25.5t28.5 -64.5z" />
  </font>
</defs>
</svg>
